<svg id="Layer_1" xmlns="http://www.w3.org/2000/svg" viewBox="0 0 751.86 716.71">
    <defs>
        <style>.cls-1{opacity:.75}.cls-2{fill:#71c839;stroke:#71c839;stroke-miterlimit:10;stroke-width:2px}</style>
    </defs>
    <g id="arrow4" class="cls-1">
        <path class="cls-2" d="m98.1 349.12-35.47 35.47c-.82.82-1.27 1.92-1.27 3.08s.45 2.26 1.27 3.08l2.61 2.61a4.37 4.37 0 0 0 6.17 0l29.79-29.79 29.82 29.82c.82.82 1.92 1.27 3.08 1.27s2.26-.45 3.08-1.27l2.61-2.61c.82-.82 1.27-1.92 1.27-3.08s-.45-2.26-1.27-3.08l-35.5-35.5a4.34 4.34 0 0 0-3.09-1.27c-1.17 0-2.27.45-3.1 1.27Z" />
    </g>
    <g id="element4" class="cls-1">
        <path class="cls-2" d="m17.97 577.77-8.83 33.07c-4.98 18.8 4.76 38.05 21.97 45.75l-10.42 39.18-16.53-4.3-2.94 11.55 45.3 12.23 2.94-11.55-16.99-4.53 10.42-39.18c1.59.23 2.94.23 4.08.23 6.8 0 13.36-1.81 19.25-5.44 8.83-5.44 15.4-13.59 18.12-23.78l8.83-33.07-75.2-20.16ZM198.49 691.47 181.5 696l-10.42-39.18c17.21-7.7 26.95-26.95 21.97-45.75L184.22 578l-75.2 20.16 8.83 33.07c2.72 10.19 9.29 18.35 18.12 23.78 5.89 3.62 12.68 5.44 19.25 5.44 1.59 0 2.94 0 4.08-.23l10.42 39.18-16.99 4.53 2.94 11.55 45.53-12.23-2.72-11.78Z" />
        <path class="cls-2" transform="rotate(-45 139.758 555.07)" d="M123.22 549.18h33.07v11.78h-33.07z" />
        <path class="cls-2" d="M95.44 524.99h11.78v32.62H95.44z" />
        <path class="cls-2" transform="rotate(-45 59.557 555.14)" d="M53.66 538.61h11.78v33.07H53.66z" />
    </g>
    <g id="arrow3" class="cls-1">
        <path class="cls-2" d="m342.2 638.71 35.47 35.47c.82.82 1.92 1.27 3.08 1.27s2.26-.45 3.08-1.27l2.61-2.61a4.37 4.37 0 0 0 0-6.17l-29.79-29.79 29.82-29.82c.82-.82 1.27-1.92 1.27-3.08s-.45-2.26-1.27-3.08l-2.61-2.61c-.82-.82-1.92-1.27-3.08-1.27s-2.26.45-3.08 1.27l-35.5 35.5a4.34 4.34 0 0 0-1.27 3.09c0 1.17.45 2.27 1.27 3.1Z" />
    </g>
    <g id="element3" class="cls-1">
        <path class="cls-2" d="M689.64 651.75c-.5-2.33-2.9-3.7-5.15-2.95l-8.47 2.82-3.93-11.8a4.065 4.065 0 0 0-5.15-2.57l-.94.31-13.28-39.85c5.79-3.98 8.7-11.55 6.28-18.8a4.613 4.613 0 0 0-2.3-2.66c-.65-.33-1.36-.48-2.08-.48-.41 5.74-3.63 11.07-8.83 14.02-3.36 1.91-5.24 1.95-15.88 3.92 3.19 4.48 8.45 7.13 14.08 6.9l13.28 39.85-.94.31a4.065 4.065 0 0 0-2.57 5.15l3.93 11.8-1.18.39c-.5-1.05-1.18-2.05-2.05-2.93l-36.16-36.56a10.796 10.796 0 0 0-5.12-2.89s-39.5-7.96-44.56-8.91c3.5-.16 28.19-1.26 31.82-1.42l1.19-6.72c-4.58.46-11.77-2.69-14.27-7.02-2.05-3.56-16.12-28.01-18-31.27l25.45 26.98a8.95 8.95 0 0 0 8.06 2.57l35.88-6.63c5.16-.96 8.44-6.16 6.97-11.28-1.25-4.37-5.67-7.17-10.23-6.33l-30.45 5.64-23.7-24.45 26.61 16.2.98-5.7c1.2-6.82-3.35-13.32-10.16-14.53l-22.01-3.89c-6.82-1.2-13.32 3.35-14.53 10.16-.08.43-11.15 63.14-11.26 63.76h.01c-.74 5.39 2.72 10.58 8.13 11.89l46.08 11.11 34.01 34.38c2.95 2.98 7.39 4.01 11.43 2.49 2.29 3.61 5.02 7.17 7.94 10.38 4.61-4.58 10.68-7.71 17.44-8.61 3.47-6.09 8.66-10.95 14.81-14.06-.19-3.07-.58-6.05-1.16-8.77ZM750.71 707.34c-2.25-7.95-9.51-13.54-17.75-13.73.83-15.02-11.17-27.69-26.19-27.69a26.18 26.18 0 0 0-24.8 17.68c-14.24-1.31-25.8 11.62-22.74 25.7.4 1.86 2.04 3.18 3.94 3.18h83.66c2.68 0 4.61-2.56 3.88-5.14Z" />
        <path class="cls-2" d="m598.5 662.44-2.6-20.4-22.38-5.64 3.37 26.48-10.83 35.81c-1.72 5.68 1.49 11.68 7.17 13.4 1.04.31 2.08.46 3.12.46 4.61 0 8.88-2.99 10.28-7.64l11.5-38c.44-1.45.57-2.97.37-4.47Z" />
        <circle class="cls-2" cx="592.03" cy="517.22" r="18.56" />
    </g>
    <g id="arrow2" class="cls-1">
        <path class="cls-2" d="m661.83 393.4 35.47-35.47c.82-.82 1.27-1.92 1.27-3.08s-.45-2.26-1.27-3.08l-2.61-2.61a4.37 4.37 0 0 0-6.17 0l-29.79 29.79-29.82-29.82c-.82-.82-1.92-1.27-3.08-1.27s-2.26.45-3.08 1.27l-2.61 2.61c-.82.82-1.27 1.92-1.27 3.08s.45 2.26 1.27 3.08l35.5 35.5a4.34 4.34 0 0 0 3.09 1.27c1.17 0 2.27-.45 3.1-1.27Z" />
    </g>
    <g id="element2" class="cls-1">
        <path class="cls-2" d="M588.36 57.25v-37.5c0-2.17.25-4.25.83-6.25h-23.75c-8 0-14.58 6.58-14.58 14.58v37.5c0 8 6.58 14.58 14.58 14.58h3.08l10.67 14.17c1.17 1.5 2.92 2.42 4.75 2.5h.25c1.83 0 3.5-.75 4.67-2.17l12.5-14.25c-7.75-4.83-13-13.42-13-23.17ZM736.28 13.5h-23.75c.58 2 .83 4.08.83 6.25v37.5c0 9.75-5.25 18.33-13 23.17l12.5 14.25c1.17 1.42 2.83 2.17 4.67 2.17h.25c1.83-.08 3.58-1 4.75-2.5l10.58-14.17h3.17c8 0 14.58-6.58 14.58-14.58V28.08c0-8-6.58-14.58-14.58-14.58ZM650.86 88.5h-.23a6.275 6.275 0 0 1-4.77-2.5l-10.62-14.17h-19.79c-8.04 0-14.58-6.54-14.58-14.58v-37.5c0-8.04 6.54-14.58 14.58-14.58h70.83c8.04 0 14.58 6.54 14.58 14.58v37.5c0 8.04-6.54 14.58-14.58 14.58h-18l-12.72 14.53a6.219 6.219 0 0 1-4.7 2.13Z" />
        <circle class="cls-2" cx="584.19" cy="130.17" r="16.67" />
        <path class="cls-2" d="M606.44 158.5a34.911 34.911 0 0 0-13.92 27.92v2.08H557.1c-3.42 0-6.25-2.83-6.25-6.25v-4.17c0-12.67 10.25-22.92 22.92-22.92h20.83c4.33 0 8.42 1.25 11.83 3.33Z" />
        <circle class="cls-2" cx="717.53" cy="130.17" r="16.67" />
        <path class="cls-2" d="M750.86 178.08v4.17c0 3.42-2.83 6.25-6.25 6.25h-35.42v-2.08c0-11.42-5.5-21.58-13.92-27.92 3.42-2.08 7.5-3.33 11.83-3.33h20.83c12.67 0 22.92 10.25 22.92 22.92Z" />
        <circle class="cls-2" cx="650.86" cy="126" r="25" />
        <path class="cls-2" d="M673.78 163.5h-45.83c-12.64 0-22.92 10.27-22.92 22.92v12.5c0 3.45 2.8 6.25 6.25 6.25h79.17c3.45 0 6.25-2.8 6.25-6.25v-12.5c0-12.64-10.27-22.92-22.92-22.92Z" />
    </g>
    <g id="arrow-1" class="cls-1">
        <path class="cls-2" d="m386.49 93.72-35.47-35.47c-.82-.82-1.92-1.27-3.08-1.27s-2.26.45-3.08 1.27l-2.61 2.61a4.37 4.37 0 0 0 0 6.17l29.79 29.79-29.82 29.82c-.82.82-1.27 1.92-1.27 3.08s.45 2.26 1.27 3.08l2.61 2.61c.82.82 1.92 1.27 3.08 1.27s2.26-.45 3.08-1.27l35.5-35.5a4.34 4.34 0 0 0 1.27-3.09c0-1.17-.45-2.27-1.27-3.1Z" />
    </g>
    <g id="element1" class="cls-1">
        <path class="cls-2" d="M143.29 1H59.14c-8.05 0-14.55 6.53-14.55 14.57v170.88c0 8.03 6.5 14.55 14.55 14.55h84.15c8.04 0 14.55-6.52 14.55-14.55V15.57c0-8.04-6.52-14.57-14.55-14.57ZM80.45 9.85h41.54c1.05 0 1.9 1.57 1.9 3.51s-.85 3.51-1.9 3.51H80.45c-1.06 0-1.89-1.57-1.89-3.51 0-1.94.84-3.51 1.89-3.51Zm20.77 176.77c-5.12 0-9.29-4.17-9.29-9.3s4.17-9.29 9.29-9.29 9.28 4.15 9.28 9.29-4.17 9.3-9.28 9.3Zm45.72-31.84H55.49V25.58h91.44v129.2Z" />
    </g>
</svg>