<?xml version="1.0" encoding="UTF-8"?>
<svg width="512" height="512" viewBox="0 0 60 60" xmlns="http://www.w3.org/2000/svg">
<g fill-rule="evenodd" opacity=".07">
<g fill="#71c839" fill-rule="nonzero">
<path id="a" d="m9 54h-3v-3c0-0.55228-0.44772-1-1-1s-1 0.44772-1 1v4c0 0.55228 0.44772 1 1 1h4c0.55228 0 1-0.44772 1-1s-0.44772-1-1-1z"/>
<path d="m54 11c-2.9246 0.0054296-5.4201 2.1167-5.91 5h-16.179c-0.54858-5.6338-2.7828-10.971-6.411-15.316-0.38652-0.41361-0.92688-0.64898-1.493-0.6503-0.5661-0.0013258-1.1076 0.2315-1.496 0.6433-1.8769 2.2097-3.388 4.7056-4.476 7.393-0.95979-1.9356-2.149-3.7486-3.542-5.4-0.38815-0.4104-0.92812-0.64292-1.493-0.64292s-1.1048 0.23252-1.493 0.64292c-3.182 3.8298-5.307 8.4252-6.164 13.33h-1.343c-2.2091 0-4 1.7909-4 4v36c0 2.2091 1.7909 4 4 4h50c3.3123-0.0033074 5.9967-2.6877 6-6v-37c-0.0033074-3.3123-2.6877-5.9967-6-6zm0 2c2.2091 0 4 1.7909 4 4v32.54c-2.2714-2.0532-5.7286-2.0532-8 0v-32.54c0-2.2091 1.7909-4 4-4zm-10 5h4v36c2.927e-4 1.4782 0.54945 2.9037 1.541 4h-25.541v-3c0-1.1046 0.89543-2 2-2h8c5.5203-0.0060624 9.9939-4.4797 10-10zm-20.008-16c3.7693 4.4918 5.8893 10.137 6.008 16 0 5.774-1.81 9.3-5 9.9v-3.9c0-0.55228-0.44772-1-1-1s-1 0.44772-1 1v3.9c-1.1273-0.21177-2.1406-0.82277-2.854-1.721 0.61043-2.0014 0.8987-4.0871 0.854-6.179-0.017618-3.1881-0.628-6.3451-1.8-9.31 1.0333-3.1737 2.6593-6.1225 4.792-8.69zm-10.992 2c1.7954 2.1422 3.2323 4.5608 4.255 7.162l8e-3 0.018c1.1327 2.8034 1.7222 5.7965 1.737 8.82 0 5.774-1.81 9.3-5 9.9v-3.486l2.707-2.707c0.37897-0.39238 0.37355-1.0161-0.012181-1.4018s-1.0094-0.39115-1.4018-0.012181l-2.293 2.293-2.293-2.293c-0.39238-0.37897-1.0161-0.37355-1.4018 0.012181-0.38573 0.38573-0.39115 1.0094-0.012181 1.4018l2.707 2.707v3.486c-3.19-0.6-5-4.125-5-9.9 0.13008-5.859 2.2455-11.5 6-16zm-11 52v-36c0-1.1046 0.89543-2 2-2h1.09c-0.055 0.653-0.09 1.318-0.09 2 0 9.591 4.541 11.561 7 11.923v10.077c0 0.55228 0.44772 1 1 1s1-0.44772 1-1v-10.077c2.2574-0.33626 4.2188-1.7299 5.279-3.751 1.0235 0.96411 2.3262 1.5792 3.721 1.757v10.071c0 0.55228 0.44772 1 1 1s1-0.44772 1-1v-10.077c2.459-0.362 7-2.332 7-11.923h3v25c0 1.1046-0.89543 2-2 2h-8c-5.5203 0.0060624-9.9939 4.4797-10 10v3h-11c-1.1046 0-2-0.89543-2-2zm15 2v-3c0.0049599-4.4162 3.5838-7.995 8-8h8c2.2091 0 4-1.7909 4-4v-25h5v25c-0.0049599 4.4162-3.5838 7.995-8 8h-8c-2.2091 0-4 1.7909-4 4v3zm37 0c-2.2091 0-4-1.7909-4-4s1.7909-4 4-4 4 1.7909 4 4-1.7909 4-4 4z"/>
</g>
</g>
</svg>
