<?xml version="1.0" encoding="UTF-8"?>
<svg enable-background="new 0 0 384 384" version="1.1" viewBox="0 0 384 384" xml:space="preserve" xmlns="http://www.w3.org/2000/svg">
<style type="text/css">
	.st0{fill:#FFFFFF;}
</style>
<path class="st0" d="m368 207.7h-352c-8.8 0-16-7.2-16-16s7.2-16 16-16h352c8.8 0 16 7.2 16 16s-7.2 16-16 16z"/>
<path class="st0" d="M368,85H16C7.2,85,0,77.8,0,69s7.2-16,16-16h352c8.8,0,16,7.2,16,16S376.8,85,368,85z"/>
<path class="st0" d="m368 330.3h-352c-8.8 0-16-7.2-16-16s7.2-16 16-16h352c8.8 0 16 7.2 16 16s-7.2 16-16 16z"/>
</svg>
