<?xml version="1.0" encoding="utf-8"?>
<!-- Generator: Adobe Illustrator 26.5.0, SVG Export Plug-In . SVG Version: 6.00 Build 0)  -->
<svg version="1.1" id="Layer_1" xmlns="http://www.w3.org/2000/svg" xmlns:xlink="http://www.w3.org/1999/xlink" x="0px" y="0px"
	 viewBox="0 0 512 512" style="enable-background:new 0 0 512 512;" xml:space="preserve">
<style type="text/css">
	.st0{fill:#FAF9F6;}
</style>
<g id="_02_User">
	<path class="st0" d="M25,512c-13.8,0-25-11.2-25-25c0-6.6,2.6-13,7.3-17.7l462-462c9.8-9.8,25.6-9.8,35.4,0
		c9.8,9.8,9.8,25.6,0,35.4l-462,462C38,509.4,31.6,512,25,512z"/>
	<path class="st0" d="M487,512c-6.6,0-13-2.6-17.7-7.3l-462-462c-9.8-9.8-9.8-25.6,0-35.4s25.6-9.8,35.4,0l462,462
		c9.8,9.8,9.8,25.6,0,35.4C500,509.4,493.6,512,487,512z"/>
</g>
</svg>
