<?xml version="1.0" encoding="UTF-8"?>
<svg enable-background="new 0 0 291.76 259.04" version="1.1" viewBox="0 0 291.76 259.04" xml:space="preserve" xmlns="http://www.w3.org/2000/svg" xmlns:xlink="http://www.w3.org/1999/xlink">
<style type="text/css">
	
		.st0{clip-path:url(#SVGID_00000020372057968041848770000010651329729818823859_);fill-rule:evenodd;clip-rule:evenodd;fill:#77C043;}
	.st1{fill-rule:evenodd;clip-rule:evenodd;fill:#FFFFFF;}
</style>

	
		<defs>
			<rect id="a" x="33.04" y="8.19" width="225.56" height="242.58"/>
		</defs>
		<clipPath id="b">
			<use xlink:href="#a"/>
		</clipPath>
		
			<path d="m229.24 97.52c0.04 0.45 0.44 0.82 0.21 1.1-0.22 0.28-1.06 0.48-1.07 0.7s0.83 0.47 1.46 0.57c0.64 0.09 1.07 0.03 1.56 0.17s1.01 0.47 1.61 0.48 1.27-0.29 1.37-0.5-0.35-0.33-0.9-0.43c-0.57-0.09-1.23-0.17-1.32-0.34-0.08-0.16 0.44-0.41 0.62-0.61s0.03-0.36-0.27-0.35c-0.3 0.02-0.74 0.2-1.09 0.23s-0.62-0.1-0.64-0.3 0.21-0.47 0.12-0.64-0.49-0.23-0.81-0.39c-0.33-0.16-0.58-0.4-0.6-0.62-0.03-0.21 0.17-0.39 0.11-0.22-0.06 0.18-0.39 0.7-0.36 1.15m-15.89-28.75c-0.21 0.09-0.45-0.09-0.65-0.34s-0.43-0.26-0.65-0.38c-0.11-0.05-0.2-0.2-0.31-0.26-0.11-0.05-0.23-0.02-0.34-0.08-0.21-0.12-0.39-0.34-0.66-0.29-0.13 0.02-0.29 0.05-0.2-0.25s0.43-0.93 0.84-1.33 0.89-0.56 1.27-0.84 0.64-0.69 0.61-0.85-0.34-0.07-0.57-0.24c-0.23-0.16-0.36-0.57-0.29-0.81 0.17-0.57 1.48-0.46 1.46-1.82-0.01-0.78-0.45-2-0.67-2.52s-0.21-0.35-0.2-0.2c0.01 0.41-0.01 0.67 0.01 1.05 0.02 0.37-0.19 1.19-0.68 1.34-0.17 0.05-0.39 0.03-0.65 0.01s-0.56-0.05-0.45 0.05 0.62 0.33 0.69 0.79c0.07 0.45-0.3 1.14-0.97 1.48-0.68 0.34-1.67 0.34-2.08 0.41-0.83 0.15 0.71 0.38 1.51 1.04 0.82 0.66 0.89 2.15 0.32 2.26-0.46 0.08-1.23-0.73-1.58-0.57-0.13 0.06-0.26 0.19-0.26 0.33 0 0.24 0.37 0.38 0.62 0.34 0.12-0.02 0.25-0.03 0.29 0.03s0.01 0.22 0.08 0.27 0.24 0.02 0.2 0.13c-0.04 0.1-0.29 0.37-0.58 0.62-0.28 0.26-0.6 0.52-1.23 0.61-0.63 0.08-1.58-0.01-1.72 0.06s0.53 0.3 0.87 0.64 0.35 0.77 0.04 1.05-0.92 0.41-1.48 0.2c-0.56-0.22-1.06-0.78-1.21-0.7-0.15 0.07 0.04 0.79 0.2 1.46s0.27 1.3 0.32 1.52 0.03 0.04 0.08-0.1c0.21-0.59 0.76-0.66 1.26-1.08 0.21-0.17 0.41-0.42 0.63-0.59s0.46-0.25 0.62-0.42 0.23-0.44 0.38-0.62c0.27-0.34 0.69-0.37 0.94-0.38 0.12 0 0.24-0.02 0.3 0.03 0.12 0.13 0.01 0.45 0.03 0.67 0.01 0.13 0.03 0.25-0.04 0.3-0.06 0.04-0.21 0.01-0.26 0.06s-0.02 0.21-0.07 0.26-0.2 0.02-0.27 0.08c-0.08 0.06-0.09 0.23 0.14 0.23 0.22 0 0.68-0.17 1.12-0.25 0.45-0.08 0.87-0.08 1.28-0.02 0.4 0.07 0.78 0.21 0.87 0.28 0.1 0.07-0.06 0.08-0.2 0.02-0.28-0.12-0.43-0.61-0.65-0.94-0.11-0.17-0.24-0.27-0.29-0.38-0.05-0.12-0.02-0.24-0.07-0.36-0.1-0.22-0.31-0.43-0.29-0.67 0.01-0.12 0.01-0.23 0.01-0.35 0.87 0.02 1.73 0.02 2.58 0.02zm-20.93 64.73h-0.92c-0.13 0-0.27 0-0.27 0.01s0.15 0.02 0.29-0.03c0.13-0.05 0.25-0.18 0.29-0.3 0.04-0.13 0.01-0.25 0.07-0.37 0.05-0.12 0.19-0.21 0.25-0.33 0.05-0.12 0.02-0.24 0.08-0.36 0.05-0.12 0.19-0.21 0.24-0.34 0.05-0.12 0.02-0.26 0.07-0.3s0.19 0 0.65-0.43c0.45-0.43 1.21-1.33 1.33-2.35s-0.41-2.16-0.07-2.48c0.34-0.31 1.53 0.19 1.86 0.62s-0.23 0.78-0.57 1.54c-0.34 0.78-0.47 1.98-0.34 2.69 0.14 0.7 0.54 0.9 0.81 1 0.65 0.24 0.7-0.35 1.12-0.28 0.36 0.05 0.63-0.39 0.97-0.34 0.12 0.02 0.25 0.03 0.29-0.02 0.1-0.13 0.1-0.54 0.34-0.63 0.12-0.04 0.26-0.01 0.3-0.06 0.05-0.06 0.01-0.21 0.07-0.26 0.05-0.05 0.2-0.02 0.25-0.07s0.02-0.21 0.08-0.28c0.06-0.08 0.21-0.09 0.27 0.09 0.1 0.28 0.01 0.95 0.01 1.25v0.73c0 0.33-0.1 0.73 0.03 0.97 0.06 0.1 0.21 0.21 0.26 0.39s0 0.44 0.06 0.57 0.2 0.12 0.26 0.04c0.06-0.07 0.02-0.23 0.07-0.28 0.05-0.06 0.18-0.02 0.29-0.07s0.21-0.2 0.32-0.25c0.26-0.14 0.32 0.21 0.9-0.87 0.34-0.63 0.9-1.77 1.19-1.93s0.31 0.66 0.63 1.47c0.32 0.8 0.94 1.57 1.47 1.21s0.93-1.87 1.48-1.65 1.22 2.17 0.85 2.97c-0.39 0.8-1.84 0.44-3.02 0.2-1.18-0.23-2.11-0.35-2.83 0.19-0.73 0.54-1.26 1.72-1.5 1.74s-0.18-1.11-0.59-1.84c-0.41-0.72-1.26-1.03-1.75-1.1-0.77-0.12-0.58 0.28-0.7 0.61-0.11 0.26-0.42 0.47-0.61 0.67-0.23 0.24-0.43 0.43-0.66 0.71-0.12 0.15-0.25 0.35-0.37-0.18-0.12-0.51-0.24-1.74-0.62-2.28-0.38-0.52-1-0.37-1.25 0.03-0.52-0.02-0.82-0.02-1.38-0.02zm-131.77-11c0.14-0.18 0.11 0.01 0.21 0.22 0.09 0.21 0.32 0.45 0.63 0.6s0.71 0.21 0.8 0.38-0.14 0.44-0.12 0.64 0.28 0.34 0.64 0.3c0.35-0.03 0.8-0.22 1.09-0.23 0.3-0.02 0.45 0.14 0.28 0.34s-0.68 0.44-0.65 0.6c0.06 0.33 2.37 0.55 2.25 1.08-0.06 0.28-0.77 0.6-1.37 0.5-0.61-0.08-1.12-0.57-1.66-0.77s-1.09-0.1-1.72-0.2c-0.63-0.08-1.34-0.35-1.26-0.58 0.07-0.23 0.92-0.43 1.07-0.7s-0.4-0.63-0.52-1.07c-0.12-0.41 0.2-0.94 0.33-1.11zm18.23-66.48c-0.23-0.17-0.4-0.13-0.32-0.16s0.4-0.13 0.46-0.45c0.06-0.33-0.14-0.87-0.18-1.05-0.03-0.18 0.1 0.02 0.24 0.09 0.13 0.08 0.27 0.04 0.31 0.1 0.05 0.06 0.01 0.21 0.07 0.26 0.05 0.05 0.2 0.02 0.25 0.07s0.02 0.21 0.06 0.27c0.09 0.14 0.5-0.07 0.59 0.05 0.04 0.06 0.01 0.22 0.05 0.28 0.09 0.14 0.49-0.07 0.61 0.05 0.06 0.06 0.06 0.22-0.01 0.27s-0.22 0.02-0.28 0.06c-0.15 0.1-0.02 0.44-0.04 0.66-0.01 0.13-0.03 0.25 0.03 0.31 0.05 0.05 0.18 0.04 0.31 0.01 0.13-0.02 0.27-0.05 0.33 0.29 0.06 0.36 0.06 1.09 0.01 1.2-0.05 0.1-0.14-0.42-0.42-0.76-0.29-0.34-0.77-0.47-1.28-0.26-0.51 0.2-1.05 0.74-1.05 0.72s0.53-0.6 0.65-1.07c0.12-0.41-0.17-0.78-0.39-0.94zm0.27 131.55c0.27 0.37 0.76 0.41 0.76 0.55 0.01 0.13-0.47 0.35-0.74 0.71s-0.35 0.92-0.38 1.1-0.03 0.01-0.01-0.14c0.01-0.16 0.03-0.28-0.03-0.34-0.06-0.04-0.21-0.01-0.27-0.05-0.15-0.1-0.03-0.44-0.02-0.66 0.01-0.13 0.03-0.25-0.03-0.3s-0.19-0.01-0.31-0.06c-0.23-0.09-0.41-0.51-0.64-0.61-0.12-0.04-0.25-0.01-0.31-0.07-0.07-0.06-0.07-0.21 0.01-0.26s0.22-0.02 0.27-0.07c0.06-0.05 0.02-0.19 0.07-0.3 0.09-0.21 0.43-0.52 0.26-0.65-0.07-0.05-0.21-0.01-0.27-0.07-0.05-0.05-0.02-0.21-0.07-0.26-0.1-0.13-0.51-0.13-0.59-0.36-0.09-0.26-0.1-0.47-0.37-0.72-0.15-0.14-0.32-0.29-0.15-0.2 0.16 0.09 0.66 0.44 1.07 0.47 0.42 0.03 0.75-0.25 1.04-0.64s0.55-0.87 0.55-0.8-0.25 0.71-0.05 1.05c0.21 0.34 0.86 0.36 0.89 0.58s-0.57 0.64-0.86 0.73-0.27-0.13-0.23 0.09c0.08 0.24 0.14 0.91 0.41 1.28zm55.52 49.31c0.18-0.13 0.43 0 0.65 0 0.32 0 0.64 0.01 0.96-0.01 0.23-0.02 0.43 0.2 0.64 0.3 0.11 0.05 0.25 0.02 0.29 0.07 0.05 0.06 0.01 0.21 0.07 0.26 0.05 0.05 0.2 0.02 0.25 0.07s0.02 0.21 0.06 0.27c0.1 0.16 0.43 0.03 0.62 0.03h0.91c0.34 0 0.66-0.01 0.96 0.01 0.33 0.01 0.45-0.18 0.72-0.31 0.14-0.07 0.31-0.06-0.06 0.17-0.38 0.23-1.29 0.69-2.13 0.71-0.84 0.01-1.59-0.42-2.02-0.71s-0.52-0.43-0.62-0.49c-0.21-0.14-0.44-0.02-0.66-0.04-0.79-0.05-0.56 0.54-0.67 0.65-0.1 0.1-0.51 0.1-0.59 0.36-0.04 0.13-0.01 0.27-0.06 0.33-0.11 0.15-0.4-0.04-0.68 0.06-0.31 0.12-0.62 0.31-0.95 0.3-0.53-0.02-1.38-0.01-1.82-0.01h-0.39-0.27s0.14 0 0.27 0.01c0.41 0.02 0.57-0.4 1.03-0.35 0.17 0.02 0.39 0.04 0.55-0.02 0.29-0.12 0.44-0.35 0.68-0.33 0.11 0.01 0.24 0.07 0.33 0.01l1.93-1.34zm19-11.54c-0.06 0.13-0.03 0.25-0.09 0.37-0.05 0.12-0.19 0.21-0.25 0.33-0.12 0.24-0.12 0.67-0.34 0.98-0.26 0.37-0.55 0.68-0.63 1-0.07 0.3-0.07 0.6-0.34 0.71-0.2 0.09-0.54-0.1-0.64 0.05-0.04 0.06-0.01 0.22-0.06 0.27-0.05 0.06-0.18 0.02-0.29 0.07s-0.21 0.2-0.32 0.25c-0.23 0.12-0.45 0.15-0.66 0.37-0.37 0.4-0.64 1.07-1.27 1.71-0.47 0.47-0.98 0.84-1.26 1.4-0.15 0.29-0.21 0.67-0.36 0.9-0.27 0.4-0.83 0.45-0.92 0.74-0.04 0.13-0.01 0.26-0.06 0.33-0.11 0.14-0.44-0.06-0.63 0.06-0.1 0.06-0.2 0.22-0.36 0.27s-0.4 0.01-0.56 0.06-0.25 0.21-0.41 0.27c-0.16 0.05-0.39 0.01-0.56 0.06-0.16 0.05-0.26 0.2-0.39 0.27-0.14 0.06-0.32 0.05 0.27 0.15s1.94 0.29 2.9-0.41 1.55-2.32 2.24-3.4 1.48-1.63 2.27-1.94 1.57-0.4 1.99-1.24c0.43-0.85 0.49-2.46 0.61-3.25 0.12-0.8 0.29-0.78 0.3-0.7 0.04 0.07-0.12 0.19-0.18 0.32zm3.48-204.7c-0.14-0.34 0.29-0.83 0.64-0.99 0.11-0.05 0.23-0.02 0.36-0.09 0.13-0.08 0.27-0.27 0.22-0.08s-0.28 0.77-0.14 1.08 0.66 0.39 0.98 0.42c0.32 0.04 0.45 0.05 0.5-0.01s0.01-0.2 0.07-0.33c0.05-0.12 0.19-0.22 0.24-0.34s0.02-0.26 0.07-0.3c0.06-0.05 0.2-0.01 0.26-0.06 0.15-0.12 0.03-0.43 0.02-0.68-0.01-0.15-0.02-0.31 0.27 0.08 0.3 0.4 0.9 1.38 0.86 1.72-0.05 0.35-0.76 0.04-1.39 0.05s-1.2 0.34-1.16 0.44c0.03 0.1 0.67 0.01 0.98 0.2 0.32 0.19 0.34 0.66-0.07 0.93s-1.23 0.36-1.76 0.29c-0.52-0.06-0.74-0.27-1.08-0.2-0.35 0.07-0.84 0.43-1.08 1.1s-0.28 1.65-0.45 1.54c-0.18-0.09-0.51-1.27-0.73-1.91-0.41-1.19-0.55-0.76-0.83-0.87-0.13-0.05-0.27-0.2-0.26-0.26 0-0.06 0.15-0.05 0.27-0.04 0.13 0.01 0.23 0.01 0.35 0.02s0.24 0.04 0.45-0.25 0.5-0.91 0.72-1.22c0.42-0.59 0.48-0.17 0.44 0.1-0.02 0.14-0.04 0.26 0.03 0.31 0.06 0.04 0.21 0.01 0.27 0.05 0.14 0.1-0.04 0.46 0.05 0.67 0.05 0.13 0.17 0.24 0.29 0.28s0.24 0.01 0.36 0.1c0.13 0.08 0.26 0.28 0.32-0.02 0.02-0.3 0.02-1.13-0.07-1.73zm-25.69 5.43c0.19 0 0.52 0.13 0.62-0.03 0.04-0.06 0.01-0.22 0.06-0.27 0.05-0.06 0.18-0.02 0.3-0.07 0.31-0.13 0.67-0.64 0.65-0.98-0.01-0.22-0.1-0.46 0.02-0.69 0.12-0.21 0.39-0.44 0.29-0.67l1.61 2.37c0.44 0 0.83 0.02 1.3-0.01 0.13-0.01 0.27-0.02 0.27 0.04s-0.13 0.21-0.26 0.26c-0.26 0.12-0.47 0.13-0.67 0.38-0.1 0.13-0.2 0.26-0.32 0.3s-0.25 0.01-0.3 0.06-0.02 0.19-0.25 0.99-0.71 2.26-0.93 2.34c-0.23 0.08-0.2-1.22-0.54-2.1-0.35-0.88-1.06-1.34-1.82-1.58s-1.56-0.25-2.33 0.17-1.49 1.29-1.78 1.26-0.14-0.97 0.33-1.64 1.25-1.1 1.29-1.52-0.67-0.85-1.5-0.8c-0.85 0.04-1.83 0.57-1.93 0.13-0.11-0.44 0.67-1.83 1.04-2.43 0.38-0.61 0.37-0.43 0.36-0.28-0.01 0.27-0.11 0.48 0.02 0.72 0.12 0.21 0.32 0.42 0.29 0.67-0.02 0.13-0.03 0.26 0.03 0.3s0.21 0.01 0.26 0.06c0.06 0.05 0.02 0.19 0.07 0.31 0.04 0.13 0.17 0.23 0.28 0.36 0.11 0.14 0.21 0.29 0.59 0.26s1.02-0.24 1.22-0.67-0.05-1.09-0.1-1.41c-0.05-0.31 0.09-0.28 0.22-0.26 0.36 0.04 0.64 0.03 0.98 0.01 0.23-0.02 0.44 0.08 0.65 0.36 0.11 0.14 0.23 0.29 0.3 0.27 0.06-0.02 0.06-0.21 0.02-0.28l-0.34 4.07zm-23.51 19.53c0.78 0.25 1.82 1.02 2.47 0.74 0.65-0.27 0.9-1.57 1.24-1.56 0.35 0.01 0.78 1.32 0.64 2.55s-0.85 2.35-0.77 3.62 0.95 2.66 0.97 3.66-0.83 1.59-1.02 1.45 0.22-1.01 0.26-1.99c0.04-1-0.32-2.11-0.79-2.29-0.48-0.18-1.07 0.59-1.52 0.82-0.45 0.22-0.75-0.09-0.61-0.59 0.14-0.49 0.75-1.16 0.98-1.79 0.24-0.62 0.12-1.2-0.34-1.31-0.46-0.12-1.26 0.22-1.58 0.03s-0.16-0.9-0.31-1.51-0.62-1.1-1.17-1.37c0.28-0.45 0.78-0.71 1.55-0.46zm37.42 146.73c-0.23-0.13-0.35 0.13-0.66-0.4s-0.8-1.82-0.5-1.82 1.37 1.31 2.11 2.42 1.14 2.05 1.33 2.58c0.19 0.54 0.15 0.67 0.2 0.71 0.05 0.05 0.18 0.02 0.3 0.06s0.22 0.18 0.33 0.29c0.39 0.42 0.66 1.07 0.95 1.37 0.22 0.22 0.43 0.45 0.66 0.67 0.33 0.31 0.32 0.66 0.32 1.02 0 0.33 0.02 0.95-0.01 1.7-0.01 0.23-0.03 0.46 0.03 0.68s0.2 0.44 0.26 0.61c0.12 0.33 0.05 0.48 0.03 0.76-0.01 0.13-0.04 0.27 0.19 0.34s0.71 0.07 0.6-0.04c-0.11-0.1-0.81-0.31-1.48-0.77-0.69-0.45-1.35-1.12-2.03-2.31-0.68-1.18-1.35-2.85-1.26-2.94 0.09-0.07 0.94 1.44 1.35 2.27s0.38 0.97 0.43 1.02 0.18 0.02 0.29 0.07 0.21 0.2 0.32 0.25c0.22 0.12 0.46 0.14 0.65 0.38 0.1 0.13 0.2 0.26 0.32 0.3s0.25 0.01 0.31 0.08c0.06 0.06 0.04 0.24 0.03 0.24-0.01 0.01-0.01-0.14-0.01-0.27 0-0.25 0.1-0.47-0.03-0.7-0.06-0.1-0.2-0.21-0.26-0.31-0.13-0.24 0.06-0.68-0.05-0.99-0.06-0.17-0.19-0.26-0.85-1.28-0.65-1.02-1.81-2.95-2.56-4.17-0.76-1.18-1.08-1.69-1.31-1.82zm19.81 18.11c0.08-0.1 0.24-0.1 0.39 0.49 0.15 0.6 0.28 1.79 0.56 2.53 0.28 0.73 0.71 1.02 1.1 1.9 0.41 0.89 0.8 2.38 1.01 3.37 0.23 0.99 0.3 1.46 0.64 2.07s0.96 1.36 1.29 2.1c0.33 0.73 0.36 1.45 0.44 1.86 0.14 0.69 0.52 0.66 0.63 0.93 0.1 0.24 0.12 0.67 0.33 0.99s0.54 0.46 0.64 0.71c0.05 0.12 0.02 0.24 0.07 0.36 0.1 0.22 0.31 0.42 0.29 0.67-0.03 0.23 0.07 0.56 0.32 1.02 0.36 0.65 0.26 1.35 0.64 2.04 0.24 0.42 0.25 0.95 0.34 1.31 0.04 0.17 0.17 0.27 1.11 1.15s2.71 2.54 2.47 2.59-2.49-1.49-3.67-3.06-1.3-3.17-1.63-4.58c-0.34-1.42-0.89-2.65-1.41-3.6-0.53-0.94-1.01-1.58-1.39-2.49-0.38-0.9-0.63-2.07-0.88-2.81-0.26-0.74-0.51-1.06-0.63-1.29s-0.08-0.35-0.14-0.46c-0.05-0.12-0.19-0.21-0.24-0.33s-0.02-0.24-0.07-0.36c-0.11-0.25-0.5-0.63-0.58-0.94-0.04-0.18-0.02-0.29-0.07-0.41-0.06-0.12-0.19-0.21-0.25-0.33-0.05-0.12-0.02-0.26-0.07-0.3-0.06-0.05-0.2-0.01-0.26-0.06-0.13-0.09 0.07-0.52-0.05-0.62-0.06-0.04-0.21-0.01-0.28-0.06s0-0.19-0.02-0.3l-0.63-4.09zm-0.33-10.16c-0.08 0.1-0.24 0.1-0.37-0.37-0.12-0.47-0.21-1.41-0.33-2.64-0.12-1.24-0.28-2.78-0.22-2.66s0.33 1.88 0.46 2.82c0.12 0.94 0.1 1.08 0.16 1.13s0.2 0.01 0.27 0.05c0.15 0.1 0.03 0.45 0.03 0.65 0 0.9 0.05 1.79-0.01 2.72-0.02 0.37 0.36 0.68 0.34 1.01-0.01 0.12-0.01 0.23 0.1 0.87 0.11 0.65 0.33 1.83 0.11 2.25-0.21 0.42-0.86 0.09-1.06-0.55-0.21-0.65 0-1.61 0.11-2.15s0.08-0.65 0.1-0.77l0.31-2.36zm-30.5-2.73c0.34-0.02 0.44 0.34 0.28 0.29-0.09-0.05-0.16-0.17-0.36-0.3 0.03 0.01 0.05 0.01 0.08 0.01zm-38.11 1.54c0.11-0.13 0.22-0.15 0.23-0.07 0.01 0.34-0.38 0.34-0.29 0.16 0-0.02 0.03-0.06 0.06-0.09zm-25.26-130.74c0.27 0.26 0.44 0.36 0.42 0.56-0.02 0.06-0.11-0.05-0.31-0.36-0.17-0.23-0.18-0.27-0.11-0.2zm-9.46-10.06c0.08-0.7 0.04-0.9 0.21-1.16 0.12-0.02 0.02 0.19 0.02 0.27-0.02 0.25-0.09 0.81-0.27 1.4 0.01-0.18 0.02-0.34 0.04-0.51zm-3.15 91.15c-0.14 0.1-0.29 0.2-0.44 0.29 0.07-0.15 0.15-0.28 0.44-0.29zm0.66-0.7c0.09 0.02-0.1 0.25-0.5 0.57 0-0.12 0.09-0.15 0.26-0.23 0.16-0.08 0.1-0.38 0.24-0.34zm13.92-39.37c0.03 0.1-0.15 0.31-0.62-0.29 0.62-0.03 0.61 0.25 0.62 0.29zm-22.46-4.2c0.13 0.04 0.49 0.25 0.79 0.5-0.28-0.14-0.77-0.43-0.82-0.47-0.02-0.02-0.1-0.08 0.03-0.03zm-6.13-18.05c0.09 0.02 0.18 0.28-0.07 0.31-0.09 0.01-0.34-0.01-0.51-0.02 0.48-0.4 0.53-0.3 0.58-0.29zm93.34 18.43c-1.11 1.18-2.23 2.35-3.34 3.51 1.07-1.22 2.14-2.43 3.2-3.65 0.05 0.05 0.1 0.09 0.14 0.14zm-57.32-55.45c0.01 0.61 0.01 1.23 0.01 1.84-0.03-0.22-0.27-0.66-0.34-1.09-0.05-0.3-0.33-0.83-0.31-1.04 0.01-0.12 0.02-0.23 0.03-0.35 0.19 0.22 0.4 0.43 0.61 0.64zm-6.93-7.94c1.3 0.63 1.31 0.52 1.47 0.52 0.17 0 0.3-0.02 0.56-0.26 0.23-0.22 0.2-0.12 0.41-0.1 0.33 0.01 0.57 0.04 0.7-0.05-0.13 0.28-0.09 0.48-0.46 0.82-0.33 0.3 0.02 0.43-0.41 0.84-0.04 0.04-0.09 0.07-0.14 0.1l0.57 0.6c-0.45 0.01-0.75 0.22-0.98 0.58-0.12 0.18-0.37 0.8-0.45 0.95-0.04 0.07-0.08 0.23-0.17 0.15-0.03-0.02-0.12-0.27-0.14-0.39-0.13-0.57-0.21-1.08-0.31-2.05-0.05-0.48-0.09-0.97-0.1-1.04-0.01-0.13-0.22-0.07-0.46-0.27-0.15-0.13-0.43-0.46-0.65-0.7 0.17 0.11 0.36 0.21 0.56 0.3zm116.62-2.72c0.11 0.1 0.26 0.19 0.4 0.19-0.42 0.01-0.87-0.02-1.05-0.09-0.18-0.06-0.34-0.16-0.48-0.28 0.39-0.01 0.8-0.13 1.13 0.18zm-5.63 2.84c0.12-0.39 0.23-0.8 0.47-1.12 0.16-0.22 0.51-0.61 0.93-1-0.23 0.82-0.81 1.64-1.22 2.52-0.44 0.92-0.44 0.66-0.49 0.65-0.08-0.05 0.02-0.28 0.31-1.05zm7.39-15.87c0.18-0.02 0.43-0.18 0.54 0.02 0.03 0.04 0.06 0.06-0.06 0.39-0.07 0.2-0.24 0.57-0.38 0.82-0.14 0.26-0.28 0.48-0.44 0.71 0.02-0.68 0.31-1.46 0.34-1.94zm-5.96 13.64c0.05-0.21 0.25-0.87 0.5-1.27 0.38-0.64 0.61-1.35 0.94-2.15 0.22-0.5 0.05-0.97 0.05-1.24 0-0.15 0.03-0.17-0.43-0.6-0.37-0.34 0.05-0.69-0.54-0.91-0.24-0.08-0.61-0.24-0.62-0.34-0.01-0.07-0.02-0.28 0.52 0.21 0.32 0.29 0.31 0.16 0.61 0.12 0.17-0.02-0.01-0.31 0.37-0.37 0.48-0.07 0.4-0.38 0.4-0.84 0-0.66 0.12-0.33-0.23-0.76-0.2-0.25 0.04-0.62-0.57-1.29-0.18-0.2-0.4-0.38-0.6-0.58-0.06-0.06-0.18-0.13-0.03-0.17 0.03-0.01 0.17-0.01 0.27 0 0.62 0.08 1.23 0.2 1.86 0.21 1.12 0.01 1.32-0.16 1.65-0.33 0.32-0.16 0.95-0.66 1.49-1.42 0 0.7 0.02 1.41 0.06 2.26 0.02 0.39 0.02 0.39-0.29 0.58-0.18 0.12-0.98 0.31-1.47 0.44-1.2 0.29-0.88 0.41-0.87 0.72 0.01 0.2 0.3 0.36 0.35 0.79 0.03 0.28 0.55 1.2 1.44 1.67 0.06 0.03 0.2 0.1-0.31 0.06-0.14-0.01-0.07 0.1-0.21 0.31-0.06 0.08-0.24 0-0.42 0.15-0.11 0.09-1.29 1.34-1.38 1.46-0.3 0.36-0.1 0.98-0.11 1.32-0.01 0.51 0.13 0.72 0.64 1.18-0.49 0.04-0.98 0.3-1.41 0.34-0.21 0.02-0.68 0-1.15 0.2-0.41 0.19-0.55 0.4-0.51 0.25zm-67.76-23.32c0.01-0.21 0.07-0.31 0.4-1.01 0.06-0.13 0.12-0.24 0.18-0.36-0.16 0.44-0.12 0.55-0.31 0.79-0.13 0.17-0.05 0.42-0.25 0.6-0.01 0-0.02 0-0.02-0.02zm-26.5 20.41c-0.01-0.12 0.05-0.42 0-0.55-0.08-0.2-0.45-0.61-0.25-0.68 0.12-0.04 0.26-0.06 0.27-0.35 0.02-0.45 0.31-0.65 0.5-1.01 0.26-0.51 0.17-0.59 0.15-0.76-0.01-0.55 0-1.09 0.02-1.64 0.27 0.39 0.66 0.76 1.08 1.18 0.7 0.7 1.13 0.54 1.64 0.55 0.41 0.01 0.32 0.08 0.62-0.25 0.5-0.57 0.81-1.33 1.4-1.66 0.38-0.21 0.52-0.21 0.7-0.17 0.12 0.03 0.58 0.27 0.72 0.4 0.45 0.39 0.66 1.05 0.86 1.57 0.08 0.31 0.06 0.39 0.27 0.64 0.14 0.17 0.15 0.25 0.09 0.41-0.08 0.19-0.54 0.68-0.81 0.7-0.25 0.02-0.51 0.31-1.08 0.66-0.19 0.13-0.3 0.31-0.51 0.52-0.31 0.33-0.37 0.22-0.5 0.17l-0.65-2.71c-0.38 0.23-0.31-0.07-0.32-0.13-0.01-0.13-0.02-0.35-0.3-0.21-0.12 0.06-0.35 0.3-0.6 0.35-0.19 0.03-0.3 0.14-0.41 0.37-0.31 0.62-0.62 1.27-1.08 1.8-0.53 0.62-0.73 0.82-0.98 1.07-0.18 0.17-0.05 0.23-0.4-0.07-0.3-0.22-0.38 0.17-0.43-0.2zm0.68-4.97c-0.19-0.27-0.25-0.58-0.46-0.83 0.31 0.32 0.48 0.39 0.46 0.83zm-8.57 2.69c0.15 0 0.3 0.3 0.18 0.28-0.09-0.02-0.14-0.16-0.18-0.28zm106.34 129.64c0.03-0.09 0.39-0.55 1.04 0.08 0.11 0.1 0.21 0.12 0.5 0.09 0.25-0.02 0.19-0.05 0.42 0.2-0.59 0-1.34-0.08-1.61-0.16-0.42-0.1-0.37-0.17-0.35-0.21zm-60.07-3.08c-0.07-0.2 0.17-0.2 0.18 0.01 0.01 0.05-0.02 0.24-0.02 0.31-0.04-0.08-0.13-0.25-0.16-0.32zm-11.54-0.97c0.45-0.45 0.52-0.66 0.49-1.12-0.01-0.38-0.01-0.76 0-1.13 0.01-0.38 0.03-0.2-0.51-0.78-0.24-0.26-0.27-0.39-0.08-0.54 0.06-0.04 0.21-0.12 0.46-0.2 0.49-0.16 1.38-0.61 1.65-0.77 0.3-0.18 0.48-0.26 0.4-0.71-0.01-0.22-0.01-0.47-0.01-0.65 0-0.6 0.01-0.68 0.08-0.56 0.25 0.5 0.46 1.03 0.71 1.53 0.4 0.83 0.3 0.64 0.58 0.68 0.26 0.04 0.24 0.03 0.48 0.25 0.15 0.14 0.25-0.03 0.6 0.08 0.14 0.04 0.18 0.13 0.02 0.67-0.19 0.71-0.51 1.48-0.54 1.99-0.02 0.45 0.01 0.9 0.65 1.38 0.11 0.05 0.09 0.02 0.69 0.02 0.53 0 0.86 0.05 1.17-0.23 0.17-0.16 0.23-0.1 0.91-0.13 0.16 0 0.17 0.04 0.15 0.35-0.02 0.44-0.04 0.91 0.2 1.26 0.12 0.17 0.04 0.58 0.27 1.12 0.17 0.4 0.11 0.88 0.27 1.12 0.07 0.09 0.19 0.35 0.22 0.72 0.03 0.43-0.02 0.25 0.49 0.72 0.32 0.29 0.78 0.54 1.01 0.72 0.15 0.12 0.48 0.1 0.87 0.1 0.84 0 0.48 0.13 0.99-0.49 0.31-0.36 0.15-0.93 0.16-1.41 0.01-0.41 0.02-0.82 0.02-0.9-0.01-0.23-0.33-0.42-0.34-0.93-0.01-0.49-0.34-0.76-0.33-0.91 0.44 0.7 1.14 1.51 2.29 2.25 1.25 0.8 1.22 0.74 1.32 1.03 0.05 0.24-0.02 0.41-1.08 1.25-0.2 0.16-0.48 0.38-0.84 0.73-0.86 0.85-0.99 1.18-1.14 1.46-0.18 0.36-0.27 0.33-0.07 0.99 0.02 0.07 0.05 0.16 0.08 0.23-0.14-0.16-0.29-0.22-0.51-0.25-0.28-0.03-1.1-0.67-1.65-0.68-0.8-0.02-0.87 0.05-1.3-0.16-0.75-0.37-1.72-0.1-2.21-0.19-0.51-0.08-0.61-0.3-1.47-0.34-0.75-0.03-1.52 0.22-2.25-0.04-0.28-0.1-0.36-0.09-0.44-0.25 0.04-0.1 0.09-0.03 0.13-0.03 0.51 0.03 1.05 0.01 1.7-0.31 0.59-0.28 1.35-0.44 1.6-1.18 0.12-0.36 0.04-1.46 0.07-2.33 0.01-0.26 0.01-0.23-0.24-0.39-0.11-0.06-0.48-0.25-0.71-0.37-0.41-0.21-0.8-0.09-1.69-0.18-0.1-0.01-0.2 0.01-0.29 0.05 0.38-0.4 0.72-1.01 0.67-1.45-0.01-0.45 0.03-0.82-0.23-1.45-0.13-0.31-0.02-0.48-0.32-0.55-0.05-0.01-0.09-0.05-0.09-0.08-0.02-0.17-0.07-0.37-0.33-0.24l-2.89 1.35c0.05-0.01 0.1-0.07 0.16-0.12zm12.36 10.29c-0.04-0.27 0.09-0.62-0.09-1.08 0.25 0.26 0.36 0.33 0.43 0.73 0.05 0.29 0.37 0.84 0.31 1.29-0.31 0.04-0.16 0.12-0.37-0.25-0.11-0.21-0.26-0.55-0.28-0.69zm-12.19 24.51c-0.09 0.16-0.08 0.62-0.51 0.62l-0.06 0.01 0.57-0.63zm0.06-0.06c0.61-0.66 0.26 0 0.09 0-0.14 0.02-0.1 0.01-0.09 0zm18.42-17.99c0.14 0.83 0.63 2.73 1.59 4.6 0.23 0.44 0.46 0.87 0.67 1.23 0.2 0.36 0.37 0.64 0.54 0.92 0.25 0.42 0.49 0.86 0.52 0.92 0.03 0.07 0.13 0.27-0.12 0.07-0.38-0.31-0.66-0.8-0.75-0.99-0.18-0.38-0.14-0.22-0.39-0.34s-0.53-0.41-0.91-0.63c-0.45-0.31-0.65-0.98-1.13-1.02-0.1-0.01-0.17-0.06-0.21-0.26-0.03-0.16-0.04-0.14-0.29-0.45-0.29-0.36-0.87-1.12-1.23-1.69-0.8-1.26-1.18-2.6-1.67-4.06-0.53-1.57-0.72-1.46-0.98-1.54-0.2-0.06-0.49-0.07-1.04 0.16-0.44-0.28-0.91-0.65-1.48-0.98-0.19-0.12-0.35-0.22-0.31-0.34 0.25-0.24 0.44 0.15 0.77-0.18 0.14-0.14 0.46-0.03 0.48-0.25 0.02-0.16 0.06-0.28 0.24-0.5 0.12-0.15 0.1-0.17 0.1-0.21 0.47-0.07 0.94-0.59 1.22-0.78 0.71-0.49 0.6-0.41 0.71-0.21 0.03 0.05 0.05 0.27 0.05 0.36-0.02 0.39-0.11 0.95-0.09 1.58 0.02 0.45 0 0.57 0.27 0.55 0.07-0.01 0.24-0.02 0.41-0.02 0.46 0 0.91 0 1.37 0.01 0.26 0.01 0.18 0 0.47-0.25 0.19-0.17 0.33-0.07 0.65-0.34 0.16-0.14 0.39-0.04 0.41-0.3 0.02-0.18 0.29-0.09 0.31-0.23 0.03-0.18 0.27-0.44 0.21-0.16-0.04 0.18-0.31 0.51-0.49 0.76-0.39 0.48-0.99 1.22-1.11 1.43-0.12 0.23-0.21 0.46-0.06 0.91 0.05 0.15 0.16 0.38 0.33 0.65 0.14 0.21 0.3 0.42 0.33 0.45 0.09 0.08 0.23 0 0.44 0.16 0.13 0.09 0.02 0.29 0.15 0.31-0.04 0.23-0.01 0.45 0.02 0.66zm23.21-3.9c-0.21 0.35-0.32 0.69-0.1 1.65 0.07 0.3 0.23 0.79 0.44 1.42 0.11 0.33 0.22 0.65 0.31 0.93 0.25 0.79 0.4 1.34 0.41 2.23 0.01 0.84-0.14 1.65-0.42 2.53-0.37 1.19-0.56 1.67-0.58 1.75-0.11 0.57-0.01 1.15-0.01 1.72 0 0.49 0.11 1 0 1.49-0.03 0.14-0.3 0.36-0.56 0.38-0.09 0.01 0.04 0.33-0.2 0.35-0.12 0.01-0.42-0.07-0.44 0.04 0 0.03-0.02 0.05 0.03 0.22 0.12 0.38 0.42 1.12 0.44 1.2 0.07 0.33-0.21 0.2-0.39 0.39-0.11 0.12-0.24 0.18-0.57 0.16-0.29-0.02-0.19 0.01-0.48 0.25-0.25 0.21-0.38-0.02-0.42 0.35-0.02 0.2-0.34 0.04-0.34 0.36 0 0.1 0.04 0.42 0.04 0.54 0 0.19-0.13 0.36-0.3 0.89-0.06 0.3 0.01 0.55-0.18 1-0.21 0.48-0.17 0.54-0.16 0.79 0.02 0.27 0.08 0.25-0.42 0.36-0.35 0.07-0.77 0.04-1.33-0.34-0.26-0.18-0.73-0.6-1.14-1.12-0.25-0.31-0.59-0.77-0.95-1.51-0.17-0.34-0.31-0.69-0.4-1.01-0.27-0.86-0.29-1.57-0.4-2.33-0.17-1.09-0.15-1.19-0.74-1.72-0.58-0.54-1.64-0.62-3.18-1.45-0.62-0.33-1.18-0.76-2.18-1.96-1-1.21-2.21-2.93-2.75-4.27-0.51-1.24-0.58-2.16-0.76-2.96 0.33-0.41 0.68-0.77 0.76-0.83 0.04-0.03 0.11-0.08 0.1-0.01-0.13 0.4-0.37 0.73-0.52 1.26-0.26 0.91-0.15 0.9 0.1 1.3 0.36 0.59 1.18 0.84 2.14 0.26 0.66-0.4 0.44-0.33 0.86-0.34 0.41-0.01 0.68-0.67 0.98-0.69 0.12-0.01 0.19-0.06 0.41-0.25 0.41-0.36 0.37-0.12 0.36-0.04-0.2 0.35-0.56 0.65-0.79 0.85-0.11 0.09-0.4-0.02-0.46 0.36-0.01 0.05-0.05 0.09-0.08 0.09-0.13 0.01-0.18 0.02-0.26 0.3-0.05 0.18-0.51 0.62-0.13 0.94 0.21 0.18 0.42 0.12 0.72 0.36 0.16 0.14 0.39 0.04 0.41 0.31 0.02 0.31 0.42 0.13 0.63 0.14 0.34 0.02 0.29 0.01 0.57-0.25 0.23-0.22 0.2-0.13 0.41-0.1 0.39 0.01 0.79-0.03 1.17 0 0.05 0.01 0.34-0.04-0.29 0.48-0.4 0.34-0.47 0.06-0.57 0.27-0.02 0.04-0.01 0.18-0.01 0.26 0.01 0.33 0.11 0.66 0 0.99-0.06 0.18-0.34 0.48-0.35 0.56-0.01 0.1 0.14 0.05 0.42 0.23 0.27 0.18 0.48 0.51 0.59 0.88 0.05 0.16 0.29 0.04 0.3 0.17 0.02 0.13 0.07 0.22 0.23 0.25 0.09 0.02 0.01 0.39 0.3 0.12 0.53-0.48 0.99-0.73 1.26-0.46 0.16 0.16 0.53 0.91 1.07 1.43 0.44 0.42 1.23 0.86 1.69 1.03 0.89 0.31 0.89 0.19 1.18-0.05 0.17-0.14 0.43-0.66 0.39-1.06-0.01-0.63-0.01-1.35-0.01-1.53 0.01-0.5-0.05-0.47-0.23-0.5-0.11-0.02-0.1-0.16-0.08-0.43 0.03-0.35 0-0.16-0.28-0.26-0.23-0.08 0.04-0.64-0.14-0.66-0.16-0.02-0.42-0.25-0.16-0.29 0.07-0.01 0.37 0.08 0.57 0.16 0.25 0.08 0.52 0.12 0.59 0.15 0.2 0.06 0.38 0.29 0.64 0.35 0.24 0.04 0.68 0.34 0.91 0.34 0.27-0.01 1.05 0.06 1.08-0.14 0.01-0.12 0-0.68-0.01-0.77-0.02-0.15-0.38-0.31-0.34-0.71 0.03-0.27 0.14-0.1-0.11-0.48-0.37-0.55-0.85-0.85-1.23-1.29-0.65-0.72-0.4-0.58-0.31-0.65 0.15-0.13 0.35-0.08 1.13-0.09 0.66-0.01 1.52-0.16 1.73-0.25 0.4-0.17 0.61-0.35 0.34-0.79-0.09-0.15-0.62-0.69-0.92-1.04-0.42-0.47-0.48-0.59-0.31-0.94 0.08-0.19 0.33-0.71 0.32-1.5 0-1.05 0.08-0.69 0.17-0.67 0.27 0.07 0.83 0.8 0.86 0.83 0.06-0.02-0.03 0.02-0.07 0.07zm1.69-0.87c0.09-0.33 0.19-0.72 0.23-0.8 0.06-0.1 0.1-0.18 0.21-0.01 0.04 0.07 0.19 0.43 0.26 0.67 0.03 0.08 0.05 0.17 0.08 0.24-0.25-0.07-0.51-0.11-0.78-0.1zm5.79 4.14c-0.13 0.14-0.04 0.3-0.03 0.4 0.03 0.38-0.08 0.22-0.54 0.8-0.3 0.37-0.03 0.33-0.27 0.65-0.3 0.45 0.01 0.44 0.16 0.48 0 0.41 0.06 0.83 0.02 1.23-0.02 0.18-0.3-0.03-0.35 0.38-0.01 0.1-0.29 0.02-0.32 0.25-0.03 0.25-0.16 0.46-0.57 0.52-0.66 0.09-0.29 0.91-0.67 0.67-0.11-0.07 0.09-0.36-0.09-0.74-0.17-0.38-0.27-0.85-0.27-1.12 0-0.16-0.28-0.17-0.36-1.11-0.1-1-0.14-1.98-0.21-2.84 0.57 0.89 0.77 0.81 0.84 0.81 0.13-0.01 0.28 0 0.49-0.65 0.12-0.38 0.27-0.74 0.49-1.1 0.05-0.13 0.01-0.27 0.27-0.59 0.2-0.25 0.06-0.44 0.51-0.84 0.1-0.09 0.19-0.21 0.23-0.33-0.03 0.65 0.05 0.72 0.24 1.01 0.25 0.36 0.04 1.13 0.08 1.31 0.04 0.2 0.3 0.39 0.32 0.63-0.01 0.05 0.09 0.11 0.03 0.18zm42.63-14.88c0.04-0.02 0.3 0.28-0.08 0.3-0.03 0-0.13 0-0.21-0.02 0.09-0.1 0.21-0.24 0.29-0.28zm2.54 3.04c0.02 0.01 0.06 0.21-0.48 0.3-0.05 0.01-0.1 0.03-0.15 0.06 0.31-0.25 0.53-0.36 0.63-0.36zm7.53 14.22c0.04-0.01 0.08-0.01 0.06 0s-0.3 0.23-0.56 0.41c-0.19 0.13-0.38 0.25-0.57 0.37 0.02-0.16 0.21-0.41 0.57-0.46 0.18-0.04 0.3-0.28 0.5-0.32zm14.84 14.86c0.07-0.02 0.12 0.03 0.2 0.3-0.14-0.12-0.36-0.23-0.2-0.3zm-7.95-42.01-0.22 0.35c-0.07-0.15 0.01-0.33 0.22-0.35zm8.2-8.54c-0.44 0.33-0.86 0.7-1.31 1.06 0.28-0.31 0.51-0.67 0.86-0.92 0.15-0.1 0.33-0.08 0.45-0.14zm-8.38-86c-0.05 0.15-0.2 0.45-0.23 0.31-0.02-0.03 0.03-0.11 0.23-0.31zm-9.09 0.19c-0.05 0.06-0.04-0.02-0.01-0.09 0.06-0.2 0.22-0.59 0.32-0.82 0.04-0.09 0.09-0.2 0.13-0.29-0.1 0.49-0.41 1.16-0.44 1.2zm-145.96-16.14c-0.36-0.43-0.23-0.44-0.09-0.66 0.19-0.29 0.95-0.84 2.09-1.4 1.7-0.83 2.29-0.6 3.89-0.34 0.86 0.15 1.14 0.22 1.42 0.23 0.34 0.02 0.28-0.03 0.2-0.13-0.03-0.04-0.36-0.3-0.6-0.48-0.6-0.45-1.42-1.3-1.85-2.17-0.64-1.29-0.48-1.11-0.3-1.18 0.19-0.07 0.74 0.05 0.87-0.01 0.08-0.03 0.32-0.29 0.41-0.33 0.13-0.04 0.58 0.27 1.06-0.17 0.41-0.37 0.49-0.2 0.8-0.18 0.79 0.01 1.56-0.02 2.35 0 0.41 0.01 0.93 0.38 1.25 0.35h0.06c-0.16-0.39-0.13-1.15-0.14-2.02-0.01-0.42 0.34-0.62 0.34-1.02 0-0.51 0.17-0.63 0.57-0.68 0.06-0.01 0-0.14 0.17-0.35 0.11-0.14 0.78-0.33 1-0.26 0.26 0.07 0.79 0.41 1.46 0.77 0.86 0.46 0.61 0.79 1.12 1.36 0.47 0.52 0.46 0.41 0.51 0.78 0.01 0.1 0.27 0.14 0.31 0.01 0.03-0.1 0.06-0.24 0.34-0.67 0.27-0.41 0.48-0.8 0.8-1.13 0.45-0.48 0.38-0.5 0.7-0.52 0.13-0.01 0.55-0.01 0.65 0.01 0.09 0.01 0.18 0.07 0.31 0.2-0.06-0.07-0.13-0.14-0.21-0.19l3.34-0.64c-0.19-0.04-0.11-0.35-0.21-0.38-0.5-0.07-0.86-0.3-1.15-0.36-0.29-0.05-0.79-0.35-0.98-0.34-0.42 0.01-0.73-0.16-1.33 0.16-0.58 0.3-0.93 0.85-1.48 0.88-0.58 0.04-1.14-0.01-1.72-0.01h-1.59c-0.35 0.01-0.58 0.12-0.55-0.18 0.01-0.07 0.02-0.16 0.11-0.39 0.21-0.58 0.86-1.74 1.38-2.27 0.65-0.64 1.16-0.74 1.97-1.28 1.12-0.73 0.93-1.47 0.31-1.62-0.15-0.03-0.69-0.04-1.03-0.12-0.33-0.06-1.02-0.38-1.62-0.98-0.78-0.79-0.6-0.87-0.6-0.93 0.02-0.15 0-0.33-0.21-0.62-0.12-0.17-0.01-0.66-0.26-0.94-0.09-0.1-0.12-0.21-0.19-0.46-0.06-0.23-0.34-0.52-0.34-0.6 0.01-0.2 0.41-0.14 1.05-0.14 0.69 0 1.37-0.17 2.05 0 0.07 0.02 0.34 0.16 0.51 0.29 0.33 0.24 0.65 0.51 0.98 0.72 0.63 0.39 0.4 0.16 0.37 0-0.13-0.78-0.62-1.67-0.56-2.37 0.09-1.03 0.79-1.79 1.17-1.93 0.49-0.18 1.07 0.1 1.37 0.63 0.1 0.18 0.25 0.58 0.36 1.2 0.13 0.73 0.13 0.91 0.24 0.63 0.01-0.03 0.1-0.3 0.17-0.57 0.1-0.34 0.19-0.73 0.35-1.22 0.34-1.04 0.52-1.28 0.89-1.64 0.48-0.46 1.08-0.87 1.59-1.23 0.35-0.25 0.4-0.24 0.46 0.08 0.06 0.34 0.29 0.63 0.28 0.98-0.01 0.61-0.01 1.14 0.22 1.04 0.12-0.05 0.05-0.34 0.18-0.36 0.13-0.01 0.21-0.07 0.25-0.25 0.02-0.12 0.24-0.36 0.22-0.67-0.01-0.18-0.18-0.99-0.19-1.3-0.02-0.55 0.22-0.66 0.62-0.64 0.27 0.01 1.42 0.37 2.02 0.95 0.73 0.71 0.86 1.86 0.85 3.37-0.01 0.59 0.11 0.26 0.19 0.09 0.07-0.15 0.43-0.95 0.66-1.42 0.51-1.01 1.05-1.88 2.18-2.37 0.95-0.42 1.01-0.28 1.34-0.17 0.53 0.18 0.64 0.6 0.64 1.26 0 0.41-0.21 1.52-0.39 2.52-0.02 0.1 0 0.34 0.17 0.03 0.2-0.34 0.34-0.65 0.75-1.3 0.79-1.25 0.96-1.26 1.23-1.41 0.46-0.23 0.49-0.14 0.74-0.05 0.16 0.06 0.5 0.27 0.88 0.61 0.97 0.86 0.7 0.64 0.88 0.55 0.11-0.05 0.18-0.17 0.23-0.29s0.17-0.59 0.26-0.99c0.15-0.69 0.39-1.35 0.58-1.66 0.47-0.8 1.14-0.92 1.53-0.57 0.21 0.19 0.7 1.07 0.84 1.69 0.1 0.42 0.12 0.87 0.15 1 0.08 0.35 0.17 0.34 0.39 0.37 0.24 0.03 0.98-0.21 1.32-0.69 0.16-0.23 0.39-0.79 0.78-1.35 0.28-0.42 1.01-1.05 1.78-1.37 1.19-0.51 0.86-0.13 0.96 0.05 0.11 0.2 0.28 0.38 0.25 0.62-0.01 0.51 0.02 1.03 0.01 1.55 0.45-0.65 1.01-1.11 1.4-1.27 0.78-0.34 1.61-0.12 2.76 0.51 2.17 1.18 1.68 1 1.69 0.82 0-0.06-0.2-0.6-0.33-0.99-0.26-0.9-0.21-1.93 0.01-2.82 0.29-1.18 0.44-1 0.54-1.02s0.09-0.09 0.37 0.21 0.56 1.03 1.06 1.99c0.23 0.41 0.54 0.57 0.82 0.44 0.1-0.04 0.43-0.26 0.65-0.47 0.37-0.33 0.75-0.65 1.15-0.89 0.98-0.56 0.95-0.41 1.18-0.37 0.34 0.06 0.36 0.14 0.33 0.62-0.01 0.2-0.15 0.8-0.35 1.43-0.16 0.5-0.34 0.74-0.26 0.94 0.08 0.03 0.14-0.14 0.2-0.22 0.21-0.28 0.71-1.08 1.37-1.77 1.07-1.1 1.48-1.09 1.89-1.19 0.87-0.19 1.11 0.09 1.22 0.19 0.14 0.13 0.27 0.34 0.34 0.65 0.07 0.3 0.03 1.35-0.08 2.04-0.3 1.88-0.2 1.63-0.33 1.65-0.24 0.02-0.37 0.13-0.72 0.52-0.13 0.15-0.15-0.01-0.76 0.27-0.42 0.19-0.62 0.55-0.87 0.57-0.28 0.02-0.41 0.12-0.31 0.42 0.03 0.1 0.11 0.27 0.3 0.55s0.61 0.81 0.86 1.07c0.76 0.81 0.88 0.66 0.95 0.66 0.21-0.01 0.24-0.03 0.34-0.42 0.03-0.13 0.12-0.63 0.19-1.03 0.08-0.51 0.27-1.03 0.47-1.31 0.34-0.48 0.84-0.84 1.44-1.05 1.01-0.36 0.74-0.2 0.91-0.1 0.23 0.12-0.02 0.23 0.2 0.51 0.04 0.05 0.19-0.16 0.63 0.37 0.42 0.46 0.91 0.85 0.96 1.28 0.03 0.2 0.28 0.06 0.32 0.16 0.03 0.08 0 0.58 0.01 0.7 0.01 0.24-0.02 0.22-0.24 0.49-0.23 0.27-0.1 0.23-0.08 0.52 0.02 0.3 0 0.21-0.24 0.49-0.35 0.42-0.09 0.61-0.05 0.62 0.11 0.02 0.14-0.01 0.37-0.16 0.2-0.12 0.88-0.62 1.28-0.99 1.13-1.04 0.89-1.16 0.87-1.38-0.03-0.21-0.02-0.3-0.63-0.81-0.53-0.43-1.09-0.83-1.51-1.58-0.59-1.07-0.44-1.09-0.32-1.43 0.09-0.25 0.2-0.28 0.34-0.35 0.25-0.1 1.24-0.1 1.94 0.07 0.64 0.17 1.34 0.28 1.5 0.19 0.16-0.1 0.26-0.21 0.31-0.72 0.04-0.44-0.05-1.96 0.1-2.82 0.13-0.77 0.52-1.36 0.98-1.72 0.71-0.54 0.55-0.28 0.63-0.25 0.11 0.03 0.16 0.05 0.2 0.31 0.04 0.28-0.04 0.18 0.49 0.52 0.33 0.22 0.42 0.76 0.81 1.1 0.44 0.45 0.82 0.94 1.22 1.02 0.06 0.01 0.12 0.05 0.08 0.33-0.02 0.95 0.02 1.92-0.01 2.87-0.01 0.23-0.09 0.41 0.06 0.38 0.04-0.01 0.1-0.02 0.37-0.27 0.2-0.18 0.54-0.51 0.85-0.81 0.5-0.47 1.14-1.04 1.43-1.23 0.86-0.6 1.44-0.48 1.7-0.37 0.43 0.2 0.71 0.52 1.14 1.12 0.66 0.9 0.61 0.98 0.7 0.93 0.02-0.04 0.01-0.08 0-0.12-0.27-1.34-0.58-2.97 0.86-3.85 0.74-0.46 0.68-0.33 0.83-0.19 0.12 0.1 0.09 0.25 0.12 0.67 0.03 0.4 0.15 0.27 0.39 0.69 0.37 0.65 0.51 0.81 0.88 1.49 0.26 0.41 0.68 0.67 0.86 1.12 0.19 0.43 0.13 0.46 0.11 0.62-0.01 0.62-0.01 1.35 0 1.53 0.01 0.29 0.02 0.64-0.29 0.83l3.5-2.01c0.29-0.17 0.3 0.03 0.31 0.06 0.02 0.07 0.07 0.31 0.24 0.52 0.14 0.19 0.02 0.4 0.24 0.61 0.4 0.39 0.78 0.76 0.78 0.82 0 0.09-0.25 0.25-0.29 0.48-0.01 0.08 0.09 0.36-0.03 0.62-0.17 0.38-0.25 0.79-0.27 1.11-0.01 0.08-0.03 0.17-0.08 0.24 0.41-0.47 0.84-0.8 1.09-0.95 0.63-0.38 1.44-0.09 2.18-0.26 0.37-0.08 0.59-0.23 0.94-0.9 0.29-0.55 0.41-1.05 0.64-1.52 0.18-0.37 0.24-0.37 0.61-0.49 0.16-0.05 0.05-0.29 0.14-0.31 0.1-0.03 0.53-0.09 0.57-0.52 0.01-0.07-0.05-0.17 0.15-0.18 0.1 0 0.48-0.01 0.51 0.08 0.01 0.02 0.01 0.18 0 0.26-0.02 0.44-0.01 0.62 0.21 0.92 0.26 0.35 0.08 1.06 0.09 1.56 0 0.15 0.07 0.45 0.29 0.94 0.46 1 0.57 0.77 0.69 0.74 0.43-0.07 0.54-0.45 0.8-0.74 0.31-0.36 0.72-0.63 1.03-0.77 0.29-0.12 0.86-0.28 1.55-0.3 1.28-0.04 1.1 0.12 1.14 0.24 0.07 0.25 0.33 0.49 0.3 0.88-0.02 0.3 0.25 0.88 0.35 1.23 0.06 0.2 0.28 0.42 0.31 0.65 0.01 0.1 0.27 0.14 0.31 0.01 0.02-0.06 0.02-0.31 0.16-0.45 0.31-0.3 0.79-0.55 0.82-1.01 0.03-0.56 0.41-0.56 0.5-0.5 0.11 0.06 0.44 0.72 0.87 1.33 0.54 0.74 0.75 0.7 0.92 0.74 0.18 0.04 0.42 0.01 0.65-0.05 0.38-0.12 1.57-0.93 1.98-1.23 0.35-0.26 0.62-0.49 0.55-0.19-0.03 0.14-0.19 0.43-0.25 0.59-0.12 0.29 0.01 1.28-0.16 1.71-0.35 0.85-0.86 2.19-1.27 3.07-0.24 0.51-0.48 0.57-0.84 0.73 0.49-0.13 1.05-0.15 1.31-0.07 0.53 0.15 0.98 0.57 1.67 1.29 0.3 0.31 0.02 0.88 0.21 1.29 0.2 0.44 0.29 0.89 0.29 1.36 0.03-0.05 0.16-0.16 0.54-0.08 0.29 0.05 0.12 0.49 0.27 0.38 0.03-0.02 0.09-0.04 0-0.36-0.35-1.12-0.58-2.16 0.18-2.98 0.23-0.25 0.73-0.67 1.59-1.18 0.2-0.12 0.4-0.23 0.58-0.33 0.64-0.34 1.18-0.5 1.24-0.5 0.33 0.01 0.13 0.05 0.11 0.39-0.02 0.41-0.05 0.84 0.08 0.85 0.15 0.01 0.23 0.01 0.24 0.43 0 0.09 0.02 0.18-0.01 0.26l-0.65 2.04c0.15 0.07 0.27 0.01 0.56-0.24 0.24-0.21 0.36-0.08 0.65-0.34 0.21-0.19 0.42-0.13 0.86-0.34 0.3-0.14 0.48-0.02 0.51-0.34 0.04-0.31 0.63-0.13 0.81-0.12 0.11 0 0.15 0.04 0.39 0.26 0.23 0.21 0.2 0.13 0.4 0.1 0.01-0.77 0.24-1.22 0.47-1.7 0.48-0.97 0.41-0.65 0.49-0.65 0.09 0 0.07 0.05 0.66 0.64 0.29 0.28 0.52 0.74 0.82 1.35 0.22 0.45 0.12 0.95 0.31 1.36 0.16 0.36 0.18 0.57 0.18 0.67-0.01 0.41-0.22 0.84-0.02 1.22 0.09 0.17 0.42 0.13 0.63 0.13 0.93 0.01 1.86 0.33 2.76 0.79 0.24 0.13 0.41 0.16 0.38-0.07-0.01-0.07-0.11-0.41-0.17-0.6-0.13-0.44-0.2-1.06-0.18-1.24 0.06-0.5 0.28-0.55 0.52-0.55 0.19 0 0.73 0.17 1.21 0.51 0.25 0.18 0.55 0.43 0.93 0.87 0.68 0.74 0.81 1.05 1.12 1.41 0.03 0-0.01-0.04-0.02-0.07-0.47-1.04-0.57-2.31 0.54-3.46 0.5-0.51 1.29-0.91 1.76-0.99 1.07-0.18 1.31 0.36 1.36 0.51 0.09 0.26 0 0.8-0.22 1.78-0.13 0.6 0.21 0.29 0.28 0.5 0.04 0.13 0.05 0.23 0.23 0.26 0.2 0.03 0.16 0.57 0.4 0.33 0.06-0.06 0.06-0.1 0.04-0.33-0.01-0.51-0.01-1.18-0.01-1.54 0-0.54-0.1-0.73 0.06-0.7 0.02 0 0.13 0.06 0.19 0.1 0.09 0.06 0.49 0.42 0.76 0.71 0.29 0.3 0.64 0.74 0.69 0.85 0.29 0.55-0.07 0.35-0.11 0.83-0.02 0.16 0.22 0.71-0.13 1.45-0.19 0.41-0.46 0.86-0.49 1.06-0.05 0.37-0.18 0.84-0.34 1.25-0.02 0.05-0.05 0.07-0.31 0.06-0.24-0.01-0.51-0.04-0.63 0-0.08 0.02-0.27 0.23-0.42 0.42-0.17 0.2-0.54 0.21-0.71 0.37-0.09 0.08-0.33 0.41-0.42 0.47 0.64 0.35 1.39 0.51 1.84 0.52 1.15 0.05 1.15-0.12 1.42-0.46 0.14-0.18 0.25-0.39 0.4-1.09 0.22-1.02 0.68-1.97 1.61-2.36 0.85-0.35 0.9-0.24 1.28-0.01 0.42 0.25 0.77 0.79 0.53 1.92-0.04 0.19-0.11 0.42-0.25 0.83-0.33 0.98-0.3 0.95-0.29 1.1 0.01 0.38 0.11 0.45 0.57 0.34 0.2-0.05 0.57-0.16 0.88-0.87 0.14-0.3 0.27-1.03 0.47-1.79 0.22-0.86 0.32-0.94 0.69-1.28s0.84-0.59 0.91-0.68c0.09-0.09-0.04-0.29 0.16-0.47 0.19-0.17 0.54 0.06 0.6-0.45 0.04-0.34 0.34-0.5 0.35-0.13 0 0.1-0.04 0.43 0 0.52s0.29 0.41 0.32 0.6 0.36 0.45 0.32 0.79c-0.04 0.64-0.04 0.72-0.2 1.64-0.27 1.51-0.2 1-0.06 1.12s0.31-0.17 0.47-0.31c0.48-0.45 1.02-0.9 1.46-1.04 0.66-0.2 1.29-0.08 1.61 0.05 0.94 0.42 0.79 0.87 0.73 1.21-0.08 0.44-0.32 0.83-1.33 1.48-0.57 0.36-0.91 0.46-0.68 0.54 0.02 0.01 0.22 0.02 0.37 0 0.79-0.08 1.62-0.29 2.55-0.15 0.98 0.16 1.38 0.64 1.85 1.01 0.23 0.19 0.47 0.42 0.53 0.48 0.22 0.26 0.13 0.44-0.01 0.44-0.14 0.01-0.42-0.07-0.76 0.22-0.24 0.21-0.35 0.09-0.65 0.34-0.16 0.14-0.38 0.04-0.41 0.31-0.01 0.05-0.03 0.1-0.08 0.13 0.36 0 0.72-0.04 0.73 0.09 0.01 0.14 0.01 0.27 0.14 0.26 0.05 0 0.34-0.12 0.48-0.22 0.52-0.33 0.96-0.57 1.14-0.63 0.64-0.23 0.72 0.14 0.78 0.46 0.06 0.3 0.07 1.53-0.35 2.5-0.37 0.84-0.62 0.97-0.98 1.2-0.4 0.24-0.82 0.36-1.42 0.4-0.46 0.03-0.99-0.04-0.77 0.13 0.01 0.01 0.21 0.13 0.35 0.18 1.13 0.51 2.42 1.21 2.83 1.61 0.74 0.7 0.51 0.98 0.44 1.12-0.04 0.08-0.18 0.24-0.33 0.34-0.23 0.15-1.15 0.46-1.96 0.57-0.45 0.06-0.99 0.08-1.73 0.08-0.62 0-1.11-0.02-1.4-0.02-0.67 0-1.16 0.18-1.16 0.4 0 0.07 0.13 0.59 0.23 1.06 0.12 0.57 0.08 2-0.35 3.08-0.3 0.76-0.68 1.43-1.54 2.34-0.34 0.36-0.7 0.68-1.07 1 0.56-0.35 1.35-0.69 1.7-0.71 0.97-0.05 1.04 0.47 1.15 0.76 0.14 0.38 0.14 0.78 0.03 1.3 0.24-0.51 0.5-1.02 0.82-1.48 0.73-1.06 1-1.22 1.74-1.31 0.33-0.04 0.86 0.01 1 0 0.66-0.06 0.15-0.25 0.07-0.26s-0.06 0.03-0.2-0.35c-0.05-0.15-0.25-0.19-0.53-0.58-0.23-0.33-0.05-0.72-0.65-0.78-0.07-0.01-0.1-0.06-0.07-0.42 0.02-0.3 0-0.21-0.24-0.5-0.2-0.24-0.12-0.19-0.1-0.48 0-0.38 0.02-0.76 0.01-1.14-0.01-0.33-0.26-0.23 0.35-0.71 0.13-0.1 0.39-0.28 0.72-0.47 1.31-0.76 1.3-0.48 1.41-0.41 0.12 0.07 0.18 0.17 0.15 0.61-0.02 0.24-0.16 1.01-0.15 1.32 0.02 0.72 0.19 0.68 0.46 0.79 0.4 0.15 0.95 0.08 1.71-0.04 1.5-0.24 0.98-0.21 1.12-0.05 0.03 0.03 0.04-0.05 0.02 0.21-0.01 0.18-0.01 0.61 0 0.73 0.01 0.25 0.05 0.17-0.12 0.36-0.15 0.18-0.83 1.22-0.95 1.55-0.24 0.63-0.17 0.6-0.01 0.7 0.08 0.05 0.37 0.09 0.47 0.08 0.47-0.02 1-0.15 1.7-0.12 0.56 0.03 0.55 0.12 0.53 0.31-0.01 0.13-0.02 0.61-0.03 1.18-0.01 0.4 0.37 0.47 0.27 0.66-0.04 0.06-0.21 0.27-0.27 0.52-0.04 0.2-0.29 0.44-0.32 0.65-0.02 0.12-0.19 0.21-0.28 0.47 0.73-0.7 1.56-1.45 2.1-1.63 0.22-0.07 0.73-0.09 1.22 0.06 0.62 0.2 0.65 0.27 0.83 0.51 0.28 0.31 0.6 0.54 0.87 0.92 0.18 0.25 0.12 0.46 0.31 0.67 0.03 0.03 0.05 0.08 0 0.09-0.13 0.01-0.16 0.09-0.24 0.29-0.03 0.08-0.06 0.07-0.14 0.07-0.05 0-0.56-0.02-0.78-0.02-0.23 0-0.33-0.03-0.52-0.01-0.06 0.01-0.07 0.04 0.02 0.1 0.06 0.04 0.37 0.23 0.63 0.39 0.61 0.38 1.36 1.03 1.53 1.35 0.25 0.49 0.15 0.55 0.01 0.8-0.09 0.17-0.51 0.62-0.83 0.94-0.19 0.2-0.42 0.44-0.72 0.83-0.78 1.01-0.79 1.12-0.63 1.11 0.01 0 0.16-0.06 0.24-0.13 0.32-0.22 0.62-0.44 0.99-0.63 0.87-0.44 0.86-0.29 1.19-0.23 0.6 0.12 0.61 0.19 0.79 0.56 0.1 0.2 0.14 0.34 0.1 0.8-0.07 0.83-0.25 1.36-0.33 1.64-0.21 0.47-0.24 0.87-0.51 1.21-0.22 0.27-0.13 0.22-0.08 0.49 0.08-0.19 0.55 0.07 0.63-0.47 0.04-0.27 0.05-0.26 0.24-0.51 0.11-0.15 0.01-0.37 0.16-0.43 0.09-0.04 0.56 0.07 0.58-0.08 0.01-0.15 0-0.37 0.3-0.25 0.14 0.05 0.58 0.5 0.64 0.68 0.05 0.14 0.02 0.3 0.25 0.35 0.14 0.02 0.07 0.3 0.2 0.33 0.14 0.01 0.27-0.01 0.24 0.34-0.03 0.87-0.07 1.73-0.02 2.6 0.01 0.02 0.01 0.08 0.07 0 0.03-0.04 0.45-0.7 0.54-0.78 0.12-0.12 0.31-0.08 0.6-0.36 0.26-0.24 0.22-0.1 0.5-0.08 0.29 0.02 0.2 0 0.47-0.25 0.25-0.23 0.23-0.17 0.39-0.08 0.11 0.06 0.41 0.31 0.59 0.34 0.04 0.01 0.07 0.04 0.07 0.08 0.01 0.13 0.05 0.23 0.2 0.25 0.21 0.03 0.46 0.38 0.78 0.33 0.28-0.04 0.39 0 0.33 0.21-0.03 0.12-0.42 0.74-0.49 0.99-0.16 0.54-0.03 0.47 0.16 0.65 0.5 0.47 1.47 0.79 2.2 1.52 0.83 0.84 0.92 1.15 1.06 1.48 0.28 0.68 0.14 0.65 0 0.85-0.16 0.22-0.93 0.35-1.22 0.39-0.16 0.02-0.38 0.4-0.75 0.36-0.46-0.01-0.91-0.01-1.37 0.01-0.22 0.01-0.22-0.02-0.47-0.25-0.24-0.22-0.2-0.12-0.41-0.1-0.35 0.02-0.63 0.04-0.64-0.08-0.02-0.18-0.24-0.45-0.29-0.15-0.02 0.1 0.16 0.71 0.28 0.83 0.09 0.09 0.29 0.07 0.33 0.16 0.05 0.12-0.07 0.59 0.07 0.61 0.23 0.02 0.56 0.19 0.58 0.46 0.01 0.15-0.14 0.72 0.15 1.07 0.43 0.51 0.22 0.58 0.19 0.7-0.04 0.16-0.03 0.21-0.34 0.16-0.59-0.03-1.19 0.15-1.77-0.01-0.14-0.04-0.4-0.21-0.63-0.4-0.57-0.47-1.09-1.05-1.72-1.35-0.21-0.1-0.21-0.06-0.21 0.05 0 0.02 0.03 0.18 0.07 0.33 0.1 0.35 0.41 1.2 0.3 2.19-0.13 1.23-0.36 1.12-0.55 1.2-0.11 0.04-0.3 0.04-0.53-0.07-0.14-0.06-0.61-0.39-0.94-0.66-0.31-0.25-0.76-0.55-0.82-0.58-0.32-0.15-0.62 0.15-1 0.46-0.24 0.19-0.9 0.31-1.49 0.48-0.31 0.09-0.18 0.09-0.12 0.16 0.04 0.04 0.72 0.41 1.02 0.62 0.94 0.64 0.79 0.84 0.75 1.05-0.04 0.22-0.16 0.34-0.55 0.52-0.19 0.09-0.75 0.3-1.1 0.43-1.02 0.38-0.68 0.26-0.52 0.39 0.24 0.19 0.57 0.2 1.51 0.4 0.62 0.13 1.28 0.26 2.25 0.6 1.95 0.67 1.82 0.83 1.95 0.93 0.24 0.21 0.42 0.41 0.15 0.72-0.09 0.1-0.38 0.33-0.87 0.51-0.52 0.19-0.66 0.18-0.88 0.39-0.26 0.22-0.4 0.04-0.81 0.54-0.31 0.38-0.62 0.22-0.81 0.44-0.07 0.09-0.09 0.13-0.02 0.15h0.23c0.62-0.01 1.4-0.1 1.79 0.08 0.38 0.18 0.66 0.24 1.41 0.24 0.42 0 0.55 0.05 0.78-0.13 0.21-0.18 0.85-1.01 1.24-1.21 0.52-0.26 0.18 0.22 0.42 0.49 0.39 0.44 0.02 0.44 0.48 0.85 0.34 0.28 0.61 0.83 0.63 1.08 0.01 0.14 0.03 0.25 0.25 0.28 0.19 0.03 0.2 0.16-0.13 0.58-0.21 0.27-0.04 0.42-0.51 0.85-0.27 0.24-0.21 0.58-0.35 0.74-0.09 0.1-0.5 0.47-0.54 0.58-0.06 0.16-0.15 0.22 0.38 0.25 0.2 0.01 0.84-0.02 1.39-0.09 0.87-0.12 1.76-0.38 2.63-0.3 0.64 0.05 0.63 0.1 0.79 0.56 0.16 0.44 0.15 0.95 0.1 1.52-0.12 1.31-0.23 1.11-0.39 1.11-0.13 0-0.32-0.06-0.64 0.22-0.24 0.21-0.36 0.08-0.65 0.34-0.24 0.21-0.36 0.08-0.64 0.35-0.09 0.08-0.16 0.1-0.24 0.12-0.53-0.02-1.13-0.01-1.29-0.01-0.33-0.01-0.45 0-0.72 0.24-0.14 0.13-0.21 0.12-0.52 0.08-0.1-0.01-0.14-0.01-0.17 0.01-0.04 0.17 0.26 0.29 0.27 0.5 0.02 0.23 0.23 0.45 0.57 0.51 0.33 0.05 0.16 0.05 0.47 0.42 0.22 0.26 0.33 0.1 0.48 0.31 0.03 0.04 0.08 0.19 0.1 0.29 0.02 0.14 0.04 0.73 0 1.1-0.14 1.2-0.59 1.52-1.36 1.43-0.27-0.03-0.93-0.28-1.52-0.67-0.22-0.15-0.49-0.35-0.88-0.61-1.33-0.91-1.12-0.58-1.21-0.51s-0.15 0.19-0.12 0.52c0.02 0.22 0.22 1.01 0.41 1.41 0.33 0.66 0.66 0.92 1.11 0.94 0.17 0.01 0.49-0.08 1.24-0.12 1.01-0.05 2.14 0.25 2.99 0.71 0.92 0.49 0.91 0.86 0.77 1.19-0.05 0.12-0.24 0.36-0.43 0.5-0.27 0.22-1.04 0.65-2.21 1.1-1.99 0.78-1.93 0.81-2.05 0.89-0.24 0.17-0.23 0.25-0.07 0.37 0.04 0.03 0.16 0.09 0.28 0.14 0.24 0.08 1.36 0.29 2.11 0.38 0.75 0.08 0.74 0.03 0.87-0.22 0.08-0.14 0-0.39 0.28-0.43 0.14-0.02 0.07-0.3 0.2-0.33 0.12-0.01 0.22-0.06 0.24-0.21 0.02-0.19 0.27-0.4 0.32-0.74 0.09-0.67 0.87-0.25 0.94-0.83 0.04-0.28 0.06-0.58 0.54-0.63 0.42-0.07 0.83-0.23 1.82-0.43 1.19-0.23 2.85 0.04 3.3 0.27 0.69 0.37 0.49 0.39 0.44 0.54-0.08 0.22-0.45 0.27-1.12 0.84-0.23 0.2-0.35 0.39-0.11 0.57 0.08 0.06 0.41 0.15 0.57 0.12 0.11-0.03 0.28-0.04 0.77-0.52s0.86-1.04 1.35-1.48c0.34-0.3 0.61-0.47 0.8-0.56 0.53-0.24 1.12-0.35 2.01-0.08 1.01 0.29 1.23 0.55 1.47 0.85 0.38 0.48 0.26 0.41 0.22 0.72-0.08 0.52-0.4 0.9-0.88 1.27-0.33 0.25-1.14 0.56-2 0.87-0.08 0.03-0.38 0.05-0.12 0.21 0.02 0.01 0.21 0.08 0.39 0.15 0.38 0.13 1.13 0.23 2.27 0.88 0.91 0.52 1.16 0.85 1.42 1.19 0.56 0.72 0.58 1.05 0.64 1.49 0.13 0.97 0.01 1.01-0.23 1.33-0.22 0.29-0.49 0.48-1.21 0.38-0.41-0.05-1.38-0.41-2.34-1.42-0.14-0.15-0.33-0.33-0.37-0.36-0.16-0.12-0.2-0.12-0.1 0.31 0.22 0.95 0.46 1.96 0.27 2.77-0.17 0.72-0.32 0.83-0.54 1.04-0.46 0.44-0.6 0.39-1.03 0.28-0.69-0.16-1.79-1.14-1.96-2-0.06-0.3-0.04-0.6 0.03-0.89-0.15 0.41-0.24 0.86-1.04 1.55-0.34 0.29-0.89 0.58-1.26 0.72-0.47 0.17-0.72 0.22-1.08 0.23-0.81 0.01-0.9-0.18-1.07-0.56-0.11-0.24-0.11-0.77 0.15-1.63 0.19-0.63 0.07-0.66 0.01-0.71-0.04-0.03-0.21-0.05-0.31-0.04-0.28 0.04-1.4 0.57-1.64 1.54-0.18 0.73 0.06 1.7 0.35 2.14 0.2 0.3 0.48 0.55 0.8 0.68 0.39 0.17 1.73 0.26 2.59 0.46 0.88 0.2 1.75 0.83 1.93 1.08 0.22 0.33 0.03 0.65-0.31 1.14-0.12 0.17-0.16 0.39-0.14 0.59 0.01 0.13 0.12 0.45 0.28 0.72 0.25 0.42 0.54 0.84 0.73 1.27 0.32 0.72 0.25 0.69-0.05 0.97-0.26 0.23-0.68 0.36-1.41 0.46-1.23 0.18-2.44 0.68-3.71-0.06-0.19-0.12-0.43-0.28-0.78-0.48-1.03-0.6-1.03-0.37-1.22-0.26-0.11 0.06-0.28 0.26-0.39 0.47-0.1 0.2-0.31 0.94-0.36 1.42-0.13 1.33 0.12 1.22 0.23 1.27 0.08 0.04 0.15 0.05 0.39-0.02 0.21-0.07 0.76-0.38 1.31-0.59 0.32-0.13 0.83-0.27 1.5-0.34 1.27-0.1 1.77 0.1 1.88 0.15 0.22 0.09 0.3 0.23 0.2 0.38-0.05 0.07-0.32 0.3-0.79 0.64-1.06 0.79-0.77 0.77-0.68 0.92 0.06 0.09 0.13 0.18 0.47 0.34 0.29 0.14 1.25 0.45 1.63 0.59 1.08 0.39 0.87 0.54 0.87 0.63 0 0.14-0.03 0.27-0.87 0.98-0.46 0.39-0.9 0.94-1 1.1-0.21 0.35-0.06 0.54 0.1 0.57 0.05 0.01 0.27 0.01 0.43-0.01 0.47-0.06 2.04-0.51 2.74-0.64 1.16-0.2 1.13 0 1.31 0.23 0.08 0.1 0.16 0.28 0.18 0.57 0.02 0.25-0.11 1.09-0.34 1.59-0.53 1.21-1.17 1.18-1.49 1.18-0.25 0-1.06-0.23-1.31-0.28-0.3-0.06-0.36-0.03-0.27 0.17 0.06 0.14 0.63 0.86 1.21 1.34 0.69 0.57 1.59 1.05 2.78 1.11 0.32 0.02 0.65-0.01 0.96 0.08 0.42 0.12 0.49 0.21 0.36 0.83-0.07 0.35-0.29 0.66-0.02 1.04 0.22 0.29-0.04 0.49 0.6 1.28 0.35 0.44 0.58 0.95 0.92 1.29 0.35 0.34 0.25 0.47 0.08 0.44-0.03-0.01-0.15-0.04-0.24-0.09-0.33-0.18-0.65-0.38-0.97-0.51-0.31-0.13-0.37-0.12-0.28 0.09 0.01 0.03 0.15 0.27 0.28 0.5 0.41 0.72 0.83 1.69 0.84 2.3 0.01 0.82-0.37 1.72-0.73 2.11-0.72 0.77-1.83 0.55-2.36-0.21-0.15-0.21-0.35-0.65-0.48-1.37-0.09-0.5-0.15-0.8-0.16-0.82-0.07-0.17-0.09-0.07-0.16 0.03-0.02 0.02-0.14 0.31-0.24 0.59-0.45 1.19-0.79 2.5-1.24 3.25-0.45 0.73-1.04 1.29-1.63 1.71-0.76 0.54-0.64 0.31-0.76 0.2-0.08-0.07-0.12-0.19-0.11-0.52 0.01-0.47 0.08-1.09 0-1.32-0.03-0.08-0.28-0.34-0.31-0.43-0.05-0.16 0.06-0.66-0.08-0.57-0.04 0.03-0.18 0.31-0.25 0.56-0.06 0.19-0.29 0.05-0.32 0.28-0.02 0.15-0.3 0.1-0.33 0.21-0.01 0.02 0 0.13 0.01 0.17 0.03 0.12 0.16 0.45 0.33 0.95 0.34 0.98 0.26 1.06 0.21 1.29-0.12 0.49-0.26 0.55-0.83 0.63-0.32 0.04-1.2-0.1-1.78-0.5-0.76-0.52-1.27-1.21-1.57-2.7-0.13-0.66-0.19-1.67-0.2-1.8-0.01-0.07 0.1-0.38-0.11-0.15-0.02 0.02-0.1 0.16-0.23 0.45-0.15 0.35-0.46 1.04-0.67 1.45-0.38 0.76-0.63 1.25-1.26 1.93-0.55 0.58-1.41 1.06-1.93 1.18-0.99 0.23-0.99 0.12-1.3-0.13-0.34-0.26-0.44-0.84-0.17-1.34 0.09-0.17 0.33-0.47 0.71-0.85 0.36-0.37 0.43-0.52 0.29-0.58-0.04-0.01-0.35-0.05-0.52-0.04-0.62 0.03-1.23 0.1-1.83 0.17-1.7 0.17-1.3 0.08-1.37-0.04-0.03-0.05 0.08-0.01 0.31-0.16 0.08-0.05-0.13-0.43 0.26-0.9 0.21-0.25 0.11-0.21 0.1-0.43-0.02-0.39-0.04-0.59 0.22-0.93 0.11-0.15 0-0.4 0.17-0.42 0.03 0 0.35-0.07 0.58-0.33l0.35-0.39c-0.56 0.43-1.13 0.85-1.68 1.12-0.9 0.46-1.07 0.4-1.33 0.39-0.49-0.02-0.65-0.17-0.87-0.4-0.18-0.18-0.49-0.61-0.77-1.34-0.07-0.19-0.13-0.38-0.18-0.54-0.13-0.42-0.22-0.85-0.26-0.99-0.02-0.06-0.07-0.19-0.09-0.03-0.02 0.13-0.02 0.7-0.09 1.16-0.16 1.04-0.67 2.1-1.17 2.92-0.77 1.25-0.86 0.98-0.98 0.91-0.14-0.06-0.24-0.1-0.39-0.63-0.09-0.3-0.19-0.97-0.26-1.89-0.13-1.55-0.2-1.27-0.36-1.43-0.18-0.18-0.27-0.15-0.4-0.15-0.1 0-0.55 0.07-0.87 0.19-0.52 0.18-1.04 0.37-1.57 0.46-1.22 0.21-1.18 0.06-1.37-0.08-0.34-0.24-0.3-0.33-0.06-0.86 0.14-0.3 0.74-1.06 1.48-1.91 0.42-0.51 0.22-0.38 0.13-0.43-0.08-0.04-0.32-0.02-0.5 0.01-0.52 0.09-1.86 0.5-2.66 1.04-0.63 0.41-0.49 0.46-0.38 0.66 0.14 0.25 1.01 0.76 1.49 1.95 0.12 0.29 0.22 0.89 0.53 1.62 0.25 0.59 0.25 0.4 0.33 0.3 0.05-0.06 0.04-0.31 0.13-0.33 0.12-0.01 0.19-0.07 0.24-0.26 0.04-0.14 0.29-0.05 0.3-0.19 0.02-0.15 0.01-0.37 0.3-0.24 0.13 0.05 0.57 0.49 0.64 0.67 0.07 0.17 0.01 0.37 0.18 0.52 0.36 0.36 0.82 0.8 0.83 0.95 0.02 0.19-0.09 0.8 0.31 0.57l0.32 2.37c0.45 0.27 0.27-0.31 0.4-0.34 0.15-0.02 0.27-0.06 0.48-0.25 0.26-0.24 0.22-0.1 0.5-0.08 0.31 0.02 0.27-0.12 0.51-0.28 0.15-0.05 0.02 0.22 0.13 0.26 0.07 0.02 0.28 0 0.26 0.21-0.03 0.52-0.02 1.13-0.02 1.33 0 0.1 0.01 0.21 0.02 0.3l0.94-1.5c0.05-0.08-0.06-0.31 0.19-0.35 0.18-0.02 0.46-0.27 0.73-0.35 0.17-0.05 0.38-0.34 0.52-0.34 0.16 0 0.31-0.02 0.47 0.02 0.14 0.04 0.63 0.58 0.67 0.7 0.02 0.07 0.03 0.16 0.02 0.3-0.01 1.05-0.01 2.1-0.01 3.15 0.05-0.16 0.17-0.31 0.32-0.43 0.46-0.47 0.91-0.95 1.33-1.43 0.26-0.29 0.32-0.23 0.74-0.27 0.54-0.05 0.48-0.48 0.81-0.34 0.07 0.03 0.25 0.2 0.35 0.33 0.6 0.65 1.44 1.5 1.52 1.61 0.19 0.27 0.08 0.39 0.31 0.69 0.26 0.35 0.16 0.8 0.36 0.37 0.12-0.25 0.02-0.52 0.05-0.91 0.05-0.65 0.09-0.6 0.44-0.9 0.19-0.17 0.69-0.4 1.16-0.65 0.51-0.27 1.04-0.89 1.49-0.88 0.47 0.01 0.33 0.08 0.7-0.24 0.45-0.39 0.26-0.09 0.25 0.02-0.02 0.17-0.04 0.2-0.18 0.5-0.12 0.26-0.37 0.81-0.5 1.13-0.39 1.01-0.29 1.53 0.01 1.96 0.16 0.24 0.66 0.66 1.25 0.98 0.54 0.27 0.72 0.3 0.69 0.39-0.2 0.12-0.43 0.1-0.49 0.61-0.02 0.23-0.28 0.05-0.45 0.2-0.13 0.12-0.49 0.51-0.63 0.66-0.51 0.5-0.22 0.55-0.15 0.57 0.15 0.05 0.28 0.05 0.5 0.25 0.21 0.19 0.42 0.13 0.86 0.34 0.47 0.22 0.46 0.08 0.75 0.35 0.27 0.24 0.22 0.12 0.51 0.08 0.31-0.03 0.21-0.03 0.24 0.08 0.02 0.07 0 0.45-0.04 0.66-0.08 0.45-0.33 0.9-1.08 1.47-0.19 0.15-0.46 0.33-0.86 0.61-1.02 0.72-1.02 0.8-1.14 0.98-0.26 0.38-0.22 0.29-0.12 0.57 0.15 0.45 0.67 0.78 1.18 1.01 0.35 0.15 0.41 0.05 0.44-0.17 0.02-0.16 0.13-0.13 0.31-0.12 0.48 0.01 0.98 0.01 1.13 0.01 0.38-0.01 0.47 0.02 0.49 0.21 0.02 0.28 0.32 0.42 0.59 0.49 0.12 0.03 0.24 0.22 0.42 0.33 0.28 0.17 0.56 0.36 0.83 0.58 0.4 0.33 0.56 0.02 0.41 0.26-0.03 0.04-0.16 0.18-0.46 0.37-0.19 0.12-0.55 0.3-0.97 0.54-1.79 0.95-1.47 0.86-1.56 1.04-0.08 0.16 0.01 0.29 0.43 0.42 0.69 0.22 1.47 0.55 1.51 0.97 0.02 0.17 0.02 0.24-0.17 0.65-0.15 0.35-0.35 0.63-0.65 1.04-0.86 1.2-0.6 0.93-0.49 0.94 0.01 0 0.2-0.01 0.38-0.02 0.46-0.01 0.92 0 1.38 0.01 0.31 0.01 0.25-0.02 0.5-0.25 0.28-0.25 0.47-0.18 0.71-0.08 0.09 0.04 0.39 0.3 0.57 0.34 0.15 0.02 0.43 0.27 0.7 0.36 0.17 0.05 0.38 0.28 0.61 0.33 0.25 0.04 0 0.58 0.4 0.34l-1.93 1.7c0.14 0.26-0.08 0.36-0.12 0.36-0.13 0-0.51-0.06-0.52 0.07s-0.04 0.23-0.2 0.25-0.37 0.28-0.71 0.34c-0.07 0.03-0.02 0.07 0.08 0.17 0.32 0.31 0.65 0.57 1.09 0.83 0.39 0.22 0.9 0.82 1.22 1.25 0.08 0.1 0 0.36 0.19 0.46-0.39 0.15-0.45 0.37-0.79 0.34-0.38-0.04-0.64 0.14-0.89 0.29-0.18 0.12-0.46 0.12-0.91 0.35-0.18 0.08-0.22 0.05-1.3-0.33-1.28-0.46-1.02-0.19-1.04-0.1-0.01 0.05-0.08 0.02 0.15 0.45 0.52 0.99 1.33 2.12 1.48 2.81 0.12 0.59 0 1.11-0.43 1.56-0.17 0.18-0.88 0.61-1.37 0.78-0.45 0.15-0.7 0.2-1.02 0.22-0.82 0.04-0.75-0.16-0.76-0.45-0.01-0.21-0.01-0.3 0.45-1.38 0.67-1.59 0.44-1.24 0.35-1.23-0.02 0-0.2 0.1-0.31 0.2-0.81 0.67-1.81 1.53-3.21 2.31-0.75 0.41-0.92 0.5-0.71 0.64 0.02 0.01 0.17 0.06 0.33 0.1 0.38 0.1 1.23 0.27 1.84 0.84 0.32 0.29 0.89 1.04 1.3 1.96 0.53 1.2 0.3 1.2 0.22 1.34-0.16 0.26-0.28 0.41-1.18 0.13-0.6-0.19-1.36-0.84-2.12-1.56-0.31-0.31-0.44-0.21-0.49-0.19-0.09 0.03-0.41 0.4-0.64 0.55-0.2 0.14-0.87 0.23-1.07 0.25-0.05 0.01-0.1 0.01-0.15 0.03-0.04 0.1 0.15 0.1 0.25 0.15 0.3 0.13 1.08 0.39 1.83 0.8 1.45 0.8 1.46 1.21 1.55 1.49 0.14 0.43-0.07 0.64-0.2 0.71-0.06 0.03-0.28 0.12-0.47 0.15-0.16 0.03-0.46 0.04-0.83 0.05-1.77 0.05-1.32-0.02-1.34 0.17-0.01 0.1 0.2 0.28 0.3 0.36 0.85 0.65 2.08 1.55 2.45 2.16 0.52 0.85 0.23 1.16 0.12 1.27-0.19 0.2-0.42 0.28-0.96 0.29-0.31 0-0.97-0.05-1.64-0.34-0.59-0.24-0.86-0.44-1.05-0.61 0.11 0.34 0.38 0.56 0.31 0.67-0.1 0.15-0.31 0.06-0.33 0.27-0.02 0.14-0.27 0.08-0.32 0.2-0.01 0.03-0.01 0.18-0.01 0.26 0 0.34 0.01 0.68 0.01 1.02 0.01 1.9 0.14 1.53-0.11 1.65-0.1 0.04-0.1 0.05-0.31 0.06-0.18 0.01-0.55 0.01-0.78-0.03-0.73-0.12-1.19-0.57-1.38-1.03-0.12-0.29-0.16-1.16-0.42-1.85-0.09-0.24-0.24-0.38-0.44-0.34-0.05 0.01-0.19 0.05-0.31 0.1-0.2 0.09-1.04 0.72-1.45 1.2-0.58 0.67-0.54 1.25-1.22 1.92-0.52 0.49-0.63 0.3-0.8 0.1-0.08-0.09-0.29-0.51-0.44-0.79-0.27-0.52-0.74-1-0.86-1.58-0.06-0.27 0.18-0.91 0.32-1.51 0.02-0.06-0.02-0.16-0.16-0.05-0.04 0.03-0.31 0.24-0.57 0.44-0.66 0.51-1.48 1.04-1.88 1.18-0.7 0.23-0.72 0.08-0.83-0.16-0.04-0.08-0.1-0.35-0.1-0.56 0-0.37 0.36-1.5 0.6-2.39 0.14-0.5 0.07-1.04 0.17-1.55 0.11-0.56 0.17-0.51 0.49-0.69 0.3-0.16 1.47-0.5 1.81-0.76 0.32-0.24 0.54-0.67 0.55-0.73 0.02-0.2-0.07-0.19-0.16-0.19-0.03 0-0.19 0.03-0.3 0.07-0.31 0.12-1.45 0.67-1.95 0.81-0.43 0.12-0.55 0.13-1.01-0.03-0.44-0.17-0.88-0.33-1.33-0.41-1.4-0.28-1.16-0.42-1.18-0.66-0.04-0.51 0.07-0.67 0.67-1.33 0.37-0.42 1.15-0.89 2-1.47 0.08-0.06 0.35-0.17 0.07-0.26-0.02-0.01-0.22-0.03-0.4-0.04-0.57-0.03-1.14 0.1-1.69-0.03-0.45-0.12-0.37-0.22-0.88-0.78-0.43-0.46-0.34-0.46-0.57-0.49-0.33-0.05-0.46-0.01-0.18-0.29 0.06-0.06 0.11-0.13 0.44-0.29 0.38-0.19 1.27-0.55 1.74-0.69 1.43-0.42 1.56 0.02 2.42 0.48 0.67 0.36 0.78 0.35 1.09-0.14 0.15-0.22 0.35-1.16 0.33-1.28-0.07-0.42-0.21-0.25-0.32-0.24-0.67 0.06-1.04 0.66-2.35 0.62-0.92-0.03-1.64-0.36-1.84-0.47-0.46-0.26-0.11-0.72-0.78-0.77-0.29-0.02-0.73-0.49-1.02-0.89-0.1-0.13-0.01-0.42-0.33-0.47-0.09-0.01-0.13-0.1-0.12-0.21-0.9 0.54-1.91 0.83-2.46 0.74-1.06-0.16-1.1-0.65-1.16-0.9-0.09-0.37 0.12-0.8 0.24-1.65 0.06-0.45-0.23-0.33-0.5-0.15-0.19 0.13-0.61 0.64-0.66 1.19-0.03 0.27 0.15 0.9 0.08 1.56-0.01 0.13-0.32 0.36-0.55 0.66-0.1 0.13 0 0.42-0.32 0.47-0.21 0.03 0 0.49-0.39 0.34-0.07-0.03-0.24-0.2-0.36-0.34-0.36-0.4-0.59-0.86-1.22-1.03-0.07-0.02-0.07-0.14-0.06-0.49 0.01-0.22 0-0.77 0.02-1.29 0.01-0.25-0.08-0.14-0.28-0.26-0.06-0.14 0.29-0.3 0.28-0.57-0.01-0.18-0.09-0.34 0.14-0.79 0.1-0.21 0.33-0.39 0.45-0.64 0.07-0.16 0.01-0.63 0.21-0.86 0.22-0.26 0.21-0.22-0.09-0.15-0.13 0.03-0.39 0.33-0.55 0.34-0.13 0-0.51 0.01-0.66 0-0.29 0-0.08-0.33-0.23-0.35s-0.26-0.06-0.48-0.24c-0.17-0.14-0.38-0.04-0.41-0.33-0.03-0.26-0.74-0.03-0.53-0.59 0.06-0.16 0.66-0.87 1.21-1.19 0.69-0.39 1.53-0.58 1.7-0.68 0.26-0.16 0.19-0.07 0.18-0.54-0.01-0.82-0.02-0.42-0.28-0.52-0.15-0.06-0.05-0.27-0.05-0.66 0-0.63 0-1.26-0.02-1.89 0-0.17 0.03-0.21 0.33-0.16 0.46 0.01 0.91 0.01 1.38 0 0.22-0.01 0.22 0.02 0.47 0.25 0.24 0.22 0.2 0.12 0.41 0.1 0.44-0.02 0.85-0.12 1.2 0.23 0.21 0.2 0.28 0.17 0.41 0.1l0.32-3.05c-0.14-0.06-0.21-0.14-0.5 0.17-0.37 0.39-0.6 0.57-1.05 0.85-0.23 0.2-0.38 0.31-1.06 0.35-0.57 0.03-0.86 0.33-1.22 0.35s-1.89 0.15-2.48-0.1c-0.83-0.36-0.76-0.61-0.77-0.69-0.03-0.2 0.19-0.45 0.78-1.04 0.13-0.14 0.26-0.22 0.57-0.4 0.45-0.25 0.55-0.43 0.72-0.61-0.18 0.16-0.38 0.14-0.91 0.37-0.32 0.15-0.83 0.12-1.48 0.1-0.64-0.02-0.7-0.16-0.94-0.39-0.47-0.43-0.61-0.09-0.89-0.56-0.27-0.42 0.03-0.27 0.23-0.46 0.13-0.13 0.03-0.28 0.24-0.3 0.16-0.02 0.04-0.24 0.24-0.47 0.03-0.04 0.42-0.42 0.77-0.79 0.24-0.25 0.48-0.5 0.72-0.77-0.36-0.05-0.3 0-0.79 0.52-0.54 0.57-1.28 0.45-1.62 0.6-0.42 0.18-0.81 0.16-1.41 0.37-1.14 0.38-0.59-0.02-0.75-0.09-0.15-0.07-0.29 0.01-0.25-0.36 0.04-0.36-0.17-0.31-0.31-0.73-0.08-0.25-0.11-0.64-0.01-0.93 0.03-0.07 0.21-0.22 0.42-0.55 0.42-0.67 0.2-0.5 0.12-0.52-0.02 0-0.18-0.01-0.26 0-0.42 0.01-0.83 0.01-1.24 0.01h-1.43c-0.23 0-0.48 0.04-0.51-0.06-0.01-0.04-0.02-0.42 0.02-0.58 0.07-0.33 0.28-0.65 0.32-1.01 0.04-0.28 0.64-1.09 0.93-1.7 0.22-0.39 0.7-0.72 1.36-0.73-0.27-0.13-0.39-0.33-0.73-0.35-0.19-0.01-1.18 0.04-1.65 0.05-0.77 0.02-0.86-0.31-1.71-0.37-0.59-0.03-0.78-0.39-0.8-0.5-0.02-0.15-0.41-0.43-0.35 0.02 0.01 0.09 0.08 0.18 0.26 0.39 0.2 0.24 0.12 0.19 0.1 0.48-0.01 0.34 0.01 0.66 0.01 1-0.01 0.26-0.09 0.71-0.3 1.25-0.68 1.72-0.99 1.76-1.39 2.22-0.29 0.34-0.19 0.31-0.41 0.09-0.11-0.1-0.17-0.19-0.33-0.52-0.35-0.72-0.12-0.62-0.13-1.08-0.03-0.87-0.28-0.79-0.33-1.16-0.01-0.06-0.01-0.14-0.08-0.17-0.06-0.02-0.54 0-0.67-0.01-0.23-0.01-0.22 0.03-0.47 0.25-0.14 0.13-0.27 0.05-0.47 0.15-0.5 0.23-1 0.35-1.5 0.6-0.56 0.26-0.4-0.28-0.91-0.33-0.19-0.02-0.86 0.1-1.23-0.07-0.36-0.17-0.73-0.21-1.13-0.27 0.47 0.54 1.03 1.21 1.38 1.64 1.17 1.44 0.48 1.1 0.68 1.12 0.08 0.01 0.41-0.35 0.68-0.37 0.33-0.02 0.55-0.65 0.95-0.68 0.12-0.01 0.19-0.06 0.4-0.24 0.4-0.33 0.33-0.02 0.42-0.38 0.02-0.06 0.04-0.1 0.3-0.07 0.46 0.02 0.92-0.03 1.4-0.01 0.08 0 0.11 0.02 0.04 0.15-0.07 0.14-0.68 0.79-1.06 1.42-0.6 0.98-0.38 1.05-0.17 1.31 0.26 0.33 0.8 0.63 0.92 0.78 0.17 0.2 0.13 0.5 0 0.69-0.12 0.18-0.78 0.81-1.65 1.16-0.2 0.08-0.39 0.15-0.67 0.21-0.61 0.15-1.45 0.24-2.17 0.24 0.43 0.46 0.43 0.1 0.62 0.14 0.12 0.02 0.16-0.01 0.49 0.56 0.29 0.5 0.61 1.05 0.71 1.12 0.27 0.2 0.22 0.14 0.45-0.12 0.24-0.27 0.14-0.57 0.46-0.88 0.6-0.62 1.21-1.25 1.77-1.88 0.28-0.31 0.74-0.12 0.8-0.56 0.05-0.31 0.04-0.33 0.34-0.28l2.57 0.34c0.16 0.29-0.05 0.33-0.12 0.34-0.09 0.01-0.2-0.04-0.22 0.13-0.01 0.1 0.04 0.42 0 0.52-0.04 0.09-0.32 0.38-0.32 0.54s-0.09 0.31 0.02 0.46c0.16 0.04 0.29-0.29 0.48-0.3 0.35-0.01 0.42 0.04 0.72-0.23 0.1-0.08 0.14-0.1 0.32-0.12 1.01-0.04 1.99-0.13 3.09-0.05 1.78 0.1 1.65 0.3 1.83 0.42 0.42 0.26 0.41 0.57 0.3 0.77-0.08 0.16-0.47 0.54-1.11 0.94-0.48 0.3-0.75 0.36-0.82 0.51 0.03 0.07 0.12 0.01 0.17 0 0.51-0.06 1.1-0.07 1.4 0.02 0.91 0.28 1.01 0.66 1.08 0.83 0.12 0.28 0.12 0.51-0.2 0.95-0.28 0.39-1.27 1.33-1.93 1.82-0.5 0.37-0.89 0.51-1.63 0.57-0.67 0.04-1.2-0.1-1.71 0.06-0.13 0.04-0.25 0.02-0.06 0.31 0.07 0.1 0.49 0.59 0.66 0.85 0.31 0.46 0.53 1.38 0.62 2.3-0.04-0.09 0.01-0.12-0.97-0.1-0.37 0-0.56 0.04-0.87-0.25-0.31-0.28-0.28-0.23-0.38-0.07-0.06 0.1 0.06 0.3-0.15 0.34-0.22 0.03-0.93 0.01-1.02 0-0.35-0.02-0.14-0.45-0.31-0.39-0.05 0.02-0.1 0.07-0.04 0.24 0.24 0.67 0.46 1.33 0.49 2.04 0.06 1.64-0.24 1.72-0.39 1.93-0.17 0.24-0.38 0.42-0.9 0.13-0.22-0.13-0.78-0.5-1.41-1.48-0.85-1.31-0.83-2.12-0.96-2.9-0.16-0.93-0.31-1.1-0.58-1.11-0.14-0.01-0.56 0.08-0.97 0.42-0.64 0.5-0.45 0.49-0.36 0.64s0.03 0.28 0.24 0.58c0.23 0.33 0.53 0.47 0.78 0.79 0.3 0.38 0.11 0.38 0.11 0.81 0 0.52-0.1 1.06-0.01 1.58 0.06 0.36 0.34 0.06 0.37 0.23 0.01 0.06 0.06 0.1-0.23 0.22-0.26 0.1-1.16 0.14-1.69-0.02-0.48-0.14-1.04-0.54-1.52-0.84-0.73-0.46-0.81-0.27-0.9-0.12-0.03 0.04-0.09 0.18-0.12 0.3-0.05 0.19-0.11 0.82-0.11 1.3 0.01 1.87 0.16 1.67 0.31 1.83 0.17 0.19 0.17 0.16 0.46 0.05 0.2-0.06 0.79-0.38 1.03-0.44 0.53-0.12 0.95 0.16 1.06 0.5 0.09 0.29 0.05 1.99-0.87 2.96-0.86 0.9-1.2 0.83-1.11 0.88 0.61 0.17 1.29 0.08 1.79 0.25 1.2 0.4 1.86 1.69 1.25 2.38-0.23 0.26-1.25 0.82-2.78 0.62-0.34-0.04-0.67-0.13-1-0.13-0.12 0-0.16 0.05 0 0.17 0.6 0.44 1.29 1.03 1.55 1.45 0.24 0.41 0.34 0.82 0.36 1.04 0.06 0.7-0.22 1.01-0.46 1.18-0.22 0.15-0.92 0.36-1.6 0.16-0.68-0.21-1.85-1.24-2.84-3.04-0.14-0.26-0.34-0.58-0.39-0.64-0.24-0.31-0.27-0.16-0.31-0.1-0.05 0.05-0.13 0.23-0.18 0.36-0.15 0.4-0.63 1.75-0.99 2.27-0.51 0.69-0.97 0.82-1.51 0.3-0.21-0.2-0.71-0.85-0.89-1.72-0.21-0.97-0.06-1.04 0.03-1.32 0.09-0.27 0.19-0.5 0.58-1.01 0.38-0.49 0.9-0.97 1.25-1.46 0.56-0.79 0.37-0.77 0.27-0.99-0.26-0.56-0.5-0.3-0.61-0.23-0.28 0.18-0.32 0.49-0.49 0.9-0.25 0.62-0.38 0.66-0.54 0.59-0.09-0.04-0.39-0.15-0.79-1.31-0.47-1.38-0.17-3.3 0.06-3.94 0.09-0.24 0.21-0.5 0.34-0.8 0.07-0.17 0.3-0.02 0.48-0.21 0.21-0.22 0.4-0.44 0.48-0.79 0.05-0.19 0.3-0.06 0.45-0.19 0.21-0.19 0.81-0.84 0.93-0.97 0.28-0.26 0.2-0.22 0.1-0.63-0.09-0.37-0.36-0.82-0.46-0.91-0.33-0.31-0.35-0.16-0.43-0.13-0.1 0.04-0.3 0.22-0.56 0.66-0.12 0.21-0.3 0.57-0.51 1.02-0.77 1.63-0.89 1.68-1.1 1.84-0.37 0.27-0.36 0.21-0.66 0.07-0.2-0.09-0.89-0.62-1.1-1.73-0.2-1.04-0.1-1.24 0.29-1.65 0.23-0.24 0.68-0.4 0.86-0.5 0.13-0.07 0.16-0.04 0.07-0.15-0.03-0.03-0.05-0.06-0.24-0.14-0.22-0.08-0.66-0.23-1.03-0.33-0.41-0.1-0.97-0.22-1.34-0.27-1.19-0.18-1.02 0.08-1 0.2 0.01 0.12 0.35 0.6 0.81 1.33 0.25 0.39 0.41 0.86 0.45 1.04 0.12 0.58-0.11 0.99-0.48 1.16-0.16 0.07-0.51 0.21-1.15 0.22-1.26 0.02-1.14-0.35-1.43-0.37-0.2-0.02-0.45-0.27-0.47-0.54-0.03-0.35-0.23-0.08-0.56-0.39-0.35-0.31-0.43-0.17-0.44 0.04 0 0.06 0.06 0.21 0.26 0.45 0.21 0.25 0.12 0.21 0.1 0.43-0.01 0.4 0.03 0.8 0.01 1.2-0.01 0.27-0.29 0.08-0.51 0.31s-0.42 0.54-0.49 0.81c-0.05 0.18-0.3 0.4-0.31 0.5-0.02 0.19 0.06 0.43-0.06 0.55-0.1 0.09-0.36 0.27-0.58 0.38-0.36 0.17-0.79 0.25-0.91 0.26-0.73 0.01-0.86-0.38-0.99-1.29-0.06-0.41-0.1-1.51-0.07-2.32 0.02-0.45 0.03-0.7 0.06-0.89-0.05 0.27-0.14 0.02-0.57 0.39-0.18 0.15-0.37 0.02-0.58 0.25l-0.25 0.28-0.86 3.98c0.32 0.14 0.53 0.58 0.16 1.35-0.11 0.22-0.18 0.5-0.17 1.02 0.01 0.55 0.16 1.02-0.14 1.68-0.32 0.71-0.01 0.71-0.25 1-0.21 0.24-0.72 0.48-1.02 0.71-1.19 0.91-2.07 3.05-1.56 5.7 0.15 0.77 0.61 2.05 0.96 3.43 0.22 0.83 0.38 1.94 0.31 3.18-0.05 0.9-0.12 1.8-0.06 2.71 0.11 1.61 0.13 1.5-0.04 1.86-0.26 0.56-1.07 0.9-0.76 1.73 0.04 0.12 0.19 0.42 0.37 0.74 0.11 0.21 0.22 0.41 0.37 0.68s0.33 0.62 0.51 0.97 0.35 0.69 0.6 1.22c0.25 0.52 0.56 1.23 0.86 1.93 0.61 1.41 1.19 2.86 1.8 4.38 0.3 0.74 0.6 1.5 0.86 2.15s0.48 1.2 0.69 1.75 0.41 1.11 0.57 1.61c0.16 0.49 0.28 0.92 0.36 1.36 0.17 0.87 0.18 1.55 0.17 1.98-0.01 0.22-0.02 0.44-0.03 0.7-0.03 0.52-0.07 1.31-0.06 1.79 0.01 0.62 0.06 0.91 0.24 1.41 0.16 0.42 0.4 0.76 0.66 1.05 0.41 0.44 1.64 1.26 2.77 1.83 0.98 0.49 1.96 1.03 2.94 1.54 0.88 0.46 0.84 0.34 0.96 0.23 0.13-0.1 0.24-0.08 0.52-0.21 0.45-0.21 0.89-0.3 1.49-0.59 0.36-0.17 0.99-0.15 1.03-0.62 0.01-0.14 0.02-0.38 0.23-0.7 0.22-0.34-0.03-0.4 0.23-1.27 0.16-0.54 0.49-1 0.5-1.51 0.01-0.42 0.23-0.8 0.32-1.15-0.08 1.16-0.11 2.52-0.02 3.28s0.34 1.47 0.55 1.76c0.24 0.33 0.57 0.6 0.95 0.74 0.29 0.12 1.26 0.24 1.96 0.17 0.48-0.05 0.82-0.13 1.2-0.26 1.09-0.38 1.2-0.59 1.56-1.12 0.25-0.37 0.51-0.94 0.54-2.05 0.04-1.36-0.37-2.82-1.21-4.22-0.13-0.21-0.29-0.41-0.37-0.64 0-0.07 0.04-0.03 0.21 0.12 0.43 0.38 1.4 1.63 1.8 2.61 0.31 0.77 0.41 1.29 0.58 2.23 0.25 1.42 0.14 1.77 0.43 1.68 0.12-0.03 0.11-0.07 0.25-0.44 0.09-0.24 0.25-0.83 0.42-1.5 0.19-0.78 0.31-1.38 0.38-1.75 0.15-0.78 0.06-0.93 0.09-1.26 0.05-0.43 0.33-0.48 0.34-0.91 0.01-0.17 0.01-0.35 0.14-0.65 0.35-0.81 0.09-0.67 0.17-1.23 0.03-0.24 0.08-0.5 0.22-0.27 0.02 0.04 0.08 0.22 0.11 0.42 0.04 0.26 0.13 1.29 0.23 1.89 0.18 1.13 0.38 1.1 0.48 1.18 0.18 0.13 0.38 0.16 0.86-0.2 0.31-0.23 0.97-1.06 1.61-1.62 0.03-0.01 0.06-0.03 0.07 0.02-0.03 0.15-0.02 0.13-0.19 0.54-0.21 0.51-0.68 1.68-0.9 2.33-0.57 1.58-0.83 2.49-0.71 3.79 0.11 1.14 0.25 1.16 0.59 1.57 0.29 0.35 1.05 0.81 2.11 1.05 0.21 0.04 0.42 0.08 0.69 0.13 0.56 0.08 1.27 0.16 1.91 0.18 1.23 0.04 2.51-0.05 3.68 0.36 0.19 0.03 0.29 0.03 0.59 0.04 0.35 0 0.92 0.04 1.37 0.15 1.5 0.33 3.08 0.52 4.32 0.68 1.89 0.25 3.54 0.47 5.19 0.5 1.16 0.02 2.33 0.26 3.44 0.67 0.28 0.12 0.52 0.07 0.81-0.23 0.23-0.24 0.74-1.13 0.89-1.75 0.27-1.02 0.04-2.05-0.46-2.93-0.58-1-0.52-0.73-0.56-0.63-0.02 0.05 0.01 0.07-0.26 0.14-0.13 0.03-0.44 0.27-0.66 0.34-0.23 0.06-0.5 0.35-0.38 0.26s0.29-0.57 0.47-0.78c0.27-0.33 0.74-0.44 0.82-0.94 0.04-0.29 0.03-0.34 0.17-0.25 0.05 0.03 0.18 0.17 0.35 0.43 0.11 0.18 0.28 0.51 0.51 0.9 0.91 1.62 1.11 1.3 1.26 1.21 0.18-0.1 0.26-0.17 0.55-0.89 0.14-0.37 0.32-0.89 0.48-1.35 0.25-0.72 0.56-1.48 0.87-1.96 0.44-0.67 1.06-1.18 1.23-1.24 0.05-0.02 0.13-0.04 0.13 0.03-0.36 0.85-1.1 1.36-1.56 2.7-0.25 0.74-0.42 1.73-0.4 2.8 0.02 0.81 0.12 1.34 0.18 1.46 0.07 0.13 0.19-0.05 0.24-0.24 0.22-0.69 0.33-1.42 1.23-2.65 0.64-0.87 1-1.12 1.1-1.19 0.08-0.04 0.25-0.21 0.22 0.09 0 0.03-0.07 0.28-0.16 0.52-0.29 0.82-0.72 1.57-0.98 2.39-0.11 0.33-0.19 0.64-0.21 0.76-0.06 0.4 0.09 0.42 0.43 0.22 0.72-0.43 0.59-0.21 0.62-0.09 0.01 0.02 0.03 0.15 0.04 0.26 0.03 0.34 0.08 1.3 0.28 1.74 0.24 0.52 0.49 0.87 1.36 1.34 0.4 0.21 0.99 0.44 1.85 0.67 1.71 0.48 3.21 0.64 5.13 1.08 0.63 0.15 1.24 0.35 1.87 0.47 1.57 0.3 2.94 1 4.45 1.75 0.81 0.47 1.52 0.97 2.61 1.35 0.73 0.26 1.74 0.63 2.38 0.91 0.79 0.36 1.19 0.61 1.83 1.04 0.69 0.46 0.89 0.28 1.16 0.4 0.21 0.08 0.19 0.34 0.87 0.34 0.29 0 0.68 0.07 0.92 0.16 0.28 0.09 0.48 0.18 0.97 0.19 0.61 0.01 1.33-0.04 1.69 0.07 0.57 0.18 1.11 0.24 1.7 0.23 0.14-0.01 0.27 0.04 0.33 0.26 0.06 0.06 0.16-0.29 0.24 0.03 0.03 0.12 0.02 0.46 0 0.77-0.03 0.49-0.12 1.21-0.27 2.01h-225.07c-0.43-0.37-0.47-0.99-0.4-1.25 0.05-0.17 0.13-0.48 0.77-1.03 0.28-0.23 0.47-0.37 0.9-0.61 0.24-0.13 0.58-0.3 0.92-0.46s0.7-0.3 1.19-0.47 1.1-0.38 1.73-0.56c0.63-0.19 1.25-0.36 2.16-0.59 0.9-0.23 2.09-0.51 3.28-0.8 2.38-0.56 4.74-1.05 7.08-1.57 1.17-0.26 2.34-0.54 3.23-0.74 0.89-0.21 1.51-0.38 2.13-0.54 1.21-0.33 2.5-0.69 3.89-1.09 0.68-0.19 1.36-0.38 1.83-0.5 0.47-0.13 0.73-0.19 0.98-0.24 1.58-0.35 3.05-0.27 4.3 0.04 0.2 0.05 0.39 0.1 0.65 0.17 1.17 0.3 2.77 0.62 4.42 0.52 0.45-0.02 0.92-0.07 1.4-0.14 0.48-0.06 0.94-0.14 1.59-0.26 0.64-0.13 1.44-0.28 2.24-0.47 2.88-0.65 5.73-1.56 8.62-2.15 0.63-0.13 1.24-0.24 1.7-0.31s0.75-0.1 1.03-0.13c1.86-0.13 1.52 0.15 1.54 0.24 0.01 0.04 0.05 0.07 0.13 0.08 0.03 0 0.23-0.01 0.42-0.02 0.25 0 0.68 0.23 0.71-0.08 0.02-0.18-0.01-0.19 0.32-0.62 0.25-0.33 0.34-0.76 0.34-1.05 0.14 0.35 0.34 0.48 0.31 0.73-0.04 0.3 0.05 0.35 0.23 0.6 0.04 0.05 0.07 0.12 0.09 0.18 0-0.38 0.01-0.76 0-1.13-0.01-0.51-0.03-1.01-0.01-1.14 0.06-0.41 0.38-0.56 0.36-1-0.02-0.54 0.1-1.21-0.04-1.54-0.06-0.15-0.42-0.62-0.05-0.36 0.16 0.12 0.06 0.31 0.26 0.34 0.14 0.02 0.11 0.2 0.29 0.36 0.05 0.05 0.11 0.14 0.16 0.39 0.03 0.16 0.08 0.82 0.12 1.22 0.13 1.49 0.27 1.23 0.4 1.27 0.16 0.06 0.4 0.01 0.68-0.48 0.16-0.27 0.37-1.24 0.4-1.78 0.04-0.55-0.09-1.07 0.03-1.64 0.03-0.15 0.31-0.62 0.32-1.01 0.02-0.43-0.15-0.86-0.02-1.27 0.05-0.17 0.28-0.07 0.33-0.22-0.04 1.78 0.03 3.57-0.02 5.35-0.01 0.25 0.29 0.13 0.34 0.24 0.04 0.08-0.09 0.59 0.08 0.6 0.08 0.01 0.17-0.02 0.24 0.06v-3.74c0-0.57 0.1-0.78 0.29-1.63 0.16-0.68 0.5-2.09 0.66-2.69 0.13-0.49 0.07-0.45 0.19-0.62 0.02-0.01 0.01 0.01 0.01 0.01-0.01 1.29-0.34 2.69-0.39 3.88-0.02 0.49-0.02 0.91 0 1.33 0.12 2.53 0.31 2.33 0.44 2.47 0.06 0.07 0.1 0.09 0.21-0.01 0.03-0.03 0.21-0.39 0.3-0.61 0.07-0.17 0.23-0.56 0.26-0.15 0.02 0.17 0.01 1.11-0.01 1.77-0.01 0.4 0.05 0.8-0.01 1.19-0.02 0.1-0.27 0.01-0.33 0.15-0.03 0.06 0 0.43 0 0.69 0.11-0.2 0.27-0.09 0.56-0.33 0.09-0.07 0.24-0.08 0.34-0.22 0.02-0.03 0.1-0.17 0.16-0.33 0.09-0.21 0.21-0.61 0.33-1.1 0.39-1.66 0.25-1.83 0.17-2.23-0.12-0.6-0.36-0.81-0.74-1.01-0.21-0.1-0.79-0.22-1.31-0.31 0.47 0.01 1.04 0.01 1.39 0.01 0.44 0 0.61 0.2 0.74-0.24 0.06-0.21 0.33 0.01 0.34-0.36 0-0.13-0.05-0.55-0.04-0.63 0.02-0.15 0.36-0.36 0.35-0.62s-0.06-0.51-0.02-0.78c0.02-0.1 0.3-0.02 0.32-0.17 0.01-0.13 0.07-0.2 0.25-0.25 0.14-0.04 0.06-0.3 0.17-0.33 0.15-0.02 0.26-0.06 0.49-0.26 0.45-0.38 0.31-0.09 0.29-0.02-0.11 0.47-0.8 1.02-1.03 1.95-0.17 0.65-0.18 1.36 0.01 1.86 0.24 0.6 0.36 0.66 0.4 1.1 0.02 0.26 0 0.64-0.05 0.95-0.12 0.84-0.2 1.7-0.07 2.55 0.16 1.03 0.31 0.99 0.36 1.01 0.04 0.01 0.13 0.02 0.21 0.01 0.38-0.01 0.85-0.02 1.12-0.02 0.4 0 0.52-0.05 0.86-0.01 0.39 0.04 0.52 0.31 0.8 0.36 0.07 0.01 0.01 0.15 0.05 0.52 0.05 0.13 0.35-0.18 0.67-0.31 0.2-0.09 0.6-0.23 1.07-0.39 0.28-0.08 0.56-0.17 0.96-0.27 0.41-0.1 0.95-0.24 1.49-0.37 0.55-0.13 1.08-0.24 2.19-0.46 1.1-0.22 2.76-0.54 4.42-0.83s3.33-0.57 4.63-0.77 2.23-0.34 3.16-0.47c3.87-0.54 7.11-0.86 9.52-0.9 0.61-0.01 1.21-0.01 1.89 0.03 1.52 0.07 3.25 0.42 4.8 0.83 0.92 0.24 2.18 0.21 2.88-0.35 0.56-0.44 0.88-1.02 1.4-2.09 0.34-0.7 0.84-1.66 1.11-1.92 0.17-0.16 0.33-0.26 0.7-0.49 0.74-0.47 0.79-0.62 1-1.19 0.17-0.45 0.35-1.11 0.46-2.06 0.08-0.69 0.12-1.34 0.08-1.95-0.03-0.54-0.11-0.98-0.18-1.2-0.12-0.38-0.33-0.73-0.91-1.44-0.42-0.5-0.8-1.15-1.02-1.74-0.15-0.4-0.34-1-0.55-1.84-0.1-0.41-0.19-0.82-0.3-1.56-0.23-1.5-0.36-4.31-0.27-5.88 0.05-0.79 0.1-1.26 0.18-1.74 0.14-0.83 0.31-1.51 0.44-1.86 0.29-0.73 0.96-1.33 1.1-1.44 0.07-0.05-0.09 0.01-0.32-0.23s-0.44-0.43-0.5-0.81c-0.09-0.59-0.45-1.14-0.63-1.75-0.24-0.8-0.62-1.78-0.63-2.28-0.02-0.79-0.2-1.3-0.49-1.61-0.38-0.4-0.22-0.33-0.12-0.48 0.23-0.36 0.58-0.57 0.68-0.88 0.06-0.2 0.13-0.49 0-1.18-0.06-0.35-0.25-1.01-0.52-1.73-0.26-0.68-0.54-1.29-0.66-1.5-0.19-0.34-0.29-0.45-0.48-0.57-0.1-0.09-0.03-0.26-0.1-0.29-0.08-0.04-0.56 0.09-0.58-0.07-0.02-0.17-0.02-0.25-0.25-0.54-0.3-0.38-0.45-0.77-0.73-1.12-0.25-0.47-0.59-0.92-1.13-1.47-0.14-0.15-0.11-0.41-0.36-0.61-0.15-0.12-0.83-0.48-1.26-0.71-1.05-0.58-2.11-1.34-3.17-1.57-1.13-0.25-1.14-0.16-1.43-0.48-0.35-0.39-0.37-0.93-0.49-1.41-0.27-0.92-0.68-1.98-0.71-2.26-0.05-0.47 0.06-0.34 0.15-0.24 0.07 0.06 0.05 0.3 0.12 0.34 0.08 0.04 0.82 0.13 0.76-0.07-0.25-0.42-0.61-0.63-0.98-0.95-1.06-0.93-2.22-1.85-3.08-2.93-0.29-0.36-0.52-0.7-0.6-0.85-0.03-0.05-0.06-0.12-0.09-0.17-0.03 0.97 0.01 1.91-0.02 2.38-0.09 1.1-0.61 1.72-1.32 1.68-0.19-0.01-0.72-0.16-1.16-0.39-0.28-0.15-0.56-0.35-0.85-0.42-0.07 0 0.09 0.14 0.23 0.27 0.87 0.87 1.72 1.86 2.03 2.57 0.25 0.57 0.3 1.05 0.31 1.77 0.02 1.44 0.14 1.27 0.41 1.34 0.22 0.06 1.14-0.07 2.03 0.03 0.41 0.04 1.31 0.29 2.13 1.08 0.97 0.93 0.91 1.23 0.96 1.43 0.19 0.73-0.24 1.08-0.65 1.21-0.17 0.05-0.73 0.09-1.2 0.03-0.31-0.04-0.63-0.16-0.93-0.12-0.07 0.04 0.17 0.15 0.25 0.19 0.34 0.18 1.46 0.71 1.91 1.15 0.49 0.48 0.73 1 0.8 1.93 0.07 0.92-0.11 1.01-0.49 1.18-0.27 0.13-0.85 0.12-0.74 0.34 0.05 0.08 0.45 0.18 0.52 0.22 0.33 0.2 0.34 0.64 0.67 0.99 0.25 0.26 0.57 0.43 0.9 0.65-0.41 0.02-0.78 0.41-1.28 0.35-0.37-0.04-0.67 0.14-0.88 0.3-0.14 0.1-0.26 0-0.75 0.02-0.11 0-0.12 0.01-0.18 0.19-0.02 0.06-0.06 0.25-0.07 0.43-0.03 0.41-0.03 0.83-0.09 1.24-0.13 0.91-0.32 0.98-0.57 0.94-0.12-0.01-0.51-0.04-1.15-1.01-0.62-0.93-0.71-2.1-0.78-3.19-0.05-0.69-0.32-0.61-0.57-0.5-0.16 0.07-0.65 0.39-0.77 0.45-0.25 0.14-0.38 0.17-0.44-0.04-0.02-0.06-0.03-0.22-0.02-0.44 0.01-0.24 0.04-0.66 0.04-0.95 0-0.44-0.04-0.81-0.19-1.26-0.45-1.29-0.78-1.24-0.88-1.25-0.13-0.02-0.27 0.04-0.27 0.55-0.01 0.23-0.01 0.38 0.02 0.71 0.02 0.38 0.07 1.04 0.09 1.47 0.03 0.61 0.06 1.04-0.09 1.66-0.23 0.98-0.71 1.41-1.1 1.91-0.39 0.51-0.92 1.24-1.17 1.44-0.29 0.23-0.43 0.22-0.6 0-0.04-0.05-0.12-0.2-0.18-0.36-0.11-0.29-0.3-1.34-0.35-2.02-0.1-1.33 0.2-1.79 0.5-2.13-0.38 0.38-0.77 0.71-1.37 1.07-0.84 0.49-1.13 0.49-1.51 0.55-0.52 0.07-1.28-0.01-1.44-0.05-0.55-0.16-0.29-0.41-0.3-1.06 0-0.19-0.03-0.37-0.01-0.56-0.59 0.63-1.24 1.03-1.67 1.18-1.98 0.65-2.71-1.07-2.65-1.8 0.03-0.33 0.19-0.66 0.29-1.1 0.04-0.18 0.04-0.24-0.08-0.26-0.05-0.01-0.2 0.02-0.44 0.03-0.46 0.03-0.54-0.1-0.59-0.4-0.04-0.23 0.12-1.33 0.7-1.98 0.44-0.5 0.86-0.91 0.89-1.01 0.08-0.18 0.14-0.33-0.39-0.66-0.12-0.07-0.32-0.18-0.59-0.28-1.06-0.39-0.89-0.14-0.9-0.08-0.03 0.15 0.32 0.69 0.43 1.06 0.2 0.66-0.1 1.74-0.49 2.12-0.29 0.27-0.58 0.4-1.17 0.34-0.39-0.04-1.38-0.5-1.9-0.94-0.28-0.23-0.52-0.57-0.81-0.73-0.03-0.01-0.01 0.02 0.03 0.08 0.23 0.39 0.46 0.74 0.77 1.29 0.93 1.63 0.66 1.4 0.61 1.55-0.04 0.12-0.16 0.05-0.53 0.19-0.19 0.07 0.13 0.2 0.2 0.55 0.05 0.22 0.31 0.45 0.32 0.55 0.01 0.14-0.06 0.73 0.04 0.92 0.2 0.35 0.28 0.49 0.27 0.65-0.01 0.14-0.02 0.28 0.07 0.34-0.44 0-0.93 0.1-1.19-0.17-0.11-0.12-0.17-0.19-0.48-0.19-0.47 0.01-0.8 0.13-1.2-0.23-0.17-0.16-0.38-0.08-0.53-0.22-0.13-0.12-0.65-0.51-0.89-0.55-0.25-0.03-0.27-0.04-0.51-0.26-0.27-0.24-0.5-0.13-0.65-0.1-0.09 0.01-0.11-0.04-0.11 0.17 0 0.24-0.07 0.38 0.25 0.78 0.14 0.17 0.1 0.29 0.1 0.69 0.01 0.78 0.05 1.57-0.04 2.34-0.12 1.04-0.35 1.03-0.61 0.86-0.09-0.06-0.29-0.25-0.66-0.65-0.69-0.76-0.87-0.97-1.26-1.14-0.66-0.31-0.55-0.17-0.91 0.01-0.72 0.34-1.24 1.3-2.04 1.88-0.77 0.56-0.82 0.38-0.99 0.22-0.14-0.13-0.27-0.29-0.02-1.13 0.1-0.34 0.24-0.67 0.3-1.01 0.06-0.33-0.03-0.29-0.12-0.29-0.36 0-0.68-0.01-0.96 0.26-0.13 0.12-0.17 0.14-0.46 0.12-0.3-0.01-0.61-0.09-0.9 0.01-0.05-0.44-0.09-0.94 0.15-1.21 0.15-0.17 0.19-0.4 0.17-1.03-0.01-0.31-0.29-0.29 0.36-0.6 0.32-0.16 1.32-0.37 2.05-0.74 0.24-0.13 0.44-0.18 0.12-0.34-0.08-0.04-0.42-0.12-0.64-0.15-0.29-0.03-0.38 0.19-0.78-0.23-0.26-0.26-0.71-0.46-0.84-0.48-0.33-0.04-0.45-0.2-0.76-0.52-0.59-0.61-0.54-0.39-0.42-0.6 0.12-0.19 0.2-0.28 0.49-0.5 0.26-0.2 0.37-0.07 0.65-0.33 0.45-0.4 0.62-0.05 1.01-0.16 0.48-0.12 0.49-0.25 0.52-0.49 0.03-0.2-0.14-0.87-0.23-1.31-0.22-1.06-0.14-1.07 0.07-1.38 0.12-0.18 0.42-0.51 1.24-0.7 0.23-0.05 0.55-0.09 1.04-0.12 0.34-0.01 0.66-0.01 0.75-0.02 0.06 0 0.16-0.02 0.05-0.07-1.02-0.39-2.18-0.81-2.65-1.28-0.4-0.4-0.53-0.68-0.67-1.46-0.18-1-0.19-1.08-0.38-1.05-0.06 0.01-0.34 0.15-0.48 0.25-0.43 0.28-0.9 0.54-1.38 0.73-0.55 0.23-1.03 0.4-1.24 0.45-0.86 0.23-0.51-0.15-1.01 0.3-0.24 0.21-0.41 0.01-0.73 0.44-0.38 0.57-0.55 0.35-0.65 0.34-0.16-0.02-0.32-0.03-0.34 0.21-0.02-0.8 0.59-1.08 0.99-2.3 0.22-0.67 0.51-1.37 0.8-1.95 0.29-0.6 0.26-0.56 0.03-0.78-0.2-0.2-0.97-0.64-1.44-1-0.24-0.18-0.31-0.25-0.26 0.04 0.02 0.09 0.14 0.69 0.16 1.02 0.07 0.78-0.15 1.42-0.73 2.04-0.31 0.34-1.24 1.16-1.5 1.65-0.19 0.34-0.25 0.64-0.26 1.02-0.01 0.34 0.27 1.12 0.32 1.89 0.01 0.14-0.06 0.07-0.29 0.21-0.06 0.03 0.03 0.14-0.03 0.55-0.02 0.13-0.1 0.02-0.29 0.15-0.07 0.04-0.02 0.28-0.17 0.3-0.09 0.01-0.15 0.05-0.21 0.27-0.07 0.28-0.59 0.09-0.62 0.03-0.12-0.22-0.1-0.6-0.52-0.64-0.23-0.02-0.09-0.2-0.18-0.34-0.41-0.67-0.47-1.29-0.76-2.01-0.31-0.78-0.51-0.74-0.71-0.48-0.17 0.22-0.87 1.63-1.41 2.13-0.33 0.3-0.63 0.44-1.02 0.56-0.18 0.05-0.45 0.09-0.83 0.13-0.29 0.03-0.56 0.03-0.65 0.05-0.47 0.06-0.39 0.28-0.62 0.31-0.07 0.01-0.09 0.02-0.08 0.33 0.01 0.3 0.07 0.61 0.02 0.91-0.02 0.14-0.22-0.07-0.34 0.18-0.02 0.04 0 0.26 0 0.61 0 0.51-0.02 1.03 0 1.53 0.02 0.42 0.06 0.38-0.12 0.38-0.14 0-0.84-0.29-1.3-0.39-1.05-0.21-1.19 0.16-1.4 0.5-0.17 0.27-0.41 1.19-0.67 2.46-0.01 0.03-0.01 0.06-0.03 0.09-0.02 0.01-0.01-0.01-0.01-0.01-0.04-0.17-0.27-0.42-0.33-0.76-0.05-0.27-0.3-0.2-0.66-1.15-0.15-0.4-0.27-0.91-0.28-1.09-0.02-0.41-0.01-0.54-0.11-0.76-0.08-0.19-0.42-0.93-0.52-1.34-0.11-0.44-0.13-0.56 0.09-0.99 0.31-0.6 0.55-1.16 0.12-1.32-0.19-0.06-1.14-0.04-1.64 0.34-0.36 0.27-0.57 0.68-1.07 1.29-0.4 0.48-0.4 0.19-0.8 0.2-0.46 0-0.92 0.08-1.38 0.01-0.5-0.08-0.36-0.4-0.83-0.36-0.09 0.01-0.18 0.06-0.26-0.01-0.04-0.17 0.28-0.3 0.29-0.5 0-0.09-0.01-0.23-0.01-0.34 0-0.25 0.04-1.23 0.01-2-0.01-0.22-0.02-0.12-0.17 0.07-0.12 0.15-0.62 1.05-0.79 1.54-0.3 0.84-0.28 0.86 0 1.84 0.2 0.7 0.23 1.45-0.2 2.79-0.06 0.21-0.01 0.44-0.16 0.64-0.06 0.07-0.28 0.02-0.3 0.2-0.03 0.22-0.29 0.59-0.32 0.77-0.02 0.08-0.33-0.09-0.36 0.24 0 0.02 0 0.07 0.01 0.13l-1.26-2.99c0.07 0.16 0.01 0.28-0.23 0.58-0.2 0.25-0.08 0.38-0.32 0.68-0.2 0.25-0.08 0.38-0.33 0.67-0.26 0.31-0.02 0.27-0.08 0.65-0.02 0.13-0.1 0.02-0.29 0.15-0.08 0.05-0.04 0.29-0.2 0.31-0.21 0.03-0.56 0.3-0.73 0.34-0.09 0.02 0.06 0.25-0.3 0.36-0.13 0.04-0.28 0.26-0.42 0.16-0.02-0.02-0.08-0.09-0.12-0.15-0.05-0.08-0.24-0.59-0.33-1-0.07-0.34-0.12-0.81-0.11-1.1 0.02-0.54 0.16-0.7 0.37-1.35 0.2-0.69-0.54-1.52-0.76-1.53-0.09 0-0.18 0.03-0.29 0.12-0.14 0.1-0.74 0.67-0.99 0.82-0.57 0.34-1.02 0.08-1.07-0.38-0.01-0.14 0.03-0.45 0.2-0.83 0.15-0.37 0.48-0.98 1.32-2.21 0.22-0.33 0.45-0.65 0.83-1.15s0.89-1.2 1.43-1.89c0.53-0.68 1.07-1.36 1.78-2.22s1.57-1.91 2.45-2.96c0.87-1.05 1.76-2.09 2.64-3.12-0.85 0.84-1.52 1.52-2.57 2.53-1.06 1.03-2.79 2.64-3.83 3.56-0.51 0.45-0.82 0.71-1.13 0.97-1.26 1.04-2.44 1.79-2.9 1.97-0.6 0.23-0.91 0.19-1.31 0.04-0.55-0.19-1.09-0.41-1.64-0.58-0.23-0.07-0.38-0.17-0.5-0.12-0.05 0.14 0.12 0.15 0.28 0.28 0.69 0.57 1.04 1.18 1.09 1.41 0.08 0.38-0.07 0.58-0.37 0.63-0.24 0.04-1.13-0.08-2.14-0.99-0.84-0.74-1.35-1.44-1.43-1.5-0.01-0.01-0.04-0.04-0.03 0.01 0.21 0.62 0.48 1.46 0.27 2.16-0.22 0.72-0.78 1.49-1.77 2.04-1.21 0.66-1.25 0.44-1.43 0.4-0.55-0.13-0.5-0.38-0.53-0.97-0.01-0.25 0.18-0.8-0.02-1.38-0.07-0.21-0.23-0.03-0.26-0.27-0.02-0.16 0.02-0.74-0.25-0.56-0.16 0.1-0.01 0.25-0.29 0.59-0.29 0.35-0.09 0.18-0.09 0.8 0 0.34 0.1 0.86-0.1 0.9-0.05 0.01-0.12 0.02-0.32-0.02-0.19-0.04-0.55-0.16-0.79-0.27-1.38-0.65-1.67-2.02-1.6-3.89 0.05-0.85-0.27-1.1-0.58-1.14-0.23-0.03-0.96 0.12-2.02 0.3-0.92 0.17-0.74 0.02-1.09-0.41-0.23-0.28-0.28-0.2-0.64-0.22-0.32-0.02-0.35 0.19-0.27-0.86 0.05-0.6 0.07-0.57 0.42-0.89 0.38-0.36 1.1-0.78 1.49-1.07 0.82-0.6 0.7-0.69 0.71-0.74 0.02-0.16-0.13-0.08-0.3-0.2-0.08-0.05-0.04-0.29-0.2-0.31-0.23-0.03-0.46-0.21-0.49-0.52-0.02-0.19-0.21-0.13-0.45-0.34-0.19-0.16-0.67-0.71-0.86-1.16-0.15-0.33-0.21-0.71-0.21-0.92 0.02-0.81 0.64-1.22 1.05-1.2 0.19 0.01 0.61 0.14 1.17 0.48 0.4 0.24 1.08 0.91 1.94 1.36 0.15 0.08 0.28 0.14 0.27 0.04-0.01-0.14-0.45-0.48-0.68-0.85-0.16-0.3-0.31-0.6-0.56-0.9-0.17-0.2-0.56-0.81-0.67-1.28-0.08-0.35-0.06-0.38 0.3-0.47 0.63-0.17 1.15-0.07 1.54 0 0.36 0.07 0.55 0.22 1.17 0.66 0.89 0.64 2.03 0.97 3.04 1.51 0.5 0.26 0.68 0.63 0.93 0.83 0.1 0.03 0.06-0.22 0.06-0.34 0-0.69-0.34-1.19-0.35-1.55-0.01-0.25 0.08-0.91 0.23-1.25 0.25-0.57 0.07-0.89 0.59-0.89 0.32 0 0.7-0.05 0.9 0.12 0.19 0.15 0.77 0.51 1.02 0.74 0.29 0.27 0.76 0.38 0.96 0.83 0.19 0.41 0.45 0.67 0.66 0.69 0.17 0.02-0.02 0.35 0.28 0.38 0.03 0 0.11 0 0.18-0.04v-4.74c-0.15-0.07-0.27-0.01-0.56 0.24-0.31 0.27-0.1-0.08-0.75 0.25-0.38 0.2-0.7 0.6-1.08 0.79-0.44 0.21-1.84 0.57-2.73 1.09-0.47 0.27-0.76 0.36-0.91 0.36-0.15-0.01-0.79 0.01-0.86 0.01-0.13 0-0.03-0.13-0.18-0.31-0.14-0.17-0.37-0.08-0.67-0.3-0.63-0.46-0.49-0.51-0.45-0.76 0.01-0.08 0.07-0.31 0.51-0.66 0.3-0.23 0.65-0.4 0.87-0.73 0.21-0.3-0.02-0.34 0.08-0.61 0.04-0.09 0.31-0.4 0.33-0.49 0.07-0.35-0.29 0.08-0.56 0.13-0.15 0.03-0.4 0.26-0.68 0.34-0.24 0.06 0.03 0.58-0.46 0.66-0.31 0.05-0.41 0.37-0.58 0.21-0.11-0.1-0.18-0.46-0.21-0.65-0.15-0.84-0.26-1.8-0.01-2.6 0.07-0.23 0.21-0.56 0.44-1.02 0.34-0.68 0.67-1.25 0.79-1.51 0.14-0.31 0.12-0.28-0.02-0.24-0.02 0.01-0.14 0.06-0.28 0.16-0.27 0.18-0.72 0.47-0.96 0.59-0.65 0.3-0.74 0.27-1.12 0.19-0.58-0.12-0.62-0.26-0.75-0.61-0.1-0.27-0.23-1.25 0.68-2.22 0.54-0.59 1.26-0.62 2.04-1.07 0.08-0.04 0.2-0.06-0.03-0.18-0.06-0.03-0.26-0.1-0.44-0.16-0.42-0.12-0.86-0.2-1.26-0.37-0.49-0.2-0.54-0.34-0.71-0.58-0.21-0.3-0.06-0.74-0.57-0.78-0.29-0.02-0.63-0.4-1.03-0.9-0.09-0.12 0.17-0.09 0.47-0.36 0.18-0.15 0.38-0.08 0.53-0.22 0.13-0.12 0.65-0.51 0.89-0.55 0.25-0.03 0.27-0.04 0.51-0.26 0.31-0.28 0.5-0.13 0.75-0.15 0.92-0.06 1.65 0.04 2.03 0.29 0.43 0.29 0.95 0.87 1.17 0.94 0.3 0.09 0.77-0.06 0.83-0.9 0.02-0.31-0.24-1.42-0.33-1.89-0.11-0.54-0.06-0.81 0.29-0.99 0.09-0.04 0.5-0.16 0.82-0.19 1.3-0.21 2.46-0.38 3.62-0.29 0.54 0.03 2.12 0.62 3.11 1.18 0.86 0.48 0.75 0.69 0.93 0.52 0.09-0.08 0.03-0.31 0.2-0.34 0.24-0.03 0.31-0.2 0.73-0.59 0.17-0.16 0.62-0.35 1.03-0.58 0.88-0.47 0.77-0.72 0.95-0.51 0.06 0.12 0 0.18 0.28 0.6 0.21 0.31 0.11 0.82 0.08 1.15-0.03 0.41-0.18 0.81-0.25 1.23-0.08 0.5 0.16 0.61 0.25 0.15 0.03-0.17 0.3-0.06 0.45-0.2 0.2-0.18 0.83-0.85 1.63-1.76 0.26-0.29 0.43-0.13 0.73-0.4s0.29-0.18 0.38-0.07c0.05 0.1 0 0.25 0.26 0.57 0.19 0.24 0.12 0.39 0.32 0.67 0.15 0.2 0.12 0.28 0.12 0.78 0 0.4-0.1 0.8-0.26 1.2-0.06 0.15-0.13 0.42-0.1 0.78 0.01-0.33 0.28-0.83 0.58-1.24 0.25-0.33 0.27-0.66 0.73-0.92 0.27-0.15 0.58-0.43 0.79-0.65 0.27-0.26 1.08-0.87 1.77-0.88 0.4 0 0.91 0.04 1.11-0.03 0.72-0.23 0.54-0.49 0.53-0.56-0.08-0.31-0.48-0.48-0.68-0.81-0.16-0.33-0.25-0.45-0.66-1.04-0.31-0.44-0.31-0.91-0.31-1.05-0.01-0.16-0.02-0.26 0.17-0.26 0.6 0.02 1.19-0.03 1.78 0 0.78 0.04 0.83 0.43 1.28 0.36 0.14-0.02 0.28-0.01 0.39 0.07-0.44-0.46-0.93-0.88-1.19-1.43-0.12-0.28-0.37-0.52-0.43-0.64-0.07-0.15-0.03-0.63-0.17-0.83-0.06-0.08-0.22-0.26-0.22-0.39-0.01-0.59-0.02-1.11 0.41-1.18 0.26-0.04 0.25-0.03 0.49-0.25 0.23-0.21 0.18-0.13 0.46-0.1 0.47 0.01 0.93-0.12 1.4 0.01 0.13 0.03 0.53 0.42 1.2 0.98 0.35 0.27 0.35 0.13 0.38 0.07 0.04-0.06-0.03-0.5-0.04-1.14-0.01-1.02 0.15-1.06 0.44-1.31 0.22-0.19 0.48-0.38 1.51-0.52 0.34-0.05 0.67-0.06 1-0.09-0.55 0-1.18 0.23-1.61-0.17-0.4-0.37-0.88-0.09-1.18-0.21-0.7-0.33-1.23-0.29-1.24-0.42-0.01-0.07 0.02-0.43 0.01-0.55-0.03-0.36-0.01-0.27 0.06-0.31 0.06-0.03 0.5-0.03 0.59-0.07 0.2-0.09 0.57-0.43 1.28-0.82 0.55-0.29 1.13-0.05 1.29-0.49l-1.28-4.74c0 0.47 0.16 0.98-0.04 1.42-0.2 0.45-0.29 0.9-0.27 1.38 0.01 0.34 0.03 0.22-0.49 0.77-0.21 0.22-0.48 0.13-0.49 0.28-0.01 0.1-0.04 0.18-0.22 0.23-0.14 0.03-0.25 0.22-0.46 0.14-0.18-0.06-0.76-0.72-1.45-1.37-0.13-0.12-0.24-0.19-0.13 0.09 0.12 0.28 0.45 0.65 0.62 1.46 0.05 0.22 0.04 0.37-0.17 0.38-0.11 0-0.66-0.15-0.71-0.15-0.13 0-0.19-0.02 0 0.39 0.11 0.24 0.48 0.92 0.64 1.36 0.07 0.2 0.15 0.44 0.18 0.85 0.08 1.19-0.15 1.29-0.4 1.61-0.34 0.43-0.35 0.4-0.78 0.29-0.56-0.14-1.42-0.87-1.75-2.13-0.21-0.82-0.15-1.04-0.21-1.14-0.01 0 0 0 0 0 0 0.64-0.01 1.29-0.02 1.93-0.01 0.55 0.35 0.64 0.36 0.84 0 0.18 0.01 0.76-0.01 0.79-0.02 0.06-0.07 0.08-0.41 0.05-0.29-0.03-0.2 0-0.48 0.25-0.15 0.14-0.16 0.12-0.28 0.1-0.09-0.01-0.53-0.13-0.82-0.22-0.79-0.25-1.57-0.62-2.38-0.67-0.14-0.01-0.26-0.03-0.14 0.12 0.03 0.03 0.18 0.17 0.39 0.31 0.24 0.17 0.67 0.44 0.98 0.64 0.64 0.39 1.13 0.78 1.39 1.13 0.37 0.51 0.87 2.2 0.65 3.71-0.17 1.1-0.39 1.59-0.51 2.25-0.03 0.16-0.1 0.05-0.31 0.21-0.12 0.09 0.01 0.3-0.45 0.73-0.44 0.41-0.18 0.81-0.5 0.61-0.13-0.08-0.07-0.13-0.06-0.34 0.01-0.34 0.12-0.67 0-1-0.03-0.08-0.28-0.34-0.31-0.43-0.04-0.14 0.03-0.54-0.06-0.45-0.29 0.23-0.42 0.71-0.77 1.03-0.47 0.43-0.45 0.3-0.69 0.18-0.19-0.09-0.41-0.22-0.71-1.07-0.26-0.74-0.21-1.59-0.16-2.26 0.06-0.82-0.04-0.88-0.26-0.9-0.1-0.01-0.5 0.14-1.02 0.23-0.35 0.06-0.39 0.05-0.33-0.34 0.02-0.14 0.13-0.57 0.19-0.88 0.12-0.67 0.07-1.23-0.16-1.78-0.34-0.84-0.43-0.48-0.47-0.43-0.02 0.03-0.09 0.25-0.11 0.35-0.19 1.13-0.2 2.48-0.4 3.12-0.2 0.63-0.65 1.15-1.53 1.98-1.1 1.03-1.08 0.88-1.31 0.67-0.08-0.07-0.13-0.15-0.2-0.42-0.08-0.28-0.11-1.56-0.01-2.16 0.07-0.39 0.16-0.61 0.34-0.87-0.89 0.56-2.13 0.71-2.92 0.51-0.76-0.19-0.74-0.33-0.72-0.48 0.01-0.12-0.01-0.49 0.01-0.64 0.01-0.04 0.02-0.09 0.04-0.14-0.72 0.44-1.6 0.62-2.11 0.4-0.38-0.17-1.02-0.99-1.01-1.62 0.01-0.28 0.11-0.51 0.23-0.86 0.26-0.72 0.28-0.51-0.08-1.11-0.14-0.23-0.52-0.83-0.58-1.18-0.14-0.78 0.11-1.54 1.09-2.11 0.27-0.15 0.57-0.36 0.64-0.41 0.39-0.33 0.17-0.35 0.11-0.43-0.14-0.2-0.25-0.27-0.73-0.47-1.08-0.46-0.86-0.2-0.86-0.12s0.38 1.19-0.13 2.01c-0.42 0.68-0.81 0.7-0.93 0.71-0.14 0.01-0.3-0.02-0.52-0.12-0.29-0.13-1.07-0.8-1.54-1.31-0.98-1.09-0.97-1.43-1-2.08-0.01-0.31 0.12-0.93 0.56-1.99 0.58-1.4 0.41-1.21 0.23-1.35-0.06-0.05-0.14-0.08-0.29-0.1-0.08-0.01-0.27 0-0.48 0.03-0.28 0.04-0.76 0.18-1.31 0.43-0.3 0.14-0.6 0.3-0.84 0.45-0.64 0.41-1.04 0.86-1.5 1.28-0.82 0.73-1.02 0.87-1.92 0.56-0.8-0.27-1.36-1.05-1.48-1.62-0.03-0.13-0.05-0.3-0.06-0.58-0.04-1.04-0.06-0.89-0.36-0.84-0.08 0.01-0.49 0.15-0.77 0.25-0.7 0.22-1.66 0.31-1.79 0.3-0.22-0.02-0.26-0.27-0.35-0.28-0.24-0.05-0.47-0.29-0.81-0.36-0.35-0.06-0.18-0.07-0.47-0.42-0.38-0.45-0.86-0.19-0.56-0.55 0.13-0.08 0.29-0.01 0.79-0.56 0.23-0.25 0.51-0.16 0.85-0.48 0.12-0.12 0.28-0.24 0.2-0.44-0.06-0.14-0.91-0.91-1.84-1.64-0.28-0.21-0.6-0.56-0.65-0.63-0.2-0.29-0.12-0.48 0.26-0.68 0.2-0.09 0.89-0.27 1.21-0.33 0.6-0.09 0.39-0.03 0.86-0.03 0.33 0 0.93 0.04 1.37 0.02 0.16-0.01 0.17-0.05 0.17-0.34 0-0.45-0.09-0.22-0.3-0.39-0.1-0.08-0.14-0.24-0.25-0.52-0.06-0.16-0.04-0.21 0.25-0.5 0.33-0.33 0.77-0.54 0.81-0.54 0.13-0.02 0.13 0.21 0.34 0.24 0.15 0.02 0.09 0.34 0.2 0.47 0.1 0.13 0.52 0.44 0.53 0.71 0.03 0.47 0.75 0.72 0.93 0.18 0.04-0.13-0.04-0.31 0.1-0.36 0.17-0.05 0.65 0.14 0.96 0.22 0.47 0.13 0.61 0.14 0.81 0.14 0.65 0 0.66-0.15 0.76-0.45 0.04-0.14 0.08-0.49 0.06-1.04-0.03-0.71 0.06-0.84 0.2-0.92 0.05-0.03-0.06-0.18 0.16-0.44 0.09-0.12 0.45-0.4 0.5-0.54 0.1-0.26 0.11-0.56 0.32-0.33 0.07 0.13 0 0.29 0.27 0.33 0.08 0.01-0.01 0.26 0.34 0.34 0.18 0.04 0.08 0.29 0.31 0.58 0.27 0.33 0.1 0.54 0.09 0.8-0.01 1.43 0.22 1.33 0.36 1.43 0.15 0.1 0.28 0.13 0.65 0.03 0.43-0.1 1.69-0.69 2.63-0.79 0.62-0.06 1.17 0.1 1.69-0.08 0.13-0.05 0.17-0.03 0.15-0.21-0.01-0.13 0-0.54-0.01-0.63-0.02-0.16-0.36-0.35-0.35-0.7 0.01-0.15-0.01-0.89-0.01-0.95 0.01-0.14 0.14-0.01 0.32-0.19 0.07-0.07 0.02-0.43 0.02-0.64 0-0.22 0.01-0.47 0-0.73-0.01-0.19-0.02-0.39-0.02-0.42 0.01-0.1 0.01-0.15 0.22-0.06 0.11 0.04 0.51 0.26 0.66 0.3 0.47 0.16 0.76 0.01 0.99-0.44 0.11-0.21 0.25-0.61 0.46-1.48 0.33-1.38 0.35-1.28 0.55-1.26 0.11 0.01 0.67-0.09 0.69 0.15 0.01 0.08-0.04 0.21 0.12 0.23 0.15 0.02 0.51-0.07 0.52 0.06 0.02 0.15 0.05 0.27 0.23 0.5 0.19 0.25 0.08 0.38 0.32 0.68 0.19 0.24 0.11 0.41 0.3 0.66 0.06 0.08 0.06 0.19 0.13 0.3 0.01 0 0.01 0 0.01-0.01 0.12-0.4 0.14-0.91 0.46-1.59 0.36-0.78 0.83-1.08 1.15-1.41 0.31-0.31 0.45-0.51 0.32-0.77-0.03-0.05-0.12-0.18-0.22-0.28-0.49-0.45-1.02-0.95-1.1-1.52-0.02-0.17 0.04-0.5-0.02-0.89-0.03-0.22-0.08-0.2-0.18-0.2-0.2 0.01-0.32-0.03-0.66 0.27-0.24 0.21-0.36 0.08-0.65 0.34-0.24 0.21-0.37 0.08-0.65 0.35-0.17 0.16-0.18 0.12-0.27 0.1-0.04-0.01-0.34-0.12-0.51-0.2-0.5-0.25-1.17-0.59-1.43-0.66-0.48-0.13-0.69 0.05-0.52 0.59 0.13 0.4 0.36 0.12 0.4 0.39 0.02 0.14-0.09 0.43 0.22 0.8 0.25 0.29 0.1 0.26 0.09 0.6 0 0.24-0.03 1.02 0.02 1.67 0.02 0.36-0.17 0.17-0.35 0.34-0.04 0.03 0.01 0.12-0.56-0.04-0.38-0.1-1.29-0.44-2.16-0.92-1.4-0.79-1.46-1.12-1.58-1.37-0.31-0.65-0.23-1.44 0.95-2.61 0.4-0.4 0.98-0.89 1.15-1.09 0.56-0.66-0.17-0.65-0.65-1.06-0.43-0.37-0.39-0.42-0.23-0.9 0.07-0.2 0.18-0.56 0.84-1.28 0.86-0.94 1.22-1.04 1.54-1.16 0.63-0.24 1.36-0.13 2.03 0.31 0.39 0.26 1.14 1.09 1.96 1.9 0.47 0.43 0.41 0.19 0.47 0.12 0.04-0.04 0.06-0.19 0.1-0.65 0.04-0.45 0.3-0.43 0.33-0.66 0.01-0.1-0.04-0.42 0-0.52 0.04-0.09 0.31-0.38 0.32-0.48 0.03-0.21-0.01-0.65 0.31-0.9 0.43-0.43 0.86-0.98 1.15-1.01 0.17-0.02-0.06-0.44 0.3-0.37 0.15 0.03 1.29 0.91 1.44 2.52 0.06 0.7-0.02 1.06 0.03 1.45 0.01 0.01 0.02-0.06 0.04-0.17 0.08-0.42 0.33-1.31 0.53-1.72 0.31-0.65 0.68-0.9 1.33-0.84 0.32 0.03 1.14 0.39 1.75 0.87 0.44 0.36 1.19 1.25 1.87 2.25 0.05 0.06 0.01-0.05 0-0.08-0.4-1.02-0.79-2.17-0.84-2.86-0.06-0.74 0.09-1.44 0.58-2.12 0.57-0.79 0.65-0.65 0.77-0.64 0.13 0.02 0.86-0.03 1.17 0.12 0.28 0.14 0.54 0.28 1.06 0.25l0.68-0.03c-0.17-0.21-0.39-0.24-0.64-0.35-0.31-0.14-0.44-0.44-0.63-0.64-0.35-0.37-0.75-0.44-1.07-1.92-0.12-0.56-0.11-1.23-0.02-1.67 0.18-0.86 0.34-1.09 0.29-1.19-0.07-0.03-0.1 0.07-0.17 0.17-0.63 0.8-1.35 1.49-1.93 1.69-0.45 0.16-0.98 0.12-1.63 0.24-0.52 0.09-0.43 0.2-0.33 0.55 0.06 0.2 0.35 0.83 0.44 1.11 0.18 0.6 0.12 0.69-0.03 1.02-0.25 0.56-0.43 0.51-0.71 0.56-0.22 0.03-0.7 0.09-1.48-0.58-0.51-0.44-0.81-1.18-0.95-1.67-0.07-0.24-0.1-0.41-0.21-0.3-0.02 0.02-0.09 0.16-0.13 0.26-0.59 1.47-1.26 2.56-2.1 3.01-0.52 0.28-1.09 0.36-1.4 0.29-0.33-0.06-0.79-0.5-1.2-1.09-0.12-0.16-0.32-0.22-0.41-0.19-0.13 0.05-0.52 0.41-0.78 0.65-0.79 0.72-2.15 0.68-2.66 0.21-0.46-0.42-0.61-1.12-0.3-1.84 0.16-0.38 0.83-1.15 1.4-1.75 1.03-1.07 0.87-1.12 0.88-1.18 0.01-0.17 0.05-0.23-0.39-0.48-0.77-0.46-0.95-0.63-1.1-1.21-0.06-0.23-0.12-0.51-0.36-0.48-0.09 0.01-0.48 0.02-0.69 0.02-0.36 0-0.7 0.12-1.22-0.3-0.32-0.25-0.34-0.36-0.75-0.58-0.43-0.24-0.6-0.5-0.77-0.38-0.05 0.04-0.01 0.05 0.1 0.18 0.28 0.36 0.96 1.19 1.3 1.78 0.29 0.51 0.48 1 0.59 1.49 0.22 1.02 0.09 1.06-0.13 1.3-0.22 0.23-0.52 0.42-1.56 0-0.11-0.04-0.23-0.09-0.34-0.15 0.74 0.62 1.03 1.58 0.78 2.31-0.09 0.23-0.25 0.59-0.86 1.16-0.39 0.37-0.91 0.71-1.03 0.78-0.54 0.26-0.21 0-0.52-0.38-0.2-0.25-0.12-0.2-0.1-0.43 0.01-0.21 0.03-0.48 0.03-0.52-0.01-0.14-0.14-0.01-0.32-0.19-0.11-0.1 0.01-0.77-0.01-0.87-0.02-0.14-0.26-0.36-0.35-0.65h-0.01c-0.12 0.82-0.09 1.87 0.28 2.5 0.31 0.54 0.86 0.97 1.5 1.56 0.12 0.1 0.17 0.28 0.18 0.4 0.02 0.18 0.35 0 0.36 0.28 0 0.06-0.07 0.21-0.26 0.44-0.21 0.25-0.11 0.21-0.1 0.43 0.02 0.39 0.04 0.59-0.22 0.93-0.31 0.41-0.02 0.34-0.34 0.44-0.07 0.02 0.02 0.29-0.31 0.34-0.09 0.01-0.03 0.29-0.33 0.34-0.28 0.04-0.3 0.44-0.43 0.56-0.02 0.02-0.05 0.02-0.12-0.03-0.04-0.03-0.34-0.35-0.48-0.59-0.34-0.61-0.34-1.59-0.1-2.33-0.12 0.03-0.22 0.05-0.25 0.27-0.07 0.5-0.58 0.43-1.03 0.41-0.22-0.01-0.22 0.02-0.47 0.25-0.32 0.29-0.3 0.09-0.74 0.09-0.34 0-0.74 0.02-0.83 0.03-0.35 0.03-0.36-0.04-0.24-0.35 0.03-0.08 0.23-0.45 0.38-0.68-0.58 0.71-1.27 1.16-1.76 1.24-0.27 0.04-0.94-0.02-1.41-0.05-0.28-0.02-0.87 0.06-1.49 0.1-0.64 0.04-0.73-0.14-0.78-0.37-0.04-0.2 0.02-1.18 0.76-1.89 0.16-0.16 0.36-0.22 0.32-0.3-0.32-0.07-0.65 0.14-0.96 0.17-0.95 0.08-1.04-0.06-1.32-0.4-0.26-0.3-0.41-0.79-0.3-1.35 0.06-0.3 0.35-0.98 1.1-1.63 0.76-0.66 0.91-0.47 1.2-0.73 0.13-0.12 0.65-0.51 0.89-0.55 0.23-0.03 0.52-0.03 0.9-0.37 0.49-0.42 0.62-0.21 0.87-0.51 0.18-0.21 0.04-0.15-0.01-0.16-0.07-0.01-0.35 0.01-0.53 0.01-1.18 0.02-2.37 0-3.54 0l2.57-2.37c-0.2-0.37 0.07-0.34 0.12-0.35 0.12-0.01 0.71-0.33 0.78-0.35 0.06-0.02-0.11-0.3 0.19-0.35 0.06-0.01 0.25 0.01 0.36 0.02 0.23 0.01 0.91 0.01 1.5-0.01 0.31-0.01 0.25 0.02 0.5 0.25 0.37 0.34 0.6 0.13 0.63 0.09s0.05-0.06 0.03-0.18c-0.01-0.07-0.12-0.41-0.21-0.63-0.15-0.38-0.19-0.79-0.37-1.16-0.02-0.05-0.24 0.04-0.31-0.13-0.07-0.16-0.04-0.51 0.24-0.87s0.14-0.31 0.02-0.29c-0.03 0-0.07 0-0.24 0.12-0.4 0.25-1.18 0.84-1.65 1.12-0.45 0.26-0.85 0.46-1.26 0.57-0.86 0.22-0.88 0.1-1.09-0.22-0.18-0.27-0.35-0.76-0.06-1.64 0.13-0.41 0.41-0.78 0.5-1.2 0.03-0.15-0.02-0.23 0.15-0.24 0.1-0.01 0.4 0.04 0.5 0 0.07-0.03 0.21-0.22 0.4-0.31-0.02 0-0.04-0.01-0.05-0.01l-4.18-2.37c-0.07-0.17-0.07-0.37 0.32-0.68 0.35-0.35 0.71-0.85 0.95-0.98 0.16-0.07 0.66 0.03 1.3-0.38 0.39-0.25 0.78-0.33 0.96-0.34 0.42-0.01 0.42-0.18 0.8-0.42 0.59-0.37 0.8-0.55 1.08-0.63 0.15-0.04 0.34-0.28 0.5-0.31 0.12-0.01 0.37-0.02 0.19-0.35l-3.21-0.34c-0.07-0.17-0.08-0.29 0.32-0.68 0.35-0.35 0.68-0.74 0.95-1.31 0.24-0.47 0.85-0.61 1.22-0.98 0.03-0.03 0.06-0.05 0.09-0.08-0.55 0-1.09 0.01-1.63 0.02-0.44 0.01-0.46-0.22-0.68-0.37-0.52-0.45-1.34-0.71-1.45-0.86-0.08-0.1-0.08-0.27-0.11-0.63-0.04-0.41-0.32-0.48-0.34-0.79-0.02-0.25-0.02-1.2 0.02-1.36 0.04-0.14 0.45-0.47 0.32-0.76l3.53 0.68c-0.2-0.15-0.33-0.3-0.5-0.65-0.28-0.59-0.14-0.61-0.15-0.87 0-0.62-0.07-0.36 0.23-0.76 0.19-0.25 0.03-0.42 0.17-0.44 0.02 0 0.07-0.01 0.23 0.03 0.08 0.02 0.23 0.05 0.38 0.09 0.33 0.08 0.87 0.25 1.54 0.43 1 0.27 1.62 0.37 1.72 0.37 0.13 0 0.23-0.02 0.11-0.18-0.08-0.09-0.8-0.65-1.34-1.08-0.56-0.46-0.38-0.42-0.29-0.55 0.05-0.07 0.44-0.39 0.46-0.59 0.01-0.1 0.05-0.18 0.25-0.22 0.36-0.06 0.58-0.54 1.03-0.64 0.38-0.08 0.74-0.07 1.11-0.26 0.47-0.23 0.73 0.01 1.33-0.62 0.2-0.21 0.45-0.48 0.69-0.51 0.15-0.02 0.39-0.3 0.68-0.34 0.09-0.01 0.17-0.15 0.07-0.34h-2.89c-0.07-0.16-0.01-0.28 0.23-0.59 0.26-0.33-0.08-0.1 0.24-0.8 0.35-0.76 0.87-0.88 1.47-1.38 0.24-0.2 0.31-0.26 0.45-0.29-0.69 0-1.31 0.24-2.07-0.17-0.38-0.2-0.56-0.1-0.98-0.33-0.73-0.37-0.56-0.38-0.61-0.57-0.06-0.21-0.01-0.44-0.01-0.78 0.01-0.7-0.11-0.38 0.23-0.79 0.23-0.27 0.1-0.23 0.08-0.52-0.03-0.39 0.38-0.43 0.23-0.61-0.02-0.02-0.16-0.1-0.24-0.14-0.21-0.07-1.44-0.48-1.83-0.82-0.44-0.37-0.26-1.18-0.55-1.73-0.12-0.25-0.16-0.45-0.17-0.86-0.01-0.48-0.04-0.43 0.09-0.54 0.11-0.08 0.75-0.3 1.13-0.33 0.51-0.02 1-0.07 1.5 0 0.34 0.05 0.47 0.35 0.82 0.35 0.42 0 0.48 0.28 0.87 0.6 0.21 0.17 0.23 0.16 0.34 0.09 0.04-0.13-0.08-0.07-0.11-0.09-0.13-0.07-0.47-0.21-0.64-0.58-0.21-0.44-0.46-0.92-0.47-1.36-0.01-0.46-0.35-0.81-0.34-1.44 0-0.13 0.02-0.31 0.02-0.59 0-0.74-0.13-0.72 0.25-0.76 0.22-0.01 0.57 0.22 0.87 0.56 0.2 0.22 0.73 0.79 1.21 1.27 0.43 0.42 0.26 0.92 0.51 0.58 0.16-0.23-0.1-1.12 0.67-1.51 0.38-0.2 0.75-0.69 0.96-0.8 0.14-0.06 0.61-0.03 0.77-0.17 0.08-0.06 0.25-0.23 0.36-0.23 0.21-0.01 0.34-0.04 0.44 0.14 0.07 0.13 0.16 0.57 0.21 0.86 0.22 1.1 0.58 1.08 0.93 0.99 0.12-0.03 0.32-0.12 0.82-0.39 0.91-0.49 0.99-0.5 1.4-0.45 0.38 0.05 0.49 0.17 0.77 0.58 0.45 0.65 1.11 3.07 1.56 4.33 0.19 0.54 0.42 1.07 0.5 1.21s0.18 0.33 0.25 0.21c0.03-0.05 0.06-0.26 0.06-0.41 0.02-0.41-0.03-1.64 0.04-2.38 0.12-1.3 0.25-1.38 0.52-1.68 0.23-0.25 0.56-0.37 0.97-0.34 0.3 0.02 1.02 0.25 1.74 0.92 0.45 0.42 0.89 0.9 1.03 1.01 0.47 0.35 0.46 0.09 0.53-0.02 0.12-0.18 0.15-0.4 0.32-0.94 0.35-1.07 0.54-1.13 1.12-1.01 0.27 0.06 0.96 0.46 1.53 1.03 0.49 0.48 1.42 1.77 2.25 3.08-0.39-0.83-0.77-1.67-1.06-2.58-0.13-0.38-0.39-0.63-0.61-1.03-0.16-0.29-0.05-0.91-0.05-1.36 0-0.52-0.2-1.12 0.16-1.55 0.3-0.37 0.05-0.99 0.16-1.44-0.41 0.58-1.07 1.13-1.22 1.15-0.16 0.02-0.32-0.05-0.44-0.4-0.06-0.18-0.14-0.59-0.2-1.37-0.16-2.08-0.05-1.5-0.19-1.38-0.02 0.01-0.12 0.22-0.15 0.31-0.21 0.65-0.41 1.34-0.56 1.76-0.2 0.55-0.46 1.06-0.59 1.22-0.44 0.54-0.46 0.33-0.66 0.21-0.52-0.28-1.09-1.27-1.41-1.5-0.56-0.42-0.87-0.13-1.33 0.21-0.92 0.68-0.76 0.51-0.86 0.36-0.02-0.03-0.08-0.22-0.09-0.33-0.02-0.18-0.02-0.72 0.01-1.14-0.27 0.83-0.83 1.56-1.48 1.92-0.71 0.39-0.76 0.29-1.02 0.27-0.5-0.04-0.47-0.07-0.63-0.38-0.11-0.21-0.07-0.66 0.11-1.71 0.06-0.33-0.15-0.54-0.4-0.79-0.24-0.24-0.17-0.69-0.43-0.54-0.23 0.14-0.06 0.23-0.05 1.03 0 0.39 0.04 0.6-0.23 0.92-0.13 0.16 0.03 0.25-0.08 0.63-0.02 0.06-0.05 0.08-0.17 0.03-0.08-0.03-0.88-0.67-0.99-0.81-0.18-0.24-0.17-0.42-0.29-0.44-0.36-0.05-0.83-0.66-1.29-1.66-0.31-0.65-0.16-0.56-0.17-1.08-0.02-0.92-0.13-0.85 0.19-1.25 0.17-0.21 0.9-0.71 2.05-1.27 0.57-0.28 0.69-0.19 0.92-0.17 0.42 0.01 0.95 0.01 1.25 0.01 0.7 0 0.55 0.17 0.69-0.16 0.04-0.08 0.07-0.2 0.11-0.51 0.04-0.34 0.07-1.08 0.06-1.42-0.04-0.85-0.13-0.69-0.25-0.68-0.09 0.01-0.15 0.04-0.31 0.21-0.15 0.16-0.46 0.79-0.87 1.12-0.4 0.31-0.43-0.18-0.86 0.3-0.17 0.2-0.37 0.42-0.67 0.46-0.73 0.12-0.26 0.86-0.6 0.68-0.09-0.04-0.18-0.01-0.34-0.87-0.17-0.93-0.19-1.95 0-2.54 0.07-0.23 0.21-0.56 0.44-1.02 0.34-0.68 0.67-1.25 0.79-1.51 0.14-0.31 0.12-0.28-0.02-0.24-0.02 0.01-0.14 0.06-0.28 0.16-0.27 0.18-0.72 0.47-0.96 0.59-0.65 0.3-0.74 0.27-1.12 0.19-0.58-0.12-0.62-0.26-0.75-0.61-0.1-0.27-0.23-1.25 0.68-2.22 0.53-0.58 1.21-0.66 1.98-1.04 0.1-0.05 0.32-0.07 0.04-0.23-0.07-0.04-0.23-0.12-0.52-0.19-0.39-0.1-1.32-0.27-1.47-0.29-0.17-0.02-0.07-0.12-0.21-0.31-0.08-0.12-0.28 0.03-0.62-0.38-0.42-0.46-0.92-0.9-0.95-1.22-0.02-0.19-0.6 0-0.33-0.43 0.15-0.23 0.59-0.05 1.02-0.47 0.27-0.26 0.29-0.22 0.73-0.26 0.39-0.03 0.49-0.3 0.71-0.34 0.24-0.04 0.4-0.26 0.64-0.3 0.25-0.04 1.42 0.12 1.88 0.33 0.84 0.38 1.35 0.97 1.73 0.9 0.36-0.06 0.52-0.38 0.51-0.73 0-0.28-0.42-1.4-0.54-1.79-0.16-0.55-0.15-0.85 0.29-1.14 0.18-0.12 0.86-0.35 1.61-0.36 0.47-0.01 0.81 0.05 1.03 0.12 0.71 0.2 1.06 0.65 1.32 0.94 0.47 0.49 0.86 0.99 1.17 1.53 0.97 1.73 0.76 1.63 0.76 1.75 0 0.19-0.06 0.23 0.09 0.04 0.22-0.29 0.08-0.46 0.3-1.11 0.15-0.45 0.44-0.89 0.65-1.35 0.2-0.43 0.38-0.87 0.43-0.95 0.12-0.22 0.03-0.3 0.67-0.24 0.46 0.04 0.83 0.42 0.94 0.67 0.2 0.45 0.41 0.89 0.62 1.34 0.31 0.66 0.13 0.56 0.15 1.09 0.03 0.95 0.35 0.78 0.34 1.32v0.42c0.17-0.56 0.91-0.77 0.95-1.24 0.01-0.1 0.06-0.18 0.25-0.22 0.28-0.05 0.2-0.19 0.61-0.56 0.44-0.4 0.43-0.12 0.45 0.05 0.13 0.25 0.27 0.46 0.54 0.48z" clip-path="url(#b)" clip-rule="evenodd" fill="#77C043" fill-rule="evenodd"/>
	

<path class="st1" d="m94.52 127.15c6.35-8.02 12.79-15.91 19.58-23.66 8.48-9.66 17.61-19.24 27.13-28.63 8.63-8.35 17.57-16.24 26.9-23.75 6.12-4.92 12.46-9.72 18.99-14.26 4.16-2.88 8.38-5.66 12.3-8.09 3.92-2.45 7.55-4.55 11.22-6.57 13.06-7.14 26.91-13.26 41.5-16.57 3.57-0.81 7.19-1.44 10.83-1.8 2.68-0.26 5.37-0.39 7.21-0.43s2.84-0.01 3.84 0.06c0.99 0.07 1.99 0.17 2.85 0.29 3.74 0.52 6.68 1.76 8.53 3.23 1.99 1.58 3.33 3.93 3.56 6.74 0.04 0.48 0.04 0.94 0.01 1.61-0.03 0.68-0.1 1.56-0.22 2.43-0.36 2.64-1.21 5.17-2.35 7.66-0.37 0.84-0.79 1.66-1.3 2.56-0.5 0.91-1.08 1.89-1.7 2.85s-1.27 1.9-2.04 2.95c-0.78 1.05-1.7 2.23-2.66 3.37-0.95 1.14-1.94 2.26-3.12 3.51-2.4 2.56-5.37 5.43-8.24 7.95-6.87 6.22-14.5 11.61-21.83 16.68-11.38 7.56-23.31 14.57-35.32 21.43-6.54 3.67-13.09 7.2-19.74 10.28-14.33 6.47-29.03 11.95-43.81 17.02-11.68 3.89-23.49 7.5-35.5 10.14-5.49 1.1-11.05 2.1-16.62 3m-23.49 5.5c-1.2 2.33-2.33 4.71-3.4 7.13-1.07 2.4-2.04 4.84-2.87 7.04-0.82 2.2-1.47 4.18-2.02 6.16-0.56 1.99-1.02 4.02-1.38 5.88s-0.6 3.57-0.76 5.3c-0.16 1.71-0.23 3.44-0.24 4.75s0.03 2.2 0.09 3.1c0.13 1.79 0.39 3.53 0.75 5.21 0.19 0.85 0.39 1.68 0.73 2.76 0.35 1.08 0.84 2.39 1.43 3.67 1.76 3.82 4.38 7.26 7.57 9.97 1.07 0.91 2.2 1.73 3.18 2.36 1.89 1.24 3.36 1.99 5.08 2.75 1.73 0.76 3.25 1.31 5.3 1.87 2.15 0.59 4.95 1.12 7.29 1.38 2.36 0.26 4.39 0.37 6.73 0.39 3.61 0.01 7.46-0.35 11.46-1.01 1.37-0.23 2.72-0.48 4.58-0.91s4.2-1.05 6.52-1.77c6.85-2.12 13.36-5.13 19.84-8.17 8.12-4.02 16.09-8.24 23.89-12.66-9.82 10.93-19.63 21.85-28.9 33.03-5.2 6.38-10.41 12.79-15.81 19.04-2.15 2.42-4.36 4.85-6.9 6.9-1.56 1.28-3.11 2.55-4.75 3.73-1.63 1.18-3.31 2.29-5.69 3.66s-5.46 2.98-8.65 4.33c-3.2 1.35-6.49 2.45-8.87 3.17s-3.82 1.05-5.26 1.37c-7.3 1.6-14.93 2.36-22.54 2.56-2.51 0.06-5.03 0-7.53-0.16-2.51-0.16-5.01-0.43-7.21-0.75-2.22-0.32-4.13-0.69-6.03-1.14-1.9-0.46-3.79-0.99-5.44-1.54s-3.08-1.11-4.46-1.74-2.75-1.34-3.93-2.03c-6.49-3.8-10.31-8.83-11.74-14.26-0.23-0.88-0.4-1.79-0.52-2.59-0.22-1.6-0.23-2.92-0.13-4.45 0.09-1.5 0.4-3.15 0.85-4.52 0.43-1.32 0.91-2.4 1.47-3.57 0.89 1.63 1.99 3.25 2.88 4.23 1.15 1.28 1.68 1.6 2.26 1.93 1.44 0.82 3.17 1.09 4.8 0.75 0.27-0.06 0.53-0.13 0.86-0.24 1.44-0.53 3.07-1.7 4.02-2.97 0.55-0.72 0.84-1.3 1.01-1.7 0.6-1.48 0.68-3.53-0.62-5.76-0.66-1.15-2.42-3.08-5.17-3.83-2.97-0.81-6.26-0.22-8.86 1.43-0.43 0.27-0.85 0.58-1.34 0.99-2.15 1.86-4.13 5-5.03 8.5-0.24 0.92-0.43 1.93-0.55 2.92-0.12 1.01-0.17 2.02-0.17 2.78-0.01 1.54 0.01 2.09 0.23 3.66 0.12 0.78 0.29 1.83 0.55 2.85 0.76 3.02 2.23 6.09 4.32 8.8 1.94 2.52 4.68 5.11 8.65 7.5 1.28 0.76 2.75 1.56 4.25 2.25 1.5 0.71 3.04 1.31 4.82 1.92 1.79 0.6 3.8 1.2 5.85 1.68 2.04 0.49 4.1 0.89 6.41 1.22 2.29 0.33 4.82 0.6 7.34 0.79 2.53 0.19 5.07 0.27 8.37 0.26 3.31-0.01 7.37-0.14 11.43-0.46 7.09-0.56 14.17-1.51 21.01-3.41 6.58-1.63 13.03-3.93 19.17-6.91 2.03-0.99 4.03-2.04 5.67-2.94 3.31-1.83 5.03-2.88 8.35-5.16 3.31-2.26 8.35-6.11 11.51-8.8 1.56-1.32 2.65-2.29 3.73-3.28s2.15-2 4.1-4.08c1.96-2.07 4.81-5.23 7.53-8.5 8.78-10.54 16.21-22.39 23.98-33.8 4.46-6.57 9.12-13.16 14.54-19.27 2.82-3.18 5.99-6.29 9.42-9.39 5.43-4.71 11.29-8.22 17.06-11.95l-1.7-2.39c-12.14 7.5-23.44 16.4-34.94 24.98-13.29 9.91-26.55 19.25-41.21 26.06-3.31 1.54-6.7 2.94-10.14 4.18-2.46 0.88-4.97 1.68-7.3 2.33s-4.49 1.17-6.67 1.58c-2.17 0.42-4.36 0.78-6.11 0.99-1.74 0.22-3.04 0.32-4.35 0.4-1.3 0.07-2.61 0.14-4.03 0.14-2.87 0.01-6.31-0.24-9.09-0.78-1.38-0.26-2.59-0.58-3.77-0.95s-2.33-0.84-3.37-1.3c-6.81-3.11-10.57-8.25-11.35-14.59-0.12-0.91-0.16-1.81-0.16-2.82s0.07-2.12 0.19-3.23c0.12-1.09 0.27-2.2 0.52-3.4 0.68-3.36 1.92-7.09 3.25-10.33 2.09-5.07 4.81-9.99 7.55-14.88 3.2-5.53 6.49-10.99 9.88-16.36 13.52-2.3 26.94-4.95 40.02-8.78 7.03-1.9 13.95-4.25 20.9-6.61 15.74-5.56 30.99-12.02 45.81-19.3 13.65-6.7 27.19-14.04 40.31-22.57 11.29-7.33 22.36-15.47 32.56-25.1 5.24-5.16 10.17-10.48 14.08-16.91 0.73-1.2 1.41-2.42 1.97-3.53 1.12-2.2 1.87-4 2.55-6.25 0.33-1.12 0.63-2.33 0.84-3.56 0.2-1.22 0.3-2.48 0.35-3.31 0.04-0.84 0.03-1.25 0-1.67-0.19-2.56-1.04-4.87-3.14-7.06-1.5-1.57-3.28-2.75-6.13-3.76-2.25-0.79-4.85-1.32-8.04-1.54-1.09-0.07-2.2-0.1-3.87-0.06s-3.89 0.14-6.11 0.35c-11.32 1.02-22.31 4.41-32.96 8.29-23.43 8.86-45.1 21.56-66.3 35.22-15.29 10.15-30.44 20.56-44.76 32.27-8.99 7.36-17.61 15.15-25.23 23.53-8.54 9.39-15.87 19.47-22.81 29.68-7.66-0.17-15.31-0.66-22.91-1.6-1.34-0.17-2.68-0.39-4-0.62s-2.66-0.49-4.33-0.89c-3.33-0.81-8.15-2.46-11.03-3.73-1.43-0.63-2.33-1.08-3.23-1.56-3.34-1.77-7.42-4.41-10.84-7.7-0.81-0.78-1.6-1.58-2.48-2.61-1.77-2.06-3.76-4.98-5.04-7.6-1.86-3.8-2.87-7.57-3.43-11.25-0.19-1.18-0.32-2.38-0.4-3.31-0.17-1.87-0.22-2.84-0.19-4.67 0.01-0.91 0.06-2 0.13-3.11 0.27-4.22 1.25-9.14 3.05-14.21 0.43-1.24 0.91-2.46 1.61-4 0.71-1.56 1.63-3.43 2.64-5.26s2.12-3.61 3.41-5.47c1.3-1.87 2.78-3.83 4.33-5.72 1.57-1.89 3.23-3.7 5.11-5.57 5.53-5.52 12.38-10.86 19.17-15.06 7.62-4.55 15.38-8.67 23.8-11.74 4.67-1.83 9.39-3.5 14.23-4.65 7.46-2.16 15.09-3.6 22.74-4.62s15.41-1.27 23.16-1.51c8.41 0.1 16.79 0.75 25.17 1.45l0.43-2.62c-7.76-0.79-15.54-1.48-23.34-1.81-8.97-0.33-17.94 0.37-26.78 1.56-7.96 1.05-15.84 2.51-23.47 4.72-4.67 1.22-9.2 2.79-13.72 4.38-8.21 3.01-16.13 6.65-23.72 11.13-2.91 1.71-5.73 3.53-8.32 5.33-2.58 1.8-4.91 3.59-7.17 5.46s-4.44 3.84-6.36 5.73c-1.93 1.89-3.61 3.72-5.21 5.6-1.6 1.89-3.11 3.84-4.42 5.7s-2.42 3.63-3.44 5.44-1.96 3.67-2.66 5.21c-1.44 3.14-2.03 4.69-3 8.22-0.49 1.8-1.04 4.18-1.38 6.57-0.68 4.8-0.62 9.75 0.19 14.63 0.4 2.43 1.01 4.82 1.47 6.45s0.78 2.49 1.11 3.34c1.43 3.59 2.95 6.38 5.01 9.29 0.53 0.75 1.09 1.48 1.79 2.3 1.41 1.7 3.17 3.61 5 5.26 2.79 2.52 6.03 4.78 9.03 6.55 5.96 3.53 12.69 6.18 20.23 7.56 8.77 1.64 17.78 1.84 26.71 1.8z"/>
</svg>
