<?xml version="1.0" encoding="UTF-8"?>
<svg enable-background="new 0 0 44.7 44.7" version="1.1" viewBox="0 0 44.7 44.7" xml:space="preserve" xmlns="http://www.w3.org/2000/svg">
<style type="text/css">
	.st0{fill:#FFFFFF;}
</style>

	
		<path class="st0" d="m23.8 18.5c-1.4-1.4-4.7-2.1-5.1-4.4 0.1-0.3-0.3-0.3-0.3-0.2-1 2.7-6 5.8 0.7 9.3 1.5 0.9 3.5 2.1 3.3 3.8-0.1 0.2 0.1 0.2 0.3 0.1 2.1-2.5 3.8-6.1 1.1-8.6z"/>
	


	
		<path class="st0" d="m30.3 8.3c-2.2-2.4-6.8-4-7.7-6.3-0.2-0.4 0-1.1 0.3-1.6 0.2-0.3-0.1-0.4-0.3-0.4-0.1 0-0.2 0-0.2 0.1-1.9 4-8.8 7.9-0.3 14 2.3 1.7 6.2 2.8 4.2 6.8-0.1 0.2 0 0.3 0.2 0.3 0.1 0 0.2 0 0.4-0.1 2.7-3.3 7.3-8.5 3.4-12.8z"/>
	


	
		<polygon class="st0" points="30.7 28 30.7 28 13.9 28 13.9 28 13.1 30.1 13.9 30.1 13.9 30.1 17.6 30.1 18.6 32.9 25.9 32.9 26.9 30.1 30.7 30.1 30.7 30.1 31.4 30.1"/>
	


	
		<path class="st0" d="m34.3 39.6c2.3-1.7 0.9-4.9-0.8-4.8h-3.6-2.2v10h2.2l3.9-0.1c2.4-0.1 3.5-4.2 0.5-5.1zm-4.4-0.9v-2.2l2.8 0.1c0.9 0 1.4 2.2 0 2.2-0.1-0.1-2.8-0.1-2.8-0.1zm3.1 4.2h-3.2v-2.3l3.2-0.1c1.3 0 1.2 2.4 0 2.4z"/>
	


	
		<path class="st0" d="m24.8 39.6c2.3-1.7 0.9-4.9-0.8-4.8h-3.6-2.2v10h2.2l3.9-0.1c2.5-0.1 3.6-4.2 0.5-5.1zm-4.4-3.2 2.8 0.1c0.9 0 1.4 2.2 0 2.2h-2.7v-2.3zm3.1 6.5h-3.2v-2.3l3.2-0.1c1.3 0 1.2 2.4 0 2.4z"/>
	


	
		<path class="st0" d="m15.2 39.6c2.3-1.7 0.9-4.9-0.8-4.8h-3.6-2.2v10h2.2l3.9-0.1c2.5-0.1 3.6-4.2 0.5-5.1zm-4.4-3.2 2.8 0.1c0.9 0 1.4 2.2 0 2.2h-2.7v-2.3zm3.1 6.5h-3.2v-2.3l3.2-0.1c1.3 0 1.2 2.4 0 2.4z"/>
	

</svg>
