<?xml version="1.0" encoding="UTF-8"?>
<svg enable-background="new 0 0 729.7 255" version="1.1" viewBox="0 0 729.7 255" xml:space="preserve" xmlns="http://www.w3.org/2000/svg">
<style type="text/css">
	.st0{fill-rule:evenodd;clip-rule:evenodd;fill:#71C839;}
	.st1{fill:none;}
	.st2{fill-rule:evenodd;clip-rule:evenodd;stroke:#020202;stroke-miterlimit:10;}
	.st3{fill:none;stroke:#020202;stroke-miterlimit:10;}
	.st4{fill-rule:evenodd;clip-rule:evenodd;}
</style>

	<path class="st0" d="m91.6 203.6v0.1l11.5 16.8v13.4h6.4v-13.4l11.6-16.8-0.1-0.1h-7.3l-7.6 11.5-7.4-11.5h-7.1"/>
	<path class="st0" d="m135 209.8 4.5 11.5h-8.9l4.4-11.5m-3.1-6.2-12.8 30.3h6.8l2.7-7.2h13.1l2.8 7.2h7.1l-12.9-30.3h-6.8z"/>
	<path class="st0" d="m170.8 209.1c0.8 0 1.6 0 2.2 0.1 1.6 0.2 1.9 0.5 2.4 0.9s0.8 0.8 1 1.9c0.1 0.6 0.1 1.3 0 1.8-0.2 1.2-0.5 1.6-1.1 2.1-0.3 0.2-0.6 0.4-1.1 0.5-0.3 0.1-0.7 0.2-1.2 0.2-0.6 0.1-1.3 0.1-2 0.1h-7.8v-7.6h7.6m-14.2-5.5v30.3h6.4v-11.9h7.4l6.7 11.9h7.1l0.1-0.1-7.5-12.6c1.5-0.3 2.7-1 3.6-1.8 0.9-0.9 1.7-2 2.1-3.7 0.2-0.9 0.3-1.9 0.4-2.9 0-1-0.1-1.8-0.2-2.6-0.4-2.1-1.1-3.2-2-4.1-1-1-2-1.8-4.9-2.3-1-0.2-2.2-0.3-3.5-0.3-5.2 0.1-10.5 0.1-15.7 0.1z"/>
	<path class="st0" d="m203.9 209c0.7 0 1.5 0 2.1 0.1 1.7 0.2 2.3 0.7 3 1.2 0.6 0.5 1.1 1 1.6 2.5 0.2 0.5 0.4 1.2 0.5 2.2 0.3 2.1 0.2 5.4 0 7.3s-0.6 2.7-0.9 3.3c-0.6 1.2-1.2 1.7-2.2 2.2-0.5 0.2-1.1 0.5-2.2 0.6-0.6 0.1-1.2 0.1-1.9 0.1h-7.3v-19.7c2.4 0.2 4.9 0.2 7.3 0.2m-13.8-5.4v30.3h14.1c1.3 0 2.6 0 3.7-0.2 2-0.3 3-0.7 4.1-1.3 1.7-0.9 3.5-2.5 4.8-5.2 0.4-0.9 0.8-2 1.1-3.3 0.3-1.4 0.4-3 0.4-4.8s-0.2-3.7-0.5-5.2c-0.6-3-1.5-4.6-2.5-5.9s-2.1-2.2-3.8-3c-0.8-0.4-1.8-0.8-3.1-1s-2.8-0.4-4.4-0.4h-13.9z"/>
	<path class="st0" d="m254 229.4c-0.9 0-1.7-0.1-2-0.2-0.7-0.2-0.8-0.4-1-0.9-0.1-0.2-0.1-0.5-0.1-1 0-1.1 0.2-1.4 0.5-1.6 0.2-0.2 0.4-0.4 0.9-0.6 0.4-0.1 1.2-0.2 2.2-0.2h6.9v4.5h-7.4m-7.9-17.7v4.7h9.8c0.8 0 1.5 0 2.1 0.1 1.5 0.2 1.8 0.5 2.2 0.8 0.5 0.4 0.8 0.7 0.9 1.7 0.1 0.4 0.1 0.9 0.1 1.4h-7.7c-1.1 0-2.2 0.1-3 0.2-2.4 0.3-3.1 0.9-3.9 1.5-0.9 0.8-1.5 1.5-1.9 3.6-0.2 1-0.2 2.6 0.1 3.8 0.4 1.8 1.3 2.8 2.6 3.5 0.9 0.5 2.4 0.9 4.1 0.9h15.8v-13.9c0-1.9-0.4-3.6-1-4.6-0.6-1.1-1.3-1.8-2.5-2.5-0.6-0.3-1.3-0.6-2.3-0.9-1-0.2-2.2-0.3-3.3-0.3h-12.1z"/>
	<path class="st0" d="m274.1 211.7v22.3h5.9v-17.3h4.7c1 0 1.9 0.1 2.2 0.3 0.7 0.2 0.9 0.4 1.2 0.9 0.1 0.2 0.3 0.5 0.4 1.3 0 0.4 0.1 1 0.1 1.5v13.4h5.9v-14.1c0-0.8-0.1-1.6-0.2-2.2-0.3-1.9-0.8-2.7-1.4-3.5-0.6-0.7-1.3-1.3-2.8-1.8-0.5-0.2-1.1-0.4-2-0.5s-1.9-0.2-3-0.2l-11-0.1"/>
	<path class="st0" d="m317.1 229.1h-4c-0.7 0-1.3 0-1.9-0.1-1.5-0.2-2-0.6-2.6-1-0.5-0.4-0.9-0.9-1.2-1.8-0.1-0.3-0.2-0.7-0.3-1.3-0.2-1.1-0.2-2.8 0-3.8 0.2-1.6 0.6-2.2 1.1-2.8 0.5-0.5 0.9-0.9 2-1.3 0.3-0.1 0.8-0.2 1.3-0.3 0.6-0.1 1.3-0.1 2-0.1h3.5c0.1 4.1 0.1 8.3 0.1 12.5m5.9 4.9v-30.3h-5.9v8h-5c-1.1 0-2.2 0.1-3.1 0.2-1.7 0.2-2.6 0.7-3.5 1.2-1.9 1.1-3.7 3.4-4.4 6.5-0.2 0.9-0.3 1.9-0.3 3.1s0.2 2.5 0.4 3.6c0.8 3.4 2.4 5 4.5 6.2 1.5 0.8 3.6 1.4 5.9 1.4 3.9 0.1 7.7 0.1 11.4 0.1z"/>
	<path class="st0" d="m364.3 234h8.1v-5.1h-7.5c-0.8 0-1.6 0-2.2-0.1-1.7-0.2-2.2-0.6-3-1.2-0.5-0.4-0.8-0.8-1-1.1-0.2-0.4-0.5-0.8-0.6-2.4-0.1-0.7-0.1-1.7-0.1-2.6v-17.8h-6.4v18c0 1.4 0.1 2.8 0.2 3.8 0.3 2 0.8 2.9 1.4 3.9s1.5 1.9 2.3 2.5 1.6 1 2.7 1.4c0.6 0.2 1.2 0.4 2.3 0.5 1 0.1 2.4 0.2 3.8 0.2"/>
	<path class="st0" d="m393.5 209.8 4.5 11.5h-8.9l4.4-11.5m-3.2-6.2-12.8 30.4h6.8l2.7-7.2h13.1l2.8 7.2h7.2l-12.9-30.3c-2.3-0.1-4.6-0.1-6.9-0.1z"/>
	<path class="st0" d="m415.1 203.6v30.3h6.6l-0.3-22.8 13 22.8h7.4v-30.3h-6.6l0.3 21.6-12.3-21.6h-8.1"/>
	<path class="st0" d="m462.4 209c0.7 0 1.5 0 2.1 0.1 1.7 0.2 2.3 0.7 3 1.2 0.6 0.5 1.1 1 1.6 2.5 0.2 0.5 0.4 1.2 0.5 2.2 0.3 2.1 0.2 5.4 0 7.3s-0.6 2.7-0.9 3.3c-0.6 1.2-1.2 1.7-2.2 2.2-0.5 0.2-1.1 0.5-2.2 0.6-0.6 0.1-1.2 0.1-1.9 0.1h-7.3v-19.7c2.4 0.2 4.8 0.2 7.3 0.2m-13.8-5.4v30.3h14.1c1.3 0 2.7 0 3.7-0.2 2-0.3 3-0.7 4.1-1.3 1.7-0.9 3.5-2.5 4.8-5.2 0.4-0.9 0.8-2 1.1-3.3 0.3-1.4 0.4-3 0.4-4.8s-0.2-3.7-0.5-5.2c-0.6-3-1.5-4.6-2.5-5.9s-2.1-2.2-3.8-3c-0.8-0.4-1.8-0.8-3.1-1s-2.8-0.4-4.4-0.4h-13.9z"/>
	<path class="st0" d="m509.7 209.1v-5.5h-16.7c-1.3 0-2.5 0.1-3.5 0.3-2 0.3-3 0.9-3.8 1.4-1.2 0.8-2 1.7-2.6 3.2-0.4 1-0.7 2.7-0.7 4.4 0 0.9 0.1 1.7 0.2 2.4 0.4 2 1 3 1.9 3.9s1.9 1.7 4.7 2.1c1 0.2 2.1 0.2 3.3 0.2h7.5c0.6 0 1.2 0 1.6 0.1 1.5 0.2 1.8 0.5 2.2 1 0.3 0.3 0.5 0.7 0.6 1.4 0.1 0.6 0.1 1.2 0 1.6-0.1 1.1-0.5 1.4-1 1.8-0.4 0.3-0.7 0.5-2.1 0.7-0.5 0.1-1.1 0.1-1.7 0.1h-16v5.5h17c1.2 0 2.5-0.1 3.5-0.3 2-0.3 3-0.9 3.8-1.4 1.2-0.8 2-1.7 2.6-3.1 0.4-1 0.7-2.6 0.7-4.3 0-0.9-0.1-1.7-0.2-2.4-0.3-2-0.8-2.9-1.5-3.6-0.6-0.8-1.3-1.4-2.9-1.9-0.5-0.2-1.2-0.4-2-0.5s-2-0.2-3.1-0.2h-8.4c-0.5 0-1 0-1.4-0.1-1.5-0.3-1.9-0.8-2.3-1.6-0.2-0.4-0.3-0.9-0.3-1.6 0-0.3 0-0.7 0.1-1 0.2-1.2 0.6-1.6 1.3-2.1 0.4-0.2 0.8-0.5 1.8-0.6 0.5-0.1 1.1-0.1 1.7-0.1 5.2 0.2 10.5 0.2 15.7 0.2"/>
	<path class="st0" d="m530.9 208.9h10.5v-5.2h-10.6c-1.5 0-3.1 0.1-4.4 0.4-2.5 0.5-4 1.3-5.2 2.3s-2.2 2.1-3.1 4c-0.4 0.9-0.8 2.1-1.1 3.6s-0.5 3.5-0.5 5.2c0 1.8 0.2 3.4 0.4 4.8 0.5 2.6 1.4 4.2 2.5 5.6s2.3 2.3 3.4 2.9c1.2 0.6 2.2 1.1 4.1 1.3 1 0.1 2.3 0.2 3.7 0.2h10.8v-5.3h-10.5c-0.7 0-1.5 0-2-0.1-1.7-0.2-2.4-0.7-3.1-1.2s-1.1-1.1-1.6-2.5c-0.2-0.5-0.3-1.1-0.5-2-0.1-0.9-0.2-2-0.2-3.3s0.1-2.7 0.2-3.7c0.3-2.1 0.8-3.1 1.2-3.8 0.8-1.5 1.6-2.1 3-2.6 0.4-0.1 0.8-0.2 1.3-0.3 0.6-0.3 1.1-0.3 1.7-0.3"/>
	<path class="st0" d="m560.9 209.8 4.5 11.5h-8.9l4.4-11.5m-3.2-6.2-12.8 30.3h6.8l2.7-7.2h13.1l2.8 7.2h7.2l-13-30.3h-6.8z"/>
	<path class="st0" d="m582.5 203.6v30.3h6.4v-10.6h7.7c1.8 0.1 3.5 0 4.8-0.2s2.1-0.5 2.8-0.8c1.5-0.7 2.6-1.5 3.6-2.7 0.5-0.7 0.9-1.5 1.2-2.5 0.6-2.1 0.6-5.1-0.1-7.3s-2-3.7-3.6-4.7c-0.8-0.5-1.6-1-4-1.3-1.3-0.2-3.1-0.3-4.9-0.2h-13.9m13.7 5.5c0.8 0 1.6 0 2.2 0.1 1.7 0.2 2.1 0.6 2.6 1 0.6 0.5 1 1 1.2 2.2 0.1 0.7 0.1 1.6 0 2.2-0.2 1.3-0.7 1.9-1.5 2.4-0.5 0.3-1 0.6-2.1 0.8-0.5 0.1-1.2 0.1-1.9 0.1h-7.7v-8.9c2.3 0.1 4.8 0.1 7.2 0.1z"/>
	<path class="st0" d="m627.8 209h10.5v-5.3h-10.6c-1.5 0-3.1 0.1-4.4 0.4-2.5 0.5-4 1.3-5.2 2.3s-2.2 2.1-3.1 4c-0.4 0.9-0.8 2.1-1.1 3.6s-0.5 3.5-0.5 5.2 0.2 3.4 0.4 4.8c0.5 2.6 1.4 4.2 2.5 5.6s2.3 2.3 3.4 2.9c1.2 0.6 2.2 1.1 4.1 1.3 1 0.1 2.3 0.2 3.7 0.2h10.8v-5.3h-10.5c-0.8 0-1.6-0.1-2.2-0.2-1.8-0.3-2.5-0.8-3.2-1.5s-1.2-1.4-1.5-3.3c-0.1-0.7-0.2-1.5-0.2-2.4h17.7v-5.3h-17.6c0.1-1.8 0.6-3.3 1.1-4.2 0.8-1.4 1.7-2.1 3.7-2.5 0.5-0.2 1.3-0.3 2.2-0.3"/>
	<rect class="st1" x="91.5" y="203.6" width="546.7" height="30.3"/>

<path class="st2" d="m65.7 88.4c4.4-5.6 8.9-11.1 13.6-16.4 5.9-6.7 12.2-13.4 18.8-19.9 6-5.8 12.2-11.3 18.7-16.5 4.2-3.4 8.6-6.8 13.2-9.9 2.9-2 5.8-3.9 8.5-5.6s5.2-3.2 7.8-4.6c9.1-5 18.7-9.2 28.8-11.5 2.5-0.6 5-1 7.5-1.2 1.9-0.2 3.7-0.3 5-0.3s2 0 2.7 0c0.7 0.1 1.4 0.1 2 0.2 2.6 0.4 4.6 1.2 5.9 2.2 1.4 1.1 2.3 2.7 2.5 4.7v1.1s-0.1 1.1-0.1 1.7c-0.2 1.8-0.8 3.6-1.6 5.3-0.3 0.6-0.6 1.1-0.9 1.8-0.4 0.6-0.8 1.3-1.2 2s-0.9 1.3-1.4 2.1c-0.5 0.7-1.2 1.6-1.9 2.3-0.7 0.8-1.4 1.6-2.2 2.4-1.7 1.8-3.7 3.8-5.7 5.5-4.8 4.3-10.1 8.1-15.2 11.6-7.9 5.2-16.2 10.1-24.5 14.9-4.5 2.6-9.1 5-13.7 7.1-9.9 4.5-20.2 8.3-30.4 11.8-8.1 2.7-16.3 5.2-24.6 7-3.9 0.9-7.8 1.6-11.6 2.2m-16.4 3.8c-0.8 1.6-1.6 3.3-2.4 4.9-0.7 1.7-1.4 3.4-2 4.9s-1 2.9-1.4 4.3-0.7 2.8-1 4.1c-0.2 1.3-0.4 2.5-0.5 3.7s-0.2 2.4-0.2 3.3 0 1.5 0.1 2.1c0.1 1.2 0.3 2.5 0.5 3.6 0.1 0.6 0.3 1.2 0.5 1.9 0.2 0.8 0.6 1.7 1 2.5 1.2 2.6 3 5 5.3 6.9 0.7 0.6 1.5 1.2 2.2 1.6 1.3 0.9 2.3 1.4 3.5 1.9s2.3 0.9 3.7 1.3c1.5 0.4 3.4 0.8 5.1 1 1.6 0.2 3 0.3 4.7 0.3 2.5 0 5.2-0.2 8-0.7 0.9-0.2 1.9-0.3 3.2-0.6s2.9-0.7 4.5-1.2c4.8-1.5 9.3-3.6 13.8-5.7 5.6-2.8 11.2-5.7 16.6-8.8-6.8 7.6-13.6 15.2-20.1 22.9-3.6 4.4-7.2 8.9-11 13.2-1.5 1.7-3 3.4-4.8 4.8-1.1 0.9-2.2 1.8-3.3 2.6s-2.3 1.6-4 2.5-3.8 2.1-6 3-4.5 1.7-6.2 2.2c-1.6 0.5-2.6 0.7-3.6 1-5.1 1.1-10.4 1.6-15.6 1.8-1.7 0-3.5 0-5.2-0.1s-3.5-0.3-5-0.5-2.9-0.5-4.2-0.8-2.6-0.7-3.8-1.1-2.1-0.8-3.1-1.2-1.9-0.9-2.7-1.4c-4.5-2.6-7.2-6.1-8.1-9.9-0.2-0.6-0.3-1.2-0.4-1.8-0.2-1.1-0.2-2-0.1-3.1 0.1-1 0.3-2.2 0.6-3.1s0.6-1.7 1-2.5c0.6 1.1 1.4 2.3 2 2.9 0.8 0.9 1.2 1.1 1.6 1.3 1 0.6 2.2 0.8 3.3 0.5 0.2 0 0.4-0.1 0.6-0.2 1-0.4 2.1-1.2 2.8-2.1 0.4-0.5 0.6-0.9 0.7-1.2 0.4-1 0.5-2.5-0.4-4-0.5-0.8-1.7-2.1-3.6-2.7-2.1-0.6-4.4-0.1-6.1 1-0.3 0.2-0.6 0.4-0.9 0.7-1.5 1.3-2.9 3.5-3.5 5.9-0.2 0.6-0.3 1.3-0.4 2s-0.1 1.4-0.1 1.9c0 1.1 0 1.5 0.2 2.5 0.1 0.5 0.2 1.3 0.4 2 0.5 2.1 1.5 4.2 3 6.1 1.4 1.8 3.2 3.5 6 5.2 0.9 0.5 1.9 1.1 2.9 1.6s2.1 0.9 3.4 1.3c1.2 0.4 2.6 0.8 4.1 1.2 1.4 0.3 2.9 0.6 4.5 0.9 1.6 0.2 3.3 0.4 5.1 0.5s3.5 0.2 5.8 0.2 5.1-0.1 7.9-0.3c4.9-0.4 9.8-1 14.6-2.4 4.6-1.1 9-2.7 13.3-4.8 1.4-0.7 2.8-1.4 3.9-2 2.3-1.3 3.5-2 5.8-3.6s5.8-4.2 8-6.1c1.1-0.9 1.8-1.6 2.6-2.3s1.5-1.4 2.9-2.8 3.3-3.6 5.2-5.9c6.1-7.3 11.3-15.5 16.6-23.5 3.1-4.6 6.3-9.1 10.1-13.4 2-2.2 4.2-4.4 6.5-6.5 3.8-3.3 7.8-5.7 11.9-8.3l-1.2-1.7c-8.4 5.2-16.3 11.4-24.3 17.4-9.2 6.9-18.4 13.4-28.6 18.1-2.3 1.1-4.6 2-7 2.9-1.7 0.6-3.5 1.2-5.1 1.6-1.6 0.5-3.1 0.8-4.6 1.1s-3 0.5-4.2 0.7-2.1 0.2-3 0.3c-0.9 0-1.8 0.1-2.8 0.1-2 0-4.4-0.2-6.3-0.5-1-0.2-1.8-0.4-2.6-0.7s-1.6-0.6-2.3-0.9c-4.7-2.2-7.3-5.7-7.9-10.1-0.1-0.6-0.1-1.3-0.1-2s0.1-1.5 0.1-2.2c0.1-0.8 0.2-1.5 0.4-2.4 0.5-2.3 1.3-4.9 2.3-7.2 1.5-3.5 3.3-6.9 5.2-10.3 2.2-3.8 4.5-7.6 6.9-11.4 9.4-1.6 18.7-3.4 27.8-6.1 4.9-1.3 9.7-2.9 14.5-4.6 10.9-3.9 21.5-8.4 31.8-13.4 9.5-4.6 18.9-9.8 28-15.7 7.8-5.1 15.5-10.7 22.6-17.4 3.6-3.6 7.1-7.3 9.8-11.7 0.5-0.8 1-1.7 1.4-2.4 0.8-1.5 1.3-2.8 1.8-4.3 0.2-0.8 0.4-1.6 0.6-2.5 0.1-0.9 0.2-1.7 0.2-2.3s0-0.9 0-1.2c-0.1-1.8-0.7-3.4-2.2-4.9-1-1.1-2.3-1.9-4.3-2.6-1.6-0.6-3.4-0.9-5.6-1.1-0.8-0.1-1.5-0.1-2.7 0-1.2 0-2.7 0.1-4.2 0.2-7.9 0.7-15.5 3.1-22.9 5.8-16.3 6.1-31.3 15-46 24.5-10.6 7.1-21.1 14.3-31.1 22.4-6.2 5.1-12.2 10.5-17.5 16.3-5.9 6.5-11 13.5-15.8 20.6-5.3-0.1-10.6-0.5-15.9-1.1-0.9-0.1-1.9-0.3-2.8-0.4-0.9-0.2-1.9-0.3-3-0.6-2.3-0.6-5.7-1.7-7.7-2.6-1-0.4-1.6-0.8-2.2-1.1-2.3-1.2-5.1-3.1-7.5-5.4-0.6-0.5-1.1-1.1-1.7-1.8-1.2-1.4-2.6-3.5-3.5-5.3-1.3-2.6-2-5.3-2.4-7.8-0.1-0.8-0.2-1.6-0.3-2.3-0.1-1.3-0.1-2-0.1-3.2 0-0.6 0-1.4 0.1-2.2 0.2-2.9 0.9-6.4 2.1-9.9 0.3-0.9 0.6-1.7 1.1-2.8s1.1-2.4 1.8-3.6c0.7-1.3 1.5-2.5 2.4-3.8s1.9-2.7 3-4 2.2-2.6 3.5-3.9c3.8-3.8 8.6-7.5 13.3-10.5 5.3-3.2 10.7-6 16.5-8.1 3.2-1.3 6.5-2.4 9.9-3.2 5.2-1.5 10.5-2.5 15.8-3.2s10.7-0.9 16.1-1.1c5.8 0.1 11.7 0.5 17.5 1l0.3-1.8c-5.4-0.6-10.8-1-16.2-1.3-6.2-0.2-12.5 0.3-18.6 1.1-5.5 0.7-11 1.7-16.3 3.3-3.2 0.9-6.4 1.9-9.5 3-5.7 2.1-11.2 4.6-16.5 7.7-2 1.2-4 2.4-5.8 3.7-1.8 1.2-3.4 2.5-5 3.8s-3.1 2.7-4.4 4-2.5 2.6-3.6 3.9-2.2 2.7-3.1 4-1.7 2.5-2.4 3.8-1.4 2.6-1.8 3.6c-1 2.2-1.4 3.3-2.1 5.7-0.3 1.2-0.7 2.9-1 4.6-0.5 3.3-0.4 6.8 0.1 10.2 0.3 1.7 0.7 3.4 1 4.5s0.5 1.7 0.8 2.3c1 2.5 2.1 4.4 3.5 6.4 0.4 0.5 0.8 1 1.2 1.6 1 1.2 2.2 2.5 3.5 3.6 1.9 1.8 4.2 3.3 6.3 4.6 4.1 2.4 8.8 4.3 14 5.2 5.8 1.5 12 1.7 18.2 1.6z"/>
<rect class="st3" y=".4" width="202.6" height="179.5"/>
<path class="st2" d="m586.1 117.4c0.5 0 0.7-0.1 0.9 0 1.1 0 2.6 0.2 4 1.5 1.3 1.3 2 3.3 1.7 5.4-0.1 0.6-0.2 1.1-0.4 1.9-0.1 0.4-0.3 1-0.5 1.5s-0.5 1.1-0.9 1.9-1 1.8-1.6 2.9c-0.6 1-1.3 2-2.2 3.3-0.9 1.2-2.1 2.8-3.3 4.2-1.2 1.5-2.5 2.9-4.8 5.3s-5.6 5.6-9.1 8.7c-3.5 3-7.2 5.9-9.7 7.7s-3.7 2.6-5 3.3-2.5 1.5-3.6 2c-1 0.5-1.9 0.9-2.7 1.2s-1.7 0.6-2.3 0.8-1.1 0.3-1.6 0.4-0.9 0.1-1.3 0.2c-1.3 0.1-2.2 0-3.3-0.5-1.2-0.5-2.2-1.5-2.8-2.6-0.4-0.8-0.5-1.4-0.6-1.9 0-0.6 0-1.9 0.3-3.2 0.2-0.8 0.5-1.5 0.7-1.8 0.1-0.2 0.2-0.4 0.7-1.3s1.5-2.6 2.6-4.2 2.2-3.2 3.5-5 2.9-3.9 4.6-5.8 3.3-3.9 4.7-5.4c1.3-1.5 2.3-2.5 3.3-3.5s2-2 3.2-3c2.5-2.2 5.8-4.8 8.8-6.8 1.5-1 3.1-1.9 4.7-2.7s3.2-1.6 4.4-2.1 2-0.8 2.8-1 1.6-0.4 2.5-0.6c0.9-0.7 1.8-0.8 2.3-0.8m-321.9 22.7c1.7-2 3.4-3.9 5.3-5.7 1.8-1.8 3.7-3.6 5.5-5.1s3.4-2.8 5.1-4 3.4-2.3 4.9-3.2 2.8-1.6 4.1-2.1 2.7-1.1 3.7-1.5c1-0.3 1.6-0.5 2.3-0.6 0.6-0.1 1.3-0.2 1.9-0.3s1.3-0.1 1.8-0.1 0.8 0 1.1 0c1.1 0.1 1.7 0.3 2.2 0.6 1.1 0.5 1.2 0.8 1.6 1.3 0.6 0.8 1.1 2.1 0.5 4-0.1 0.4-0.4 1-0.8 1.7-0.2 0.3-0.4 0.6-0.7 1.1s-0.8 1.1-1.4 1.7-1.1 1.2-1.9 1.8c-0.8 0.7-1.7 1.4-2.7 2.1s-2 1.4-3.1 2-2.2 1.2-3.5 1.8c-1.4 0.6-3 1.2-4.7 1.8-1.7 0.5-3.4 1-5.6 1.5s-4.8 0.9-7.5 1.2c-2.8-0.1-5.5 0-8.1 0zm-64.1 0c1.7-2 3.4-3.9 5.3-5.7 1.8-1.8 3.7-3.6 5.5-5.1s3.4-2.8 5.1-4 3.4-2.3 4.9-3.2 2.8-1.6 4.1-2.1 2.7-1.1 3.7-1.5c1-0.3 1.6-0.5 2.3-0.6 0.6-0.1 1.3-0.2 1.9-0.3s1.3-0.1 1.8-0.1 0.8 0 1.1 0c1.1 0.1 1.7 0.3 2.2 0.6 1.1 0.5 1.2 0.8 1.6 1.3 0.6 0.8 1.1 2.1 0.5 4-0.1 0.4-0.3 1-0.8 1.7-0.2 0.3-0.4 0.6-0.7 1.1-0.4 0.5-0.9 1.1-1.4 1.7s-1.1 1.2-1.9 1.8c-0.8 0.7-1.7 1.4-2.7 2.1s-2.1 1.4-3.1 2c-1.1 0.6-2.2 1.2-3.5 1.8-1.4 0.6-3 1.2-4.7 1.8-1.7 0.5-3.4 1-5.6 1.5s-4.8 0.9-7.5 1.2c-2.7-0.1-5.4 0-8.1 0zm415.9 59.7h5c9.1-5.2 18.4-10 27.6-14.6-3.5 5.1-7.3 9.9-11.1 14.6h9.1c5.8-6.4 11.7-12.8 17.3-19.3 1-1.1 1.9-2.2 2.9-3.3 4.3-1.7 8.6-3.5 12.8-5.4s8.4-3.9 12.1-5.8 6.8-3.6 9.8-5.5 6-3.9 9.1-6.3c3.1-2.3 6.4-5 9.6-7.7s6.4-5.5 9.5-8.4v-2.4c-5.8 5.2-11.8 10.3-18.1 15.1-2.4 1.9-4.9 3.7-7.4 5.4-2.1 1.5-4.3 2.9-6.5 4.2s-4.5 2.6-7.3 4.1-6.3 3.1-9.7 4.7c-3.5 1.6-7 3-10.5 4.4l51-58.2-13.3 0.4c-2.9 3.5-5.8 7-9.1 10.2-5.2 5-10.5 9.6-16 13.8-11.1 8.6-22.5 16.1-34 23.5-3 1.9-6 3.9-9.2 5.2-1 0.4-2 0.7-3.1 0.9-0.5 0.1-1.1 0.1-1.4 0.1h-0.8c-0.9-0.1-1.8-0.7-2.1-1.6-0.1-0.3-0.3-1 0.3-2.5 0.1-0.3 0.3-0.6 0.4-0.9s0.3-0.6 0.7-1.1c0.3-0.5 0.8-1.1 1.3-1.8 3.3-4 7.7-7.6 11.7-11.3 2.7-2.5 5.4-5 7.8-8.1 0.9-1 1.7-2.1 2.5-3.1s1.5-2.2 2.3-3.4 1.6-2.7 2.3-4.2 1.3-3 1.7-4.2 0.6-2.1 0.7-3.1c0.1-0.9 0.2-1.9 0.2-2.5s0-0.9 0-1.2c-0.2-1.7-1-3.3-2.1-4.3-0.9-0.8-1.4-1-2-1.1-0.3-0.1-0.7-0.1-1.2-0.1-0.2 0-0.5 0-1 0.1-0.6 0.1-1.5 0.2-2.3 0.5-0.9 0.2-1.7 0.5-2.7 1-2 0.9-4.2 2-6.1 3.3-2.6 1.6-5 3.4-7.4 5.1-4.9 3.8-9.7 7.6-14.4 11.5v0.1c-7.8 7-15.8 13.9-24.2 20.1-5.2 3.8-10.5 7.4-16 10.5-0.5 0.3-1.1 0.6-1.7 0.8s-1.2 0.5-1.6 0.6-0.7 0.2-0.9 0.3c-1.5 0.4-1.7 0.3-2.3 0.3-0.5 0-1.2 0-1.5-0.2s-0.6-0.5-0.8-0.8c-0.1-0.3-0.3-1.2-0.1-2 0.1-0.5 0.5-1.5 1.2-2.4 3.5-5.3 7.7-10.2 12-15.3 8.2-9.5 16.5-18.7 24.5-28.1l4.1-4.9-13.2 1-9.8 10.7c0.5-2.1 0.9-4.6 0.6-6.3-0.2-1-0.4-1.6-0.6-2.1-0.4-0.9-1.1-1.6-1.9-2.2-0.5-0.4-1.4-0.8-2.5-1-0.3-0.1-0.7-0.1-1.1-0.2-0.4 0-1-0.1-1.5-0.1s-1.1-0.1-2.5 0c-1.5 0.1-3.9 0.2-6.2 0.6-2.4 0.4-4.7 1-6.9 1.6s-4.2 1.4-6.2 2.1c-2 0.8-3.9 1.6-6.2 2.8s-4.7 2.5-7.1 4.1-4.7 3.3-6.3 4.6-2.5 2.2-3.5 3.1c-0.9 0.9-1.7 2-2.6 2.8-0.7 0.7-1.5 1.3-2.2 1.9-3.7 3-7.6 5.5-11.7 6.2-0.8 0.1-1.7 0.2-2.2 0.2s-0.9 0-1.2 0c-0.9-0.1-1.9-0.3-2.8-0.5 4.2-4.2 8-8.9 11.1-13.9 1-1.7 2-3.4 2.6-4.7s1-2.2 1.3-3c0.3-0.9 0.6-1.8 0.8-2.5s0.3-1.1 0.3-1.6c0.1-0.8 0.1-1.5 0.1-1.8 0-0.5-0.2-1.1-0.4-1.4-0.4-0.7-1.3-1.2-2.5-0.8-0.5 0.2-1.1 0.6-1.7 1.6-0.1 0.2-0.3 0.4-0.4 0.7-0.2 0.3-0.3 0.7-0.5 1s-0.3 0.8-0.5 1.3-0.4 1.3-0.6 2-0.4 1.5-0.6 2.4-0.4 1.9-0.7 2.9c-0.8 3-2 6-3.9 8.8s-4.5 5.3-7.1 7.9c-2 2-4 3.9-6.2 5.7-2.1 1.8-4.3 3.5-6.1 4.8-1.7 1.3-3 2.1-4.3 2.9-2.2 1.4-4.5 2.6-6.9 3.8-1.8 0.9-3.5 1.9-5.3 2.7-1.8 0.9-3.6 1.7-5.1 2.3s-2.7 1.1-3.9 1.5-2.4 0.7-3.4 1c-1 0.2-1.8 0.4-2.6 0.5s-1.6 0.1-2.2 0.2h-1.1c-2.1-0.2-2.7-1-3-1.5-0.4-0.6-0.5-1.4-0.2-2 0.2-0.4 0.8-1.1 1.3-1.7l42.3-47.6h-13c-4.5 4.3-9.1 8.6-13.7 12.8-5.8 5.2-11.7 10.4-17.6 15.4-5.5 4.3-11.1 8.6-16.8 12.9-1.9 1.4-3.9 2.8-5.9 4.1s-4.1 2.5-5.5 3.4c-1.4 0.8-2.2 1.2-2.9 1.6-1.5 0.7-3 1.4-4.5 1.9-0.8 0.2-1.5 0.5-2.1 0.6s-1 0.2-1.3 0.2c-0.6 0.1-1.2 0.1-1.4 0-1.2-0.1-2.1-1-2-2.2 0-0.3 0.1-1 0.6-2 0.4-0.8 1.4-2.2 2.5-3.6l40.1-45.1h-13.4c-6 3.1-12 6.3-17.8 9.7-2.5 1.5-5.1 3.1-7.5 4.8-2.5 1.7-4.8 3.5-7.2 5.2-0.3 0.3-0.6 0.5-1 0.8v0.1c-5.5 5-11 9.8-16.7 14.3s-11.6 8.7-17.5 12.5c-1.3 0.8-2.7 1.6-4 2.3s-2.8 1.4-3.8 1.9-1.7 0.7-2.5 1c-0.7 0.2-1.4 0.4-1.9 0.5s-0.8 0.2-1.1 0.2-0.6 0-0.8 0.1c-1.1 0-1.9-0.2-2.9-0.9-1.1-0.7-1.6-1.5-1.7-2.4-0.1-0.6 0-1.9 1-3.5l0.6-0.9c0.2-0.3 0.5-0.6 0.9-1 0.4-0.5 1-1.1 1.7-1.7 3.8-3.8 8.1-6.4 11.9-9.5 2.6-2.1 5.1-4.3 7.5-6.6 1.2-1.2 2.3-2.4 3.3-3.6s1.9-2.3 2.6-3.5 1.5-2.4 2-3.5 0.9-2.1 1.2-3.1 0.6-2 0.7-3.1c0.2-1 0.2-2.1 0.3-2.8v-1.6s-0.1-0.9-0.2-1.2c-0.1-0.7-0.3-1.3-0.6-1.9-0.7-1.5-1.1-1.8-1.8-2.3-0.9-0.7-1.9-1-3.4-1-0.3 0-0.6 0-1.2 0.1s-1.4 0.2-2.3 0.4c-0.8 0.2-1.6 0.5-2.6 0.8-1 0.4-2.1 0.8-3.2 1.3-4.8 2.1-9.4 5.1-13.9 8-4.4 2.9-8.9 5.9-13.2 8.9-7.1 5-14 10.5-21 15.9 3.3-4.2 6.6-8.6 9.8-13 0.9-1.3 1.8-2.6 2.6-4s1.5-2.8 2.1-3.9c0.5-1.1 0.8-1.9 1.1-2.7s0.5-1.6 0.6-2.3c0.3-1.4 0.3-2.4 0.2-3.6 0-0.6-0.1-1.1-0.2-1.6-0.1-0.8-0.3-1.1-0.5-1.6-0.8-1.7-2.2-2.5-3.4-2.8-0.2 0-0.4-0.1-0.7-0.1s-0.6 0-1 0-0.7 0.1-1.1 0.1c-0.4 0.1-0.9 0.2-1.5 0.4s-1 0.3-1.6 0.6-1.4 0.6-2.2 1-1.5 0.8-2.5 1.4-2.3 1.4-3.6 2.3c-6.8 4.5-13.2 10.1-19.6 15.7v0.2c-3.5 3.1-7.1 6.1-10.8 9.1-3.7 2.9-7.4 5.7-11.2 8.5-3.7 2.6-7.5 5.2-11.6 7.4-2.3 1.3-4.8 2.5-6.6 3.3s-3.2 1.3-4.6 1.8-2.7 0.9-4.3 1.3-3.4 0.7-5.2 0.9-3.7 0.2-4.8 0.2-1.6-0.1-2-0.2c-1.2-0.3-2.5-0.7-3.3-1.2-1.7-1-2.5-2.5-2.7-3.8-0.1-0.5-0.1-1 0-1.8 0-0.3 0.1-0.7 0.2-1.1s0.3-1.1 0.5-1.7 0.5-1.2 0.8-2 0.8-1.7 1.4-2.6c0.5-0.9 1.1-1.8 1.9-3.1 0.9-1.3 2-2.9 3.2-4.5s2.5-3.1 3.8-4.6c4.1-0.2 8.2-0.5 12.2-1 2.4-0.3 4.7-0.7 6.8-1.1s3.8-0.8 5.6-1.3 3.5-1 5-1.5 2.7-1 4-1.6c1.2-0.6 2.4-1.2 3.5-1.8s2.1-1.3 3-2 1.8-1.5 2.4-2.1 0.9-1 1.2-1.4c0.9-1.2 1.6-2.7 2-3.9 0.4-1.5 0.4-3.2 0.1-4.5-0.5-1.9-1.9-3.5-3.9-4.5-0.3-0.2-0.7-0.3-1.1-0.4-0.9-0.3-1.9-0.5-2.9-0.6-0.5 0-1-0.1-2 0-1 0-2.6 0.2-4.1 0.4s-3 0.5-5.2 1.1c-2.1 0.6-4.8 1.5-7.5 2.4s-5.3 2.1-7.7 3.2-4.6 2.3-6.7 3.5-4.2 2.6-5.9 3.9-3.1 2.5-4.4 3.7c-1.3 1.3-2.5 2.6-3.7 4-8.5 7.3-17 14.3-26.1 20.4-2.2 1.5-4.5 2.9-6.9 4.2s-4.8 2.5-6.6 3.3-3.2 1.3-4.6 1.8-2.7 0.9-4.3 1.3-3.4 0.7-5.2 0.9-3.6 0.2-4.8 0.2-1.6-0.1-2-0.2c-1.2-0.3-2.5-0.7-3.3-1.2-1.7-1-2.5-2.5-2.7-3.8-0.1-0.5-0.1-1 0-1.8 0-0.3 0.1-0.7 0.2-1.1s0.3-1.1 0.5-1.7 0.4-1.2 0.8-2 0.8-1.7 1.4-2.6c0.5-0.9 1.1-1.8 1.9-3.1 0.9-1.3 2-2.9 3.2-4.5s2.5-3.1 3.8-4.6c4.1-0.2 8.2-0.5 12.2-1 2.4-0.3 4.7-0.7 6.8-1.1s3.8-0.8 5.6-1.3 3.5-1 5-1.5 2.7-1 4-1.6 2.4-1.2 3.5-1.8 2.1-1.3 3-2 1.8-1.5 2.4-2.1 0.9-1 1.2-1.4c0.9-1.2 1.6-2.7 2-3.9 0.4-1.5 0.4-3.2 0.1-4.5-0.5-1.9-1.9-3.5-3.9-4.5-0.3-0.2-0.7-0.3-1.1-0.4-0.9-0.3-1.9-0.5-2.9-0.6-0.5 0-1-0.1-2 0-1 0-2.6 0.1-4.1 0.4s-3.1 0.6-4.9 1c-1.8 0.5-3.9 1.1-6 1.8s-4.1 1.5-6.3 2.4-4.5 2-6.8 3.2-4.5 2.5-6.2 3.6-3 2.1-4.3 3.1-2.5 2.1-3.5 3.1c-2.1 2.1-3.7 4.1-5.2 6.4-5.3 4.4-10.7 8.8-16.1 13.1-4.1 3.1-8.3 6.2-12.6 9.1-1.4 0.9-2.8 1.8-4.2 2.6s-2.9 1.6-4 2.1c-1 0.5-1.7 0.8-2.3 1s-1.3 0.5-1.8 0.6c-0.5 0.2-0.9 0.2-1.3 0.3s-0.8 0.1-1.1 0.2c-0.9 0.1-1.6 0-2-0.1-0.9-0.3-1.1-0.5-1.4-1.1-0.1-0.3-0.3-1.2-0.1-2 0.1-0.5 0.4-1.2 1.3-2.7 0.2-0.3 0.4-0.6 0.9-1.3 0.4-0.6 1.1-1.5 1.9-2.4 3.5-4.3 7.5-8.5 11.4-12.7 3.6-4 7.2-8 10.9-12 1.5-1.6 3-3.2 4.3-4.9 0.5-0.6 0.9-1.2 1.2-1.7s0.6-0.8 0.8-1.2 0.4-0.7 0.5-1.1c0.4-1 0.6-1.6 0.7-2.8 0-0.8-0.1-1.8-0.2-2.7-0.3-1.4-0.9-2.7-1.6-3.6-1-1.4-1.7-1.6-2.1-1.7-0.6-0.2-1.2-0.2-2.1 0-1.9 0.4-3.8 1-5.8 0.8-2.5-0.2-3.5-1-4.2-2.1-0.3-0.4-0.5-0.9-0.6-1.5-0.2-0.7-0.2-2.7 0.6-4.4 0.1-0.3 0.3-0.6 0.5-0.9 0.2 0.2 0.3 0.3 0.6 0.7 0.4 0.4 1.1 1.2 1.6 1.6 0.8 0.7 1.4 0.9 2.4 1.1 1.5 0.2 3.8-0.6 4.7-2.4 0.4-0.9 0.6-1.8 0.5-2.5-0.2-1.5-1.2-3.1-3.4-3.7-2.3-0.6-4.8 0.1-6.7 2.3-0.2 0.3-0.4 0.6-0.7 0.9-0.5 0.8-1 1.9-1.3 2.9-0.2 0.5-0.3 1-0.4 1.6-0.1 1-0.1 1.8-0.1 2.3 0.1 0.8 0.2 1.5 0.4 2.2l-28 22.5 0.3 2.2c9.2-8 18.5-15.2 28-22.5 1.7 1 3.5 1.8 5.4 2 0.6 0.1 1.3 0.1 2 0.1 1.6 0 3.4-0.2 5.1-0.8-6 6.8-12.1 13.5-18.2 20.2-2.1 2.4-4 4.7-5.8 7.5-2.9 4.4-5.3 9.6-6.3 15.1-0.4 2.4-0.8 4.9-0.5 7.3 0.1 0.8 0.4 1.8 0.8 2.3 0.4 0.4 0.8 0.8 1.4 1 0.4 0.1 0.9 0.3 2.1 0.3 0.4 0 0.9 0 1.5-0.1 0.5-0.1 1.1-0.2 1.7-0.4 0.7-0.2 1.4-0.4 2.2-0.7s1.6-0.6 2.5-1.1c1-0.5 2.2-1.1 3.4-1.8s2.3-1.4 3.5-2.1c7.6-4.9 14.9-10.1 22-15.7 1.9-1.5 3.7-3 5.6-4.6-1.4 3.2-2.1 6.7-2.3 10.2-0.1 2.2 0 4.4 0.5 6.6 0.2 0.9 0.5 1.7 0.7 2.4 0.3 0.7 0.5 1.1 0.7 1.6 1.3 2.2 3.3 4 5.8 4.8 0.5 0.2 1 0.3 1.6 0.4s1.3 0.2 2 0.3 1.4 0.1 2.6 0.1 2.9-0.1 4.6-0.4c1.7-0.2 3.4-0.5 5.5-1.1s4.6-1.4 7.1-2.4c4.9-2 9.6-4.5 14.1-7.4 2.2-1.4 4.5-3 6.9-4.7 2.4-1.8 5.1-3.9 7.7-6s5.2-4.4 7.6-6.6c-1.9 3.7-3.1 7.8-3.3 12-0.2 2.4-0.1 4.8 0.5 7.1 0.2 0.9 0.5 1.7 0.7 2.4 0.3 0.7 0.5 1.1 0.7 1.6 1.3 2.2 3.3 4 5.8 4.8 0.5 0.2 1 0.3 1.6 0.4s1.3 0.2 2 0.3 1.4 0.1 2.6 0.1 2.9-0.1 4.6-0.4c1.7-0.2 3.4-0.5 5.5-1.1s4.6-1.4 7.1-2.4c4.9-2 9.6-4.5 14.1-7.4 2.2-1.4 4.5-2.9 7.1-4.9 2.6-1.9 5.6-4.3 8.6-6.8 3.7-3.1 7.2-6.5 10.8-9.6 4.9-4.2 9.8-8.4 14.8-12.3 2.2-1.6 4.3-3.2 5.9-4.3 1.5-1.1 2.4-1.6 3.4-2.2 0.9-0.5 1.8-1.1 2.5-1.4 0.7-0.4 1.2-0.6 1.6-0.8 0.9-0.4 1.6-0.6 2.1-0.7 0.4-0.1 0.8-0.1 1-0.1 1 0 2 0.6 2.4 1.4 0.3 0.6 0.2 0.8 0.1 1.1s-0.5 1.2-0.9 1.9c-2.6 3.7-5.7 7.2-8.7 10.7-4.4 5-8.9 10-13.4 14.9l-20.8 23.2 12.4-0.1c3.2-3 6.5-6 9.7-8.9 5-4.3 9.9-8.5 15-12.6 10-8 20.3-15.5 31.2-22.4 5.3-3.2 10.7-6.4 16.6-8.5 0.8-0.3 1.6-0.5 2-0.5 0.8-0.1 1 0 1.5 0.2 0.9 0.4 1.8 1.3 1.9 2 0.1 0.4 0.2 0.9-0.3 2-0.3 0.7-0.9 1.8-2.1 3.3-0.9 1.1-2 2.4-3.1 3.5-1.5 1.5-3 2.9-4.5 4.4-3.1 2.9-6.3 5.5-9.3 8.4-1.5 1.5-2.9 3-4.2 4.5s-2.5 3-3.5 4.5c-1.1 1.5-2 3.2-2.8 4.6-0.7 1.4-1.2 2.5-1.6 3.7s-0.7 2.4-0.8 3.2c-0.2 0.9-0.2 1.4-0.2 1.9s0 1 0 1.4c0 0.7 0.1 1.2 0.3 1.7 0.7 2.3 2.7 4.2 5.1 4.7 0.3 0.1 0.5 0.1 0.9 0.1 0.7 0.1 1.5 0.1 2.3 0 0.4 0 0.8-0.1 1.5-0.3s1.8-0.5 2.8-0.8c1-0.4 2-0.8 3.1-1.3s2.4-1.2 3.6-1.9 2.4-1.4 4.9-3c2.4-1.6 6-4.1 9.5-6.6 8.2-6 15.8-12.7 23.2-19.5 3-2.4 6.2-4.6 9.4-6.7s6.5-4.1 9-5.5c2.4-1.4 3.9-2.2 5.4-2.9 1.5-0.8 3.1-1.5 4.6-2.1-2.6 3.3-5.5 6.4-8.3 9.6-3.8 4.2-7.4 8.4-10.9 12.8-1.3 1.6-2.5 3.3-3.7 5s-2.3 3.5-3.1 5-1.4 2.7-1.9 3.9-1 2.5-1.3 3.5-0.5 2-0.6 3-0.1 1.9-0.1 2.5 0 0.7 0.1 0.9c0 0.2 0 0.3 0.1 0.5 0.1 0.4 0.3 1 0.5 1.4 0.5 1 1.2 1.7 2.4 2.1 0.3 0.1 0.7 0.2 1.4 0.3h1s1-0.1 1.6-0.2 1.2-0.2 2.1-0.4 2.2-0.6 3.4-1 2.5-0.9 3.8-1.6c1.3-0.6 2.8-1.4 4.2-2.2s2.8-1.7 4.2-2.7c5.9-4.1 11.6-8.4 17.2-12.8 7.6-6.2 15.1-12.5 22.5-19 0.9-0.8 1.8-1.5 2.7-2.3-2.4 3.4-5.3 6.5-8.1 9.6l-4.8 5.7s-3 3.9-4.1 5.5-1.8 2.8-2.5 3.9c-0.7 1.2-1.3 2.4-1.8 3.4s-0.8 1.8-1.1 2.6-0.5 1.6-0.7 2.4-0.3 1.4-0.3 2.1-0.1 1.4 0 1.8c0 0.5 0.1 0.8 0.1 1.1 0.4 1.7 1 2.4 1.9 3.1 0.9 0.6 1.9 0.9 3.2 1 0.4 0 0.7 0.1 1.5 0s2.1-0.1 3.4-0.3 2.5-0.5 4.1-1 3.5-1.1 5.5-1.8c1.9-0.7 3.8-1.5 6.8-3s7.2-3.8 11.2-6.3c5.9-3.8 11.3-8.3 16.6-12.8 0.9 0.3 1.8 0.6 2.7 0.9 0.5 0.1 1 0.2 1.6 0.3 1.2 0.2 2.8 0.1 4.2-0.1 0.7-0.1 1.4-0.3 2.3-0.5 0.8-0.3 1.8-0.6 2.7-1.1 1.6-0.8 3-1.7 4.4-2.7-2 3.8-3.2 8-3.5 12.3-0.1 1.4-0.1 2.9 0 3.9 0.1 1.1 0.2 1.8 0.3 2.4 0.1 0.7 0.3 1.4 0.5 2 0.4 1.2 0.8 2.2 1.5 3.2 0.3 0.5 0.6 1 0.9 1.3 0.8 1.1 1.6 1.7 2.7 2.3 1 0.5 2.1 0.9 3.3 1 0.4 0 0.8 0.1 1.3 0.1 0.6 0 1.3-0.1 2.1-0.2 1.5-0.2 3-0.7 4.7-1.4 0.8-0.3 1.6-0.7 2.7-1.3s2.5-1.4 3.8-2.2c6.8-4.2 13.1-10 19.7-15.1-1.2 3.4-2.6 6.8-3.4 10.3-0.2 0.7-0.3 1.4-0.4 1.9-0.3 1.6-0.4 2.6-0.2 4 0 0.3 0.1 0.6 0.2 1.1 0.2 0.6 0.5 1.3 0.8 1.6 0.6 0.7 1.5 1.2 2.7 1.3h0.7 0.8s0.6-0.1 1.1-0.2 1.2-0.3 1.9-0.5 1.4-0.5 2.3-0.9 2.1-0.9 3.2-1.5 2.3-1.2 3.8-2.1c1.6-1 3.6-2.3 5.6-3.6 10.1-6.8 19.8-15.2 29.3-23.7v0.5c4-3.6 8.1-7.2 12.4-10.6 3.4-2.6 6.8-5.2 10.4-7.4 0.9-0.5 1.8-1 2.5-1.5s1.4-0.7 2-1 1.2-0.6 1.8-0.8 0.9-0.4 1.3-0.5l1.2-0.3c0.3-0.1 0.6-0.1 0.9-0.2 0.5-0.1 1-0.1 1.2-0.1 1.3 0.1 2.7 1 2.9 2.6v0.9c-0.1 0.6-0.6 2.3-1.4 3.6-0.2 0.3-0.4 0.6-0.9 1.2s-1.1 1.3-1.8 2c-4.2 4.3-8.8 7.3-13.1 10.8-2.4 2-4.8 4.1-7 6.3-1.1 1.1-2.2 2.3-3.1 3.4-3.5 4.3-5.7 8.9-6.3 13.9-0.2 1.2-0.3 2.4-0.2 3.6 0.2 1.4 0.6 2.9 1.2 3.7 0.8 1.1 2 1.9 3.3 2.3 0.3 0.1 0.5 0.1 1 0.1h1.5s1.1-0.1 1.8-0.3 1.6-0.4 2.4-0.7 1.7-0.6 2.8-1c1.1-0.5 2.4-1.1 3.7-1.7 6.3-3.2 12.5-7.3 18.5-11.5 6.6-4.7 13-9.6 19.3-14.8 2.5-2.1 4.9-4.2 7.4-6.3l0.5 0.4c-11.1 12.5-22.1 25.2-33 38-2.2 2.6-4.3 5.2-6.4 7.9-9 4.1-18.1 8.2-26.9 13-2.7 2.2-5.7 3.8-8.6 5.5z"/>
<rect class="st3" x="126.6" y="102.1" width="603.1" height="97.8"/>
<path class="st4" d="m570.5 237.8c-0.4 0.7-0.7 1.3-1 2s-0.6 1.4-0.8 2c-0.4 1.1-0.5 1.9-0.7 2.9 0 0.5-0.1 0.9-0.1 1.3 0 1.2 0 1.7 0.4 3 0.2 0.9 0.7 1.8 1.3 2.5 0.6 0.8 1.3 1.4 2.2 1.9 0.3 0.2 0.6 0.3 1 0.5 0.8 0.3 2.1 0.7 3 0.9 0.9 0.1 1.4 0.2 2.2 0.2 0.4 0 0.9-0.1 1.3-0.1s0.9-0.1 1.7-0.3 1.8-0.4 2.8-0.6c1-0.3 2-0.6 3-1s2-0.8 3.5-1.6 3.6-1.9 5.6-3.2c4.8-3 9-6.6 13.1-10.3-1.4-0.1-2.9-0.2-4.3-0.5-2.5 2.3-5.1 4.7-7.8 6.8-1.7 1.3-3.5 2.5-4.9 3.5-1.5 1-2.6 1.6-3.8 2.2s-2.4 1.1-3.4 1.5-1.8 0.6-2.6 0.8-1.6 0.4-2.4 0.5-1.6 0.2-2.2 0.2-0.9 0-1.2 0c-1.5-0.2-2.2-0.5-2.9-1-1.2-0.8-2.1-2.1-2.4-3.7-0.1-0.3-0.1-0.5-0.1-1v-1.4s0.1-1 0.2-1.6c0.2-1.2 0.7-2.5 1.2-3.6s1.1-2.1 1.7-3.1c-1.2 0.3-2.5 0.3-3.6 0.3"/>
<rect class="st1" x="567.9" y="237.2" width="41" height="17.7"/>
<rect class="st3" y=".4" width="729.7" height="254.4"/>
</svg>
