<?xml version="1.0" encoding="UTF-8"?>
<svg enable-background="new 0 0 411.514 411.514" fill="#71c839" opacity=".07" version="1.1" viewBox="0 0 411.51 411.51" xml:space="preserve" xmlns="http://www.w3.org/2000/svg">
	
		
			<path d="m354.74 265.59c-2.56-10.752-8.704-19.968-18.432-25.6-2.56-1.536-5.12-3.072-8.192-4.096-2.048-1.024-4.608 0-6.144 2.048l-37.376 59.904c-1.024 2.048-1.024 4.608 1.024 6.144 2.048 2.048 4.096 3.584 6.656 5.12 6.656 4.096 14.336 6.144 22.016 6.144 13.824 0 27.136-6.656 34.816-19.456 6.144-8.192 7.68-19.456 5.632-30.208zm-14.336 25.6c-4.608 7.168-11.264 11.776-19.456 13.824s-16.384 0.512-23.552-4.096c-0.512-0.512-1.024-1.024-2.048-1.024l32.768-52.736c1.024 0.512 1.536 1.024 2.048 1.536 7.168 4.608 11.776 11.264 13.824 19.456 2.56 7.68 1.024 15.872-3.584 23.04z"/>
		
	
	
		
			<path d="m331.18 279.42-3.584-2.048c-2.56-1.536-5.632-1.024-7.168 1.536s-1.024 5.632 1.536 7.168l3.584 2.048c1.024 0.512 2.048 1.024 2.56 1.024 1.536 0 3.584-1.024 4.096-2.56 2.048-2.56 1.536-5.632-1.024-7.168z"/>
		
	
	
		
			<path d="m320.43 295.8-0.512-6.144c-0.512-2.56-3.072-4.608-5.632-4.608-2.56 0.512-5.12 2.56-4.608 5.632l0.512 6.144c0.512 2.56 2.56 4.608 5.12 4.608h0.512c2.56-0.512 5.12-2.56 4.608-5.632z"/>
		
	
	
		
			<path d="m338.35 264.57c-0.512-2.56-3.072-4.096-6.144-3.072l-5.12 2.048c-2.56 1.024-4.096 4.096-3.072 6.656 0.512 2.048 2.56 3.584 4.608 3.584 0.512 0 1.024 0 1.536-0.512l5.12-2.048c2.56-1.024 4.096-4.096 3.072-6.656z"/>
		
	
	
		
			<path d="m142.26 190.84-53.76-46.08c-2.048-1.536-4.608-1.536-6.656 0s-4.096 3.584-6.144 5.632c-7.168 8.192-10.752 18.944-9.728 30.208 1.024 10.752 6.144 20.992 14.336 28.16 7.68 6.656 16.896 9.728 26.624 9.728h3.072c10.752-1.024 20.992-6.144 28.16-14.336 2.048-2.048 3.584-4.608 5.12-7.168 1.024-2.048 0.512-4.608-1.024-6.144zm-11.264 6.656c-5.632 6.144-12.8 10.24-20.992 10.752s-16.384-2.048-22.528-7.168c-6.144-5.632-10.24-12.8-10.752-20.992s2.048-16.384 7.168-22.528l1.536-1.536 47.104 39.936-1.536 1.536z"/>
		
	
	
		
			<path d="m102.83 183.16c-2.048-2.048-5.632-1.536-7.168 0.512l-3.072 3.072c-2.048 2.048-1.536 5.632 0.512 7.168 1.024 1.024 2.048 1.024 3.584 1.024s3.072-0.512 4.096-1.536l2.56-3.072c2.048-2.048 1.536-5.632-0.512-7.168z"/>
		
	
	
		
			<path d="m92.081 170.36-6.144-0.512c-3.072 0-5.12 2.048-5.12 5.12s2.048 5.12 5.12 5.12l6.144 0.512c2.56 0 5.12-2.048 5.12-5.12s-2.048-5.12-5.12-5.12z"/>
		
	
	
		
			<path d="m117.68 197.5-1.024-5.632c-0.512-2.56-3.072-4.608-6.144-4.096-2.56 0.512-4.608 3.072-4.096 6.144l1.024 5.632c0.512 2.56 2.56 4.096 5.12 4.096h1.024c2.56-0.512 4.608-3.072 4.096-6.144z"/>
		
	
	
		
			<path d="m329.14 193.91c-3.072-10.752-9.728-19.456-18.944-25.088-9.728-5.632-20.48-7.168-31.232-4.096s-19.456 9.728-25.088 18.944c-1.536 2.56-2.56 5.12-3.584 8.192-0.512 2.048 0 4.608 2.56 6.144l61.44 35.328h2.048c1.536 0 3.072-0.512 3.584-1.536 2.048-2.048 3.584-4.096 5.12-6.656 5.632-9.728 7.168-20.48 4.096-31.232zm-12.8 25.6c-0.512 0.512-0.512 1.024-1.024 2.048l-53.76-30.72c0.512-1.024 0.512-1.536 1.024-2.56 4.096-7.168 10.752-12.288 18.944-14.336s16.384-1.024 23.552 3.072 12.288 10.752 14.336 18.944 1.024 16.384-3.072 23.552z"/>
		
	
	
		
			<path d="m300.46 185.21c-2.56-1.536-5.632-0.512-7.168 2.048l-2.048 3.584c-1.536 2.56-0.512 5.632 2.048 7.168 1.024 0.512 1.536 0.512 2.56 0.512 1.536 0 3.584-1.024 4.608-2.56l2.048-3.584c1.536-2.56 0.512-5.632-2.048-7.168z"/>
		
	
	
		
			<path d="m310.19 197.5-5.632 1.024c-2.56 0.512-4.608 3.072-4.608 5.632 0.512 2.56 2.56 4.608 5.12 4.608h0.512l5.632-1.024c2.56-0.512 4.608-3.072 4.608-5.632 0-3.072-2.56-5.12-5.632-4.608z"/>
		
	
	
		
			<path d="m287.15 187.77-2.048-5.12c-1.024-2.56-4.096-4.096-6.656-2.56-2.56 1.024-4.096 4.096-2.56 6.656l2.048 5.12c1.024 2.048 2.56 3.072 4.608 3.072 0.512 0 1.536 0 2.048-0.512 2.56-1.024 4.096-4.096 2.56-6.656z"/>
		
	
	
		
			<path d="m201.65 128.89c-0.512-2.048-2.048-3.584-3.584-4.096l-62.464-16.384h-1.024c-0.512 0-0.512-0.512-1.024-0.512l-62.464-16.384c-2.048-0.512-4.096 0-5.12 1.536-2.048 2.048-44.544 51.2-31.744 94.72 6.656 22.528 27.648 38.912 61.44 48.128l-39.936 153.6-31.232-8.192c-2.56-0.512-5.632 1.024-6.144 3.584s1.024 5.632 3.584 6.144l72.704 18.944h1.536c2.048 0 4.608-1.536 5.12-3.584 0.512-2.56-1.024-5.632-3.584-6.144l-31.744-7.68 39.936-153.6c11.264 2.56 22.016 4.096 31.232 4.096 18.944 0 34.304-5.632 45.568-16.384 32.768-31.232 19.456-95.232 18.944-97.792zm-25.6 90.112c-14.848 14.336-38.912 17.408-71.168 8.704h-2.048c-32.768-8.704-52.224-23.04-58.368-42.496-5.632-17.92 1.024-37.888 8.704-53.76v0.512l3.584-0.512c10.24-1.536 19.968-2.56 36.864 1.536 16.384 4.096 24.576 10.24 32.768 16.384 8.704 6.656 17.92 13.312 36.352 17.92 9.728 2.56 17.92 3.584 24.064 3.584 2.56 0 5.12 0 7.168-0.512-0.512 17.408-5.12 36.352-17.92 48.64zm-10.24-61.44c-16.384-4.096-24.576-10.24-32.768-16.384-8.704-6.656-17.92-13.312-36.352-17.92-16.896-4.608-27.648-3.584-37.376-2.56 5.12-8.192 10.24-14.848 12.8-18.432l58.88 15.36h1.024c0.512 0 0.512 0.512 1.024 0.512l58.88 15.36c1.024 4.608 2.048 14.336 2.56 26.112-7.168 1.024-15.872 1.024-28.672-2.048z"/>
		
	
	
		
			<path d="m393.14 382.33c-1.024-2.56-3.584-4.096-6.656-3.072l-30.72 9.728-15.36-47.104c47.104-33.28 45.568-91.648-4.608-174.59-12.288-19.968-18.432-42.496-20.992-61.952 16.384-1.536 30.208-9.216 38.4-22.016 8.704-13.312 11.264-30.208 6.144-45.568-4.608-13.824-13.824-25.088-26.624-31.744s-27.648-7.68-41.472-3.584c-27.136 8.704-42.496 36.864-36.352 64l-66.56 21.504c-1.536 0.512-3.072 2.048-3.584 3.584s0 3.584 1.024 4.608c0.512 0.512 42.496 47.104 46.592 103.94 7.68 95.744 40.448 144.38 97.28 144.38l15.36 47.104-30.72 9.728c-2.56 1.024-4.096 3.584-3.072 6.656 0.512 2.048 2.56 3.584 5.12 3.584h1.536l70.656-23.04c4.096-0.512 5.12-3.584 4.608-6.144zm-98.304-369.66c11.264-3.584 23.04-2.56 33.28 2.56s18.432 14.336 22.016 25.6c4.096 12.288 2.048 26.112-5.12 36.864-4.608 7.168-14.336 15.36-31.232 17.408-2.048-22.528-0.512-39.424-0.512-39.424 0-1.536-0.512-3.584-2.048-4.608s-3.072-1.536-4.608-1.024l-40.96 13.824c-4.608-22.016 7.68-44.032 29.184-51.2zm-71.68 120.32c-8.704-16.896-17.92-30.208-23.552-37.376l103.42-33.28c-0.512 9.728-0.512 28.672 3.072 49.664-3.072 3.584-6.656 7.68-13.824 9.728-8.704 3.072-14.848 0.512-21.504-1.536-7.68-2.56-15.872-5.632-28.16-1.536-9.728 3.072-15.36 8.704-19.456 14.336zm20.48 67.072c-1.536-20.992-7.68-39.936-15.36-56.32l0.512-1.024c4.096-6.144 7.68-11.264 16.384-13.824 8.704-3.072 14.848-0.512 21.504 1.536 7.68 2.56 15.872 5.632 28.16 1.536 5.632-2.048 9.728-4.608 12.8-7.168 3.584 15.872 9.728 32.768 18.944 48.128 47.616 79.36 49.664 132.1 5.632 161.79-51.712 1.536-80.896-42.496-88.576-134.66z"/>
		
	
	
		
			<path d="m343.47 43.386c-1.024-2.56-3.584-4.096-6.656-3.072l-11.264 3.584c-2.56 0.512-4.096 3.584-3.072 6.144 0.512 2.048 2.56 3.584 5.12 3.584h1.536l11.264-3.584c2.56-1.024 4.096-3.584 3.072-6.656z"/>
		
	
	
		
			<path d="m307.63 34.682-3.584-11.264c-1.024-2.56-3.584-4.096-6.656-3.072-2.56 1.024-4.096 3.584-3.072 6.656l3.584 10.752c0.512 2.048 2.56 3.584 5.12 3.584h1.536c2.56-1.024 4.096-3.584 3.072-6.656z"/>
		
	
	
		
			<path d="m338.86 64.378-10.752-5.632c-2.56-1.536-5.632-0.512-6.656 2.048-1.536 2.56-0.512 5.632 2.048 6.656l10.752 5.632c0.512 0.512 1.536 0.512 2.56 0.512 2.048 0 3.584-1.024 4.608-2.56 1.024-2.048 0-5.12-2.56-6.656z"/>
		
	
	
		
			<path d="m293.81 41.85-10.752-5.632c-2.56-1.536-5.632-0.512-6.656 2.048-1.536 2.048-1.024 5.12 1.536 6.656l10.752 5.632c0.512 0.512 1.536 0.512 2.56 0.512 2.048 0 3.584-1.024 4.608-2.56 1.536-2.56 0.512-5.632-2.048-6.656z"/>
		
	
	
		
			<path d="m326.06 22.394c-2.56-1.536-5.632-0.512-6.656 2.048l-6.656 10.24c-1.024 2.56 0 5.632 2.56 7.168 0.512 0.512 1.536 0.512 2.56 0.512 2.048 0 3.584-1.024 4.608-2.56l5.632-10.752c1.536-2.56 0.512-5.632-2.048-6.656z"/>
		
	
	
		
			<path d="m185.26 0.378c-3.072 0-5.12 2.048-5.12 5.12l-1.024 52.736c0 3.072 2.56 5.12 5.12 5.12 3.072 0 5.12-2.048 5.12-5.12l1.024-52.736c0-3.072-2.048-5.12-5.12-5.12z"/>
		
	
	
		
			<path d="m231.34 33.146c-2.56-1.536-5.632-0.512-7.168 1.536l-13.824 23.04c-1.536 3.072-1.024 6.144 1.536 7.68 1.024 0.512 1.536 0.512 2.56 0.512 1.536 0 3.584-1.024 4.608-2.56l13.824-23.04c1.536-2.56 0.512-5.632-1.536-7.168z"/>
		
	
	
		
			<path d="m158.64 58.234-14.336-23.04c-1.536-2.56-4.608-3.072-7.168-1.536s-3.072 4.608-1.536 7.168l14.848 23.04c1.024 1.536 2.56 2.56 4.096 2.56 1.024 0 2.048 0 2.56-1.024 2.56-1.536 3.072-4.608 1.536-7.168z"/>
		
	
	
	
	
	
	
	
	
	
	
	
	
	
	
	
	
</svg>
