<?xml version="1.0" encoding="utf-8"?>
<!-- Generator: Adobe Illustrator 27.1.1, SVG Export Plug-In . SVG Version: 6.00 Build 0)  -->
<svg version="1.1" id="Layer_1" xmlns="http://www.w3.org/2000/svg" xmlns:xlink="http://www.w3.org/1999/xlink" x="0px" y="0px"
	 viewBox="0 0 729.7 255" style="enable-background:new 0 0 729.7 255;" xml:space="preserve">
<style type="text/css">
	.st0{fill-rule:evenodd;clip-rule:evenodd;fill:#71C839;}
	.st1{fill:none;}
	.st2{fill-rule:evenodd;clip-rule:evenodd;stroke:#020202;stroke-miterlimit:10;}
	.st3{fill:none;stroke:#020202;stroke-miterlimit:10;}
	.st4{fill-rule:evenodd;clip-rule:evenodd;}
</style>
<g>
	<path class="st0" d="M91.6,203.6v0.1l11.5,16.8c0,4.5,0,8.9,0,13.4c2.1,0,4.3,0,6.4,0c0-4.5,0-8.9,0-13.4l11.6-16.8l-0.1-0.1
		c-2.4,0-4.9,0-7.3,0l-7.6,11.5l-7.4-11.5C96.3,203.6,94,203.6,91.6,203.6"/>
	<path class="st0" d="M135,209.8l4.5,11.5h-8.9L135,209.8 M131.9,203.6l-12.8,30.3h6.8l2.7-7.2c4.4,0,8.7,0,13.1,0l2.8,7.2h7.1
		l-12.9-30.3C136.4,203.6,134.1,203.6,131.9,203.6z"/>
	<path class="st0" d="M170.8,209.1c0.8,0,1.6,0,2.2,0.1c1.6,0.2,1.9,0.5,2.4,0.9s0.8,0.8,1,1.9c0.1,0.6,0.1,1.3,0,1.8
		c-0.2,1.2-0.5,1.6-1.1,2.1c-0.3,0.2-0.6,0.4-1.1,0.5c-0.3,0.1-0.7,0.2-1.2,0.2c-0.6,0.1-1.3,0.1-2,0.1c-2.6,0-5.2,0-7.8,0
		c0-2.5,0-5,0-7.6C165.6,209.1,168.2,209.1,170.8,209.1 M156.6,203.6c0,10.1,0,20.2,0,30.3c2.1,0,4.3,0,6.4,0c0-4,0-7.9,0-11.9h7.4
		l6.7,11.9c2.4,0,4.8,0,7.1,0l0.1-0.1l-7.5-12.6c1.5-0.3,2.7-1,3.6-1.8c0.9-0.9,1.7-2,2.1-3.7c0.2-0.9,0.3-1.9,0.4-2.9
		c0-1-0.1-1.8-0.2-2.6c-0.4-2.1-1.1-3.2-2-4.1c-1-1-2-1.8-4.9-2.3c-1-0.2-2.2-0.3-3.5-0.3C167.1,203.6,161.8,203.6,156.6,203.6z"/>
	<path class="st0" d="M203.9,209c0.7,0,1.5,0,2.1,0.1c1.7,0.2,2.3,0.7,3,1.2c0.6,0.5,1.1,1,1.6,2.5c0.2,0.5,0.4,1.2,0.5,2.2
		c0.3,2.1,0.2,5.4,0,7.3c-0.2,1.9-0.6,2.7-0.9,3.3c-0.6,1.2-1.2,1.7-2.2,2.2c-0.5,0.2-1.1,0.5-2.2,0.6c-0.6,0.1-1.2,0.1-1.9,0.1
		h-7.3c0-6.5,0-13.1,0-19.7C199,209,201.5,209,203.9,209 M190.1,203.6c0,10.1,0,20.2,0,30.3c4.7,0,9.4,0,14.1,0c1.3,0,2.6,0,3.7-0.2
		c2-0.3,3-0.7,4.1-1.3c1.7-0.9,3.5-2.5,4.8-5.2c0.4-0.9,0.8-2,1.1-3.3c0.3-1.4,0.4-3,0.4-4.8s-0.2-3.7-0.5-5.2
		c-0.6-3-1.5-4.6-2.5-5.9c-1-1.3-2.1-2.2-3.8-3c-0.8-0.4-1.8-0.8-3.1-1s-2.8-0.4-4.4-0.4C199.4,203.6,194.8,203.6,190.1,203.6z"/>
	<path class="st0" d="M254,229.4c-0.9,0-1.7-0.1-2-0.2c-0.7-0.2-0.8-0.4-1-0.9c-0.1-0.2-0.1-0.5-0.1-1c0-1.1,0.2-1.4,0.5-1.6
		c0.2-0.2,0.4-0.4,0.9-0.6c0.4-0.1,1.2-0.2,2.2-0.2c2.3,0,4.6,0,6.9,0c0,1.5,0,3,0,4.5H254 M246.1,211.7v4.7c3.3,0,6.5,0,9.8,0
		c0.8,0,1.5,0,2.1,0.1c1.5,0.2,1.8,0.5,2.2,0.8c0.5,0.4,0.8,0.7,0.9,1.7c0.1,0.4,0.1,0.9,0.1,1.4c-2.6,0-5.1,0-7.7,0
		c-1.1,0-2.2,0.1-3,0.2c-2.4,0.3-3.1,0.9-3.9,1.5c-0.9,0.8-1.5,1.5-1.9,3.6c-0.2,1-0.2,2.6,0.1,3.8c0.4,1.8,1.3,2.8,2.6,3.5
		c0.9,0.5,2.4,0.9,4.1,0.9c5.3,0,10.5,0,15.8,0V220c0-1.9-0.4-3.6-1-4.6c-0.6-1.1-1.3-1.8-2.5-2.5c-0.6-0.3-1.3-0.6-2.3-0.9
		c-1-0.2-2.2-0.3-3.3-0.3H246.1L246.1,211.7z"/>
	<path class="st0" d="M274.1,211.7c0,7.4,0,14.9,0,22.3c2,0,4,0,5.9,0v-17.3c1.6,0,3.1,0,4.7,0c1,0,1.9,0.1,2.2,0.3
		c0.7,0.2,0.9,0.4,1.2,0.9c0.1,0.2,0.3,0.5,0.4,1.3c0,0.4,0.1,1,0.1,1.5c0,4.5,0,8.9,0,13.4c2,0,4,0,5.9,0c0-4.7,0-9.4,0-14.1
		c0-0.8-0.1-1.6-0.2-2.2c-0.3-1.9-0.8-2.7-1.4-3.5c-0.6-0.7-1.3-1.3-2.8-1.8c-0.5-0.2-1.1-0.4-2-0.5s-1.9-0.2-3-0.2L274.1,211.7"/>
	<path class="st0" d="M317.1,229.1h-4c-0.7,0-1.3,0-1.9-0.1c-1.5-0.2-2-0.6-2.6-1c-0.5-0.4-0.9-0.9-1.2-1.8
		c-0.1-0.3-0.2-0.7-0.3-1.3c-0.2-1.1-0.2-2.8,0-3.8c0.2-1.6,0.6-2.2,1.1-2.8c0.5-0.5,0.9-0.9,2-1.3c0.3-0.1,0.8-0.2,1.3-0.3
		c0.6-0.1,1.3-0.1,2-0.1c1.2,0,2.3,0,3.5,0C317.1,220.7,317.1,224.9,317.1,229.1 M323,234c0-10.1,0-20.2,0-30.3c-2,0-4,0-5.9,0
		c0,2.7,0,5.4,0,8h-5c-1.1,0-2.2,0.1-3.1,0.2c-1.7,0.2-2.6,0.7-3.5,1.2c-1.9,1.1-3.7,3.4-4.4,6.5c-0.2,0.9-0.3,1.9-0.3,3.1
		c0,1.2,0.2,2.5,0.4,3.6c0.8,3.4,2.4,5,4.5,6.2c1.5,0.8,3.6,1.4,5.9,1.4C315.5,234,319.3,234,323,234z"/>
	<path class="st0" d="M364.3,234c2.7,0,5.4,0,8.1,0c0-1.7,0-3.4,0-5.1c-2.5,0-5,0-7.5,0c-0.8,0-1.6,0-2.2-0.1
		c-1.7-0.2-2.2-0.6-3-1.2c-0.5-0.4-0.8-0.8-1-1.1c-0.2-0.4-0.5-0.8-0.6-2.4c-0.1-0.7-0.1-1.7-0.1-2.6c0-5.9,0-11.9,0-17.8
		c-2.1,0-4.3,0-6.4,0v18c0,1.4,0.1,2.8,0.2,3.8c0.3,2,0.8,2.9,1.4,3.9s1.5,1.9,2.3,2.5s1.6,1,2.7,1.4c0.6,0.2,1.2,0.4,2.3,0.5
		C361.5,233.9,362.9,234,364.3,234"/>
	<path class="st0" d="M393.5,209.8l4.5,11.5h-8.9L393.5,209.8 M390.3,203.6L377.5,234h6.8l2.7-7.2c4.4,0,8.7,0,13.1,0l2.8,7.2h7.2
		l-12.9-30.3C394.9,203.6,392.6,203.6,390.3,203.6z"/>
	<path class="st0" d="M415.1,203.6c0,10.1,0,20.2,0,30.3c2.2,0,4.4,0,6.6,0l-0.3-22.8l13,22.8c2.5,0,5,0,7.4,0c0-10.1,0-20.2,0-30.3
		c-2.2,0-4.4,0-6.6,0l0.3,21.6l-12.3-21.6C420.5,203.6,417.8,203.6,415.1,203.6"/>
	<path class="st0" d="M462.4,209c0.7,0,1.5,0,2.1,0.1c1.7,0.2,2.3,0.7,3,1.2c0.6,0.5,1.1,1,1.6,2.5c0.2,0.5,0.4,1.2,0.5,2.2
		c0.3,2.1,0.2,5.4,0,7.3c-0.2,1.9-0.6,2.7-0.9,3.3c-0.6,1.2-1.2,1.7-2.2,2.2c-0.5,0.2-1.1,0.5-2.2,0.6c-0.6,0.1-1.2,0.1-1.9,0.1
		h-7.3v-19.7C457.5,209,459.9,209,462.4,209 M448.6,203.6c0,10.1,0,20.2,0,30.3c4.7,0,9.4,0,14.1,0c1.3,0,2.7,0,3.7-0.2
		c2-0.3,3-0.7,4.1-1.3c1.7-0.9,3.5-2.5,4.8-5.2c0.4-0.9,0.8-2,1.1-3.3c0.3-1.4,0.4-3,0.4-4.8s-0.2-3.7-0.5-5.2
		c-0.6-3-1.5-4.6-2.5-5.9c-1-1.3-2.1-2.2-3.8-3c-0.8-0.4-1.8-0.8-3.1-1s-2.8-0.4-4.4-0.4C457.9,203.6,453.3,203.6,448.6,203.6z"/>
	<path class="st0" d="M509.7,209.1v-5.5c-5.6,0-11.1,0-16.7,0c-1.3,0-2.5,0.1-3.5,0.3c-2,0.3-3,0.9-3.8,1.4c-1.2,0.8-2,1.7-2.6,3.2
		c-0.4,1-0.7,2.7-0.7,4.4c0,0.9,0.1,1.7,0.2,2.4c0.4,2,1,3,1.9,3.9s1.9,1.7,4.7,2.1c1,0.2,2.1,0.2,3.3,0.2c2.5,0,5,0,7.5,0
		c0.6,0,1.2,0,1.6,0.1c1.5,0.2,1.8,0.5,2.2,1c0.3,0.3,0.5,0.7,0.6,1.4c0.1,0.6,0.1,1.2,0,1.6c-0.1,1.1-0.5,1.4-1,1.8
		c-0.4,0.3-0.7,0.5-2.1,0.7c-0.5,0.1-1.1,0.1-1.7,0.1c-5.3,0-10.6,0-16,0c0,1.8,0,3.6,0,5.5c5.7,0,11.3,0,17,0
		c1.2,0,2.5-0.1,3.5-0.3c2-0.3,3-0.9,3.8-1.4c1.2-0.8,2-1.7,2.6-3.1c0.4-1,0.7-2.6,0.7-4.3c0-0.9-0.1-1.7-0.2-2.4
		c-0.3-2-0.8-2.9-1.5-3.6c-0.6-0.8-1.3-1.4-2.9-1.9c-0.5-0.2-1.2-0.4-2-0.5s-2-0.2-3.1-0.2c-2.8,0-5.6,0-8.4,0c-0.5,0-1,0-1.4-0.1
		c-1.5-0.3-1.9-0.8-2.3-1.6c-0.2-0.4-0.3-0.9-0.3-1.6c0-0.3,0-0.7,0.1-1c0.2-1.2,0.6-1.6,1.3-2.1c0.4-0.2,0.8-0.5,1.8-0.6
		c0.5-0.1,1.1-0.1,1.7-0.1C499.2,209.1,504.5,209.1,509.7,209.1"/>
	<path class="st0" d="M530.9,208.9c3.5,0,7,0,10.5,0v-5.2c-3.5,0-7.1,0-10.6,0c-1.5,0-3.1,0.1-4.4,0.4c-2.5,0.5-4,1.3-5.2,2.3
		s-2.2,2.1-3.1,4c-0.4,0.9-0.8,2.1-1.1,3.6s-0.5,3.5-0.5,5.2c0,1.8,0.2,3.4,0.4,4.8c0.5,2.6,1.4,4.2,2.5,5.6s2.3,2.3,3.4,2.9
		c1.2,0.6,2.2,1.1,4.1,1.3c1,0.1,2.3,0.2,3.7,0.2c3.6,0,7.2,0,10.8,0v-5.3h-10.5c-0.7,0-1.5,0-2-0.1c-1.7-0.2-2.4-0.7-3.1-1.2
		c-0.7-0.5-1.1-1.1-1.6-2.5c-0.2-0.5-0.3-1.1-0.5-2c-0.1-0.9-0.2-2-0.2-3.3s0.1-2.7,0.2-3.7c0.3-2.1,0.8-3.1,1.2-3.8
		c0.8-1.5,1.6-2.1,3-2.6c0.4-0.1,0.8-0.2,1.3-0.3C529.8,208.9,530.3,208.9,530.9,208.9"/>
	<path class="st0" d="M560.9,209.8l4.5,11.5h-8.9L560.9,209.8 M557.7,203.6l-12.8,30.3h6.8l2.7-7.2c4.4,0,8.7,0,13.1,0l2.8,7.2h7.2
		l-13-30.3C562.2,203.6,560,203.6,557.7,203.6z"/>
	<path class="st0" d="M582.5,203.6c0,10.1,0,20.2,0,30.3c2.1,0,4.3,0,6.4,0c0-3.5,0-7,0-10.6c2.6,0,5.1,0,7.7,0
		c1.8,0.1,3.5,0,4.8-0.2s2.1-0.5,2.8-0.8c1.5-0.7,2.6-1.5,3.6-2.7c0.5-0.7,0.9-1.5,1.2-2.5c0.6-2.1,0.6-5.1-0.1-7.3
		c-0.7-2.2-2-3.7-3.6-4.7c-0.8-0.5-1.6-1-4-1.3c-1.3-0.2-3.1-0.3-4.9-0.2C591.7,203.6,587.1,203.6,582.5,203.6 M596.2,209.1
		c0.8,0,1.6,0,2.2,0.1c1.7,0.2,2.1,0.6,2.6,1c0.6,0.5,1,1,1.2,2.2c0.1,0.7,0.1,1.6,0,2.2c-0.2,1.3-0.7,1.9-1.5,2.4
		c-0.5,0.3-1,0.6-2.1,0.8c-0.5,0.1-1.2,0.1-1.9,0.1c-2.6,0-5.2,0-7.7,0V209C591.3,209.1,593.8,209.1,596.2,209.1z"/>
	<path class="st0" d="M627.8,209c3.5,0,7,0,10.5,0c0-1.8,0-3.6,0-5.3c-3.5,0-7.1,0-10.6,0c-1.5,0-3.1,0.1-4.4,0.4
		c-2.5,0.5-4,1.3-5.2,2.3s-2.2,2.1-3.1,4c-0.4,0.9-0.8,2.1-1.1,3.6s-0.5,3.5-0.5,5.2s0.2,3.4,0.4,4.8c0.5,2.6,1.4,4.2,2.5,5.6
		s2.3,2.3,3.4,2.9c1.2,0.6,2.2,1.1,4.1,1.3c1,0.1,2.3,0.2,3.7,0.2c3.6,0,7.2,0,10.8,0c0-1.8,0-3.6,0-5.3h-10.5
		c-0.8,0-1.6-0.1-2.2-0.2c-1.8-0.3-2.5-0.8-3.2-1.5s-1.2-1.4-1.5-3.3c-0.1-0.7-0.2-1.5-0.2-2.4c5.9,0,11.8,0,17.7,0
		c0-1.8,0-3.6,0-5.3c-5.9,0-11.7,0-17.6,0c0.1-1.8,0.6-3.3,1.1-4.2c0.8-1.4,1.7-2.1,3.7-2.5C626.1,209.1,626.9,209,627.8,209"/>
	<rect x="91.5" y="203.6" class="st1" width="546.7" height="30.3"/>
</g>
<path class="st2" d="M65.7,88.4c4.4-5.6,8.9-11.1,13.6-16.4c5.9-6.7,12.2-13.4,18.8-19.9c6-5.8,12.2-11.3,18.7-16.5
	c4.2-3.4,8.6-6.8,13.2-9.9c2.9-2,5.8-3.9,8.5-5.6s5.2-3.2,7.8-4.6c9.1-5,18.7-9.2,28.8-11.5c2.5-0.6,5-1,7.5-1.2
	c1.9-0.2,3.7-0.3,5-0.3s2,0,2.7,0c0.7,0.1,1.4,0.1,2,0.2c2.6,0.4,4.6,1.2,5.9,2.2c1.4,1.1,2.3,2.7,2.5,4.7c0,0.3,0,0.6,0,1.1
	s-0.1,1.1-0.1,1.7c-0.2,1.8-0.8,3.6-1.6,5.3c-0.3,0.6-0.6,1.1-0.9,1.8c-0.4,0.6-0.8,1.3-1.2,2s-0.9,1.3-1.4,2.1
	c-0.5,0.7-1.2,1.6-1.9,2.3c-0.7,0.8-1.4,1.6-2.2,2.4c-1.7,1.8-3.7,3.8-5.7,5.5c-4.8,4.3-10.1,8.1-15.2,11.6
	c-7.9,5.2-16.2,10.1-24.5,14.9c-4.5,2.6-9.1,5-13.7,7.1c-9.9,4.5-20.2,8.3-30.4,11.8c-8.1,2.7-16.3,5.2-24.6,7
	C73.4,87.1,69.5,87.8,65.7,88.4 M49.3,92.2c-0.8,1.6-1.6,3.3-2.4,4.9c-0.7,1.7-1.4,3.4-2,4.9s-1,2.9-1.4,4.3s-0.7,2.8-1,4.1
	c-0.2,1.3-0.4,2.5-0.5,3.7s-0.2,2.4-0.2,3.3s0,1.5,0.1,2.1c0.1,1.2,0.3,2.5,0.5,3.6c0.1,0.6,0.3,1.2,0.5,1.9c0.2,0.8,0.6,1.7,1,2.5
	c1.2,2.6,3,5,5.3,6.9c0.7,0.6,1.5,1.2,2.2,1.6c1.3,0.9,2.3,1.4,3.5,1.9s2.3,0.9,3.7,1.3c1.5,0.4,3.4,0.8,5.1,1
	c1.6,0.2,3,0.3,4.7,0.3c2.5,0,5.2-0.2,8-0.7c0.9-0.2,1.9-0.3,3.2-0.6s2.9-0.7,4.5-1.2c4.8-1.5,9.3-3.6,13.8-5.7
	c5.6-2.8,11.2-5.7,16.6-8.8c-6.8,7.6-13.6,15.2-20.1,22.9c-3.6,4.4-7.2,8.9-11,13.2c-1.5,1.7-3,3.4-4.8,4.8
	c-1.1,0.9-2.2,1.8-3.3,2.6c-1.1,0.8-2.3,1.6-4,2.5s-3.8,2.1-6,3s-4.5,1.7-6.2,2.2c-1.6,0.5-2.6,0.7-3.6,1
	c-5.1,1.1-10.4,1.6-15.6,1.8c-1.7,0-3.5,0-5.2-0.1s-3.5-0.3-5-0.5s-2.9-0.5-4.2-0.8c-1.3-0.3-2.6-0.7-3.8-1.1s-2.1-0.8-3.1-1.2
	s-1.9-0.9-2.7-1.4c-4.5-2.6-7.2-6.1-8.1-9.9c-0.2-0.6-0.3-1.2-0.4-1.8c-0.2-1.1-0.2-2-0.1-3.1c0.1-1,0.3-2.2,0.6-3.1
	c0.3-0.9,0.6-1.7,1-2.5c0.6,1.1,1.4,2.3,2,2.9c0.8,0.9,1.2,1.1,1.6,1.3c1,0.6,2.2,0.8,3.3,0.5c0.2,0,0.4-0.1,0.6-0.2
	c1-0.4,2.1-1.2,2.8-2.1c0.4-0.5,0.6-0.9,0.7-1.2c0.4-1,0.5-2.5-0.4-4c-0.5-0.8-1.7-2.1-3.6-2.7c-2.1-0.6-4.4-0.1-6.1,1
	c-0.3,0.2-0.6,0.4-0.9,0.7c-1.5,1.3-2.9,3.5-3.5,5.9c-0.2,0.6-0.3,1.3-0.4,2s-0.1,1.4-0.1,1.9c0,1.1,0,1.5,0.2,2.5
	c0.1,0.5,0.2,1.3,0.4,2c0.5,2.1,1.5,4.2,3,6.1c1.4,1.8,3.2,3.5,6,5.2c0.9,0.5,1.9,1.1,2.9,1.6s2.1,0.9,3.4,1.3
	c1.2,0.4,2.6,0.8,4.1,1.2c1.4,0.3,2.9,0.6,4.5,0.9c1.6,0.2,3.3,0.4,5.1,0.5s3.5,0.2,5.8,0.2s5.1-0.1,7.9-0.3c4.9-0.4,9.8-1,14.6-2.4
	c4.6-1.1,9-2.7,13.3-4.8c1.4-0.7,2.8-1.4,3.9-2c2.3-1.3,3.5-2,5.8-3.6s5.8-4.2,8-6.1c1.1-0.9,1.8-1.6,2.6-2.3s1.5-1.4,2.9-2.8
	c1.4-1.4,3.3-3.6,5.2-5.9c6.1-7.3,11.3-15.5,16.6-23.5c3.1-4.6,6.3-9.1,10.1-13.4c2-2.2,4.2-4.4,6.5-6.5c3.8-3.3,7.8-5.7,11.9-8.3
	l-1.2-1.7c-8.4,5.2-16.3,11.4-24.3,17.4c-9.2,6.9-18.4,13.4-28.6,18.1c-2.3,1.1-4.6,2-7,2.9c-1.7,0.6-3.5,1.2-5.1,1.6
	c-1.6,0.5-3.1,0.8-4.6,1.1s-3,0.5-4.2,0.7s-2.1,0.2-3,0.3c-0.9,0-1.8,0.1-2.8,0.1c-2,0-4.4-0.2-6.3-0.5c-1-0.2-1.8-0.4-2.6-0.7
	s-1.6-0.6-2.3-0.9c-4.7-2.2-7.3-5.7-7.9-10.1c-0.1-0.6-0.1-1.3-0.1-2s0.1-1.5,0.1-2.2c0.1-0.8,0.2-1.5,0.4-2.4
	c0.5-2.3,1.3-4.9,2.3-7.2c1.5-3.5,3.3-6.9,5.2-10.3c2.2-3.8,4.5-7.6,6.9-11.4c9.4-1.6,18.7-3.4,27.8-6.1c4.9-1.3,9.7-2.9,14.5-4.6
	c10.9-3.9,21.5-8.4,31.8-13.4c9.5-4.6,18.9-9.8,28-15.7c7.8-5.1,15.5-10.7,22.6-17.4c3.6-3.6,7.1-7.3,9.8-11.7
	c0.5-0.8,1-1.7,1.4-2.4c0.8-1.5,1.3-2.8,1.8-4.3c0.2-0.8,0.4-1.6,0.6-2.5c0.1-0.9,0.2-1.7,0.2-2.3s0-0.9,0-1.2
	c-0.1-1.8-0.7-3.4-2.2-4.9c-1-1.1-2.3-1.9-4.3-2.6c-1.6-0.6-3.4-0.9-5.6-1.1c-0.8-0.1-1.5-0.1-2.7,0c-1.2,0-2.7,0.1-4.2,0.2
	c-7.9,0.7-15.5,3.1-22.9,5.8c-16.3,6.1-31.3,15-46,24.5C104.5,37.8,94,45,84,53.1c-6.2,5.1-12.2,10.5-17.5,16.3
	c-5.9,6.5-11,13.5-15.8,20.6c-5.3-0.1-10.6-0.5-15.9-1.1c-0.9-0.1-1.9-0.3-2.8-0.4c-0.9-0.2-1.9-0.3-3-0.6c-2.3-0.6-5.7-1.7-7.7-2.6
	c-1-0.4-1.6-0.8-2.2-1.1c-2.3-1.2-5.1-3.1-7.5-5.4c-0.6-0.5-1.1-1.1-1.7-1.8c-1.2-1.4-2.6-3.5-3.5-5.3c-1.3-2.6-2-5.3-2.4-7.8
	c-0.1-0.8-0.2-1.6-0.3-2.3c-0.1-1.3-0.1-2-0.1-3.2c0-0.6,0-1.4,0.1-2.2c0.2-2.9,0.9-6.4,2.1-9.9c0.3-0.9,0.6-1.7,1.1-2.8
	s1.1-2.4,1.8-3.6c0.7-1.3,1.5-2.5,2.4-3.8s1.9-2.7,3-4s2.2-2.6,3.5-3.9c3.8-3.8,8.6-7.5,13.3-10.5c5.3-3.2,10.7-6,16.5-8.1
	c3.2-1.3,6.5-2.4,9.9-3.2c5.2-1.5,10.5-2.5,15.8-3.2s10.7-0.9,16.1-1.1c5.8,0.1,11.7,0.5,17.5,1l0.3-1.8c-5.4-0.6-10.8-1-16.2-1.3
	c-6.2-0.2-12.5,0.3-18.6,1.1c-5.5,0.7-11,1.7-16.3,3.3c-3.2,0.9-6.4,1.9-9.5,3c-5.7,2.1-11.2,4.6-16.5,7.7c-2,1.2-4,2.4-5.8,3.7
	c-1.8,1.2-3.4,2.5-5,3.8s-3.1,2.7-4.4,4s-2.5,2.6-3.6,3.9s-2.2,2.7-3.1,4S6.3,37,5.6,38.3s-1.4,2.6-1.8,3.6c-1,2.2-1.4,3.3-2.1,5.7
	c-0.3,1.2-0.7,2.9-1,4.6C0.2,55.5,0.3,59,0.8,62.4c0.3,1.7,0.7,3.4,1,4.5s0.5,1.7,0.8,2.3c1,2.5,2.1,4.4,3.5,6.4
	c0.4,0.5,0.8,1,1.2,1.6c1,1.2,2.2,2.5,3.5,3.6c1.9,1.8,4.2,3.3,6.3,4.6c4.1,2.4,8.8,4.3,14,5.2C36.9,92.1,43.1,92.3,49.3,92.2z"/>
<rect y="0.4" class="st3" width="202.6" height="179.5"/>
<path class="st2" d="M586.1,117.4c0.5,0,0.7-0.1,0.9,0c1.1,0,2.6,0.2,4,1.5c1.3,1.3,2,3.3,1.7,5.4c-0.1,0.6-0.2,1.1-0.4,1.9
	c-0.1,0.4-0.3,1-0.5,1.5c-0.2,0.5-0.5,1.1-0.9,1.9s-1,1.8-1.6,2.9c-0.6,1-1.3,2-2.2,3.3c-0.9,1.2-2.1,2.8-3.3,4.2
	c-1.2,1.5-2.5,2.9-4.8,5.3c-2.3,2.4-5.6,5.6-9.1,8.7c-3.5,3-7.2,5.9-9.7,7.7s-3.7,2.6-5,3.3s-2.5,1.5-3.6,2c-1,0.5-1.9,0.9-2.7,1.2
	s-1.7,0.6-2.3,0.8s-1.1,0.3-1.6,0.4s-0.9,0.1-1.3,0.2c-1.3,0.1-2.2,0-3.3-0.5c-1.2-0.5-2.2-1.5-2.8-2.6c-0.4-0.8-0.5-1.4-0.6-1.9
	c0-0.6,0-1.9,0.3-3.2c0.2-0.8,0.5-1.5,0.7-1.8c0.1-0.2,0.2-0.4,0.7-1.3c0.5-0.9,1.5-2.6,2.6-4.2s2.2-3.2,3.5-5s2.9-3.9,4.6-5.8
	s3.3-3.9,4.7-5.4c1.3-1.5,2.3-2.5,3.3-3.5s2-2,3.2-3c2.5-2.2,5.8-4.8,8.8-6.8c1.5-1,3.1-1.9,4.7-2.7c1.6-0.8,3.2-1.6,4.4-2.1
	s2-0.8,2.8-1s1.6-0.4,2.5-0.6C584.7,117.5,585.6,117.4,586.1,117.4 M264.2,140.1c1.7-2,3.4-3.9,5.3-5.7c1.8-1.8,3.7-3.6,5.5-5.1
	s3.4-2.8,5.1-4s3.4-2.3,4.9-3.2s2.8-1.6,4.1-2.1s2.7-1.1,3.7-1.5c1-0.3,1.6-0.5,2.3-0.6c0.6-0.1,1.3-0.2,1.9-0.3
	c0.6-0.1,1.3-0.1,1.8-0.1s0.8,0,1.1,0c1.1,0.1,1.7,0.3,2.2,0.6c1.1,0.5,1.2,0.8,1.6,1.3c0.6,0.8,1.1,2.1,0.5,4
	c-0.1,0.4-0.4,1-0.8,1.7c-0.2,0.3-0.4,0.6-0.7,1.1s-0.8,1.1-1.4,1.7s-1.1,1.2-1.9,1.8c-0.8,0.7-1.7,1.4-2.7,2.1c-1,0.7-2,1.4-3.1,2
	s-2.2,1.2-3.5,1.8c-1.4,0.6-3,1.2-4.7,1.8c-1.7,0.5-3.4,1-5.6,1.5s-4.8,0.9-7.5,1.2C269.5,140,266.8,140.1,264.2,140.1z
	 M200.1,140.1c1.7-2,3.4-3.9,5.3-5.7c1.8-1.8,3.7-3.6,5.5-5.1s3.4-2.8,5.1-4s3.4-2.3,4.9-3.2s2.8-1.6,4.1-2.1s2.7-1.1,3.7-1.5
	c1-0.3,1.6-0.5,2.3-0.6c0.6-0.1,1.3-0.2,1.9-0.3s1.3-0.1,1.8-0.1s0.8,0,1.1,0c1.1,0.1,1.7,0.3,2.2,0.6c1.1,0.5,1.2,0.8,1.6,1.3
	c0.6,0.8,1.1,2.1,0.5,4c-0.1,0.4-0.3,1-0.8,1.7c-0.2,0.3-0.4,0.6-0.7,1.1c-0.4,0.5-0.9,1.1-1.4,1.7s-1.1,1.2-1.9,1.8
	c-0.8,0.7-1.7,1.4-2.7,2.1c-1,0.7-2.1,1.4-3.1,2c-1.1,0.6-2.2,1.2-3.5,1.8c-1.4,0.6-3,1.2-4.7,1.8c-1.7,0.5-3.4,1-5.6,1.5
	s-4.8,0.9-7.5,1.2C205.5,140,202.8,140.1,200.1,140.1z M616,199.8h5c9.1-5.2,18.4-10,27.6-14.6c-3.5,5.1-7.3,9.9-11.1,14.6h9.1
	c5.8-6.4,11.7-12.8,17.3-19.3c1-1.1,1.9-2.2,2.9-3.3c4.3-1.7,8.6-3.5,12.8-5.4s8.4-3.9,12.1-5.8c3.7-1.9,6.8-3.6,9.8-5.5
	s6-3.9,9.1-6.3c3.1-2.3,6.4-5,9.6-7.7s6.4-5.5,9.5-8.4c0-0.8,0-1.6,0-2.4c-5.8,5.2-11.8,10.3-18.1,15.1c-2.4,1.9-4.9,3.7-7.4,5.4
	c-2.1,1.5-4.3,2.9-6.5,4.2s-4.5,2.6-7.3,4.1s-6.3,3.1-9.7,4.7c-3.5,1.6-7,3-10.5,4.4l51-58.2l-13.3,0.4c-2.9,3.5-5.8,7-9.1,10.2
	c-5.2,5-10.5,9.6-16,13.8c-11.1,8.6-22.5,16.1-34,23.5c-3,1.9-6,3.9-9.2,5.2c-1,0.4-2,0.7-3.1,0.9c-0.5,0.1-1.1,0.1-1.4,0.1
	c-0.6,0-0.6,0-0.8,0c-0.9-0.1-1.8-0.7-2.1-1.6c-0.1-0.3-0.3-1,0.3-2.5c0.1-0.3,0.3-0.6,0.4-0.9s0.3-0.6,0.7-1.1
	c0.3-0.5,0.8-1.1,1.3-1.8c3.3-4,7.7-7.6,11.7-11.3c2.7-2.5,5.4-5,7.8-8.1c0.9-1,1.7-2.1,2.5-3.1s1.5-2.2,2.3-3.4s1.6-2.7,2.3-4.2
	s1.3-3,1.7-4.2s0.6-2.1,0.7-3.1c0.1-0.9,0.2-1.9,0.2-2.5s0-0.9,0-1.2c-0.2-1.7-1-3.3-2.1-4.3c-0.9-0.8-1.4-1-2-1.1
	c-0.3-0.1-0.7-0.1-1.2-0.1c-0.2,0-0.5,0-1,0.1c-0.6,0.1-1.5,0.2-2.3,0.5c-0.9,0.2-1.7,0.5-2.7,1c-2,0.9-4.2,2-6.1,3.3
	c-2.6,1.6-5,3.4-7.4,5.1c-4.9,3.8-9.7,7.6-14.4,11.5v0.1c-7.8,7-15.8,13.9-24.2,20.1c-5.2,3.8-10.5,7.4-16,10.5
	c-0.5,0.3-1.1,0.6-1.7,0.8s-1.2,0.5-1.6,0.6s-0.7,0.2-0.9,0.3c-1.5,0.4-1.7,0.3-2.3,0.3c-0.5,0-1.2,0-1.5-0.2s-0.6-0.5-0.8-0.8
	c-0.1-0.3-0.3-1.2-0.1-2c0.1-0.5,0.5-1.5,1.2-2.4c3.5-5.3,7.7-10.2,12-15.3c8.2-9.5,16.5-18.7,24.5-28.1l4.1-4.9l-13.2,1l-9.8,10.7
	c0.5-2.1,0.9-4.6,0.6-6.3c-0.2-1-0.4-1.6-0.6-2.1c-0.4-0.9-1.1-1.6-1.9-2.2c-0.5-0.4-1.4-0.8-2.5-1c-0.3-0.1-0.7-0.1-1.1-0.2
	c-0.4,0-1-0.1-1.5-0.1s-1.1-0.1-2.5,0c-1.5,0.1-3.9,0.2-6.2,0.6c-2.4,0.4-4.7,1-6.9,1.6s-4.2,1.4-6.2,2.1c-2,0.8-3.9,1.6-6.2,2.8
	s-4.7,2.5-7.1,4.1c-2.4,1.6-4.7,3.3-6.3,4.6s-2.5,2.2-3.5,3.1c-0.9,0.9-1.7,2-2.6,2.8c-0.7,0.7-1.5,1.3-2.2,1.9
	c-3.7,3-7.6,5.5-11.7,6.2c-0.8,0.1-1.7,0.2-2.2,0.2s-0.9,0-1.2,0c-0.9-0.1-1.9-0.3-2.8-0.5c4.2-4.2,8-8.9,11.1-13.9
	c1-1.7,2-3.4,2.6-4.7s1-2.2,1.3-3c0.3-0.9,0.6-1.8,0.8-2.5s0.3-1.1,0.3-1.6c0.1-0.8,0.1-1.5,0.1-1.8c0-0.5-0.2-1.1-0.4-1.4
	c-0.4-0.7-1.3-1.2-2.5-0.8c-0.5,0.2-1.1,0.6-1.7,1.6c-0.1,0.2-0.3,0.4-0.4,0.7c-0.2,0.3-0.3,0.7-0.5,1s-0.3,0.8-0.5,1.3
	s-0.4,1.3-0.6,2s-0.4,1.5-0.6,2.4s-0.4,1.9-0.7,2.9c-0.8,3-2,6-3.9,8.8s-4.5,5.3-7.1,7.9c-2,2-4,3.9-6.2,5.7
	c-2.1,1.8-4.3,3.5-6.1,4.8c-1.7,1.3-3,2.1-4.3,2.9c-2.2,1.4-4.5,2.6-6.9,3.8c-1.8,0.9-3.5,1.9-5.3,2.7c-1.8,0.9-3.6,1.7-5.1,2.3
	s-2.7,1.1-3.9,1.5s-2.4,0.7-3.4,1c-1,0.2-1.8,0.4-2.6,0.5s-1.6,0.1-2.2,0.2c-0.5,0-0.9,0-1.1,0c-2.1-0.2-2.7-1-3-1.5
	c-0.4-0.6-0.5-1.4-0.2-2c0.2-0.4,0.8-1.1,1.3-1.7l42.3-47.6h-13c-4.5,4.3-9.1,8.6-13.7,12.8c-5.8,5.2-11.7,10.4-17.6,15.4
	c-5.5,4.3-11.1,8.6-16.8,12.9c-1.9,1.4-3.9,2.8-5.9,4.1s-4.1,2.5-5.5,3.4c-1.4,0.8-2.2,1.2-2.9,1.6c-1.5,0.7-3,1.4-4.5,1.9
	c-0.8,0.2-1.5,0.5-2.1,0.6s-1,0.2-1.3,0.2c-0.6,0.1-1.2,0.1-1.4,0c-1.2-0.1-2.1-1-2-2.2c0-0.3,0.1-1,0.6-2c0.4-0.8,1.4-2.2,2.5-3.6
	l40.1-45.1h-13.4c-6,3.1-12,6.3-17.8,9.7c-2.5,1.5-5.1,3.1-7.5,4.8c-2.5,1.7-4.8,3.5-7.2,5.2l0,0c-0.3,0.3-0.6,0.5-1,0.8v0.1
	c-5.5,5-11,9.8-16.7,14.3s-11.6,8.7-17.5,12.5c-1.3,0.8-2.7,1.6-4,2.3s-2.8,1.4-3.8,1.9s-1.7,0.7-2.5,1c-0.7,0.2-1.4,0.4-1.9,0.5
	s-0.8,0.2-1.1,0.2s-0.6,0-0.8,0.1c-1.1,0-1.9-0.2-2.9-0.9c-1.1-0.7-1.6-1.5-1.7-2.4c-0.1-0.6,0-1.9,1-3.5c0.2-0.3,0.4-0.6,0.6-0.9
	c0.2-0.3,0.5-0.6,0.9-1c0.4-0.5,1-1.1,1.7-1.7c3.8-3.8,8.1-6.4,11.9-9.5c2.6-2.1,5.1-4.3,7.5-6.6c1.2-1.2,2.3-2.4,3.3-3.6
	c1-1.2,1.9-2.3,2.6-3.5s1.5-2.4,2-3.5s0.9-2.1,1.2-3.1s0.6-2,0.7-3.1c0.2-1,0.2-2.1,0.3-2.8c0-0.7,0-1.2,0-1.6s-0.1-0.9-0.2-1.2
	c-0.1-0.7-0.3-1.3-0.6-1.9c-0.7-1.5-1.1-1.8-1.8-2.3c-0.9-0.7-1.9-1-3.4-1c-0.3,0-0.6,0-1.2,0.1s-1.4,0.2-2.3,0.4
	c-0.8,0.2-1.6,0.5-2.6,0.8c-1,0.4-2.1,0.8-3.2,1.3c-4.8,2.1-9.4,5.1-13.9,8c-4.4,2.9-8.9,5.9-13.2,8.9c-7.1,5-14,10.5-21,15.9
	c3.3-4.2,6.6-8.6,9.8-13c0.9-1.3,1.8-2.6,2.6-4s1.5-2.8,2.1-3.9c0.5-1.1,0.8-1.9,1.1-2.7s0.5-1.6,0.6-2.3c0.3-1.4,0.3-2.4,0.2-3.6
	c0-0.6-0.1-1.1-0.2-1.6c-0.1-0.8-0.3-1.1-0.5-1.6c-0.8-1.7-2.2-2.5-3.4-2.8c-0.2,0-0.4-0.1-0.7-0.1s-0.6,0-1,0s-0.7,0.1-1.1,0.1
	c-0.4,0.1-0.9,0.2-1.5,0.4s-1,0.3-1.6,0.6s-1.4,0.6-2.2,1s-1.5,0.8-2.5,1.4s-2.3,1.4-3.6,2.3c-6.8,4.5-13.2,10.1-19.6,15.7v0.2
	c-3.5,3.1-7.1,6.1-10.8,9.1c-3.7,2.9-7.4,5.7-11.2,8.5c-3.7,2.6-7.5,5.2-11.6,7.4c-2.3,1.3-4.8,2.5-6.6,3.3s-3.2,1.3-4.6,1.8
	s-2.7,0.9-4.3,1.3c-1.6,0.4-3.4,0.7-5.2,0.9s-3.7,0.2-4.8,0.2s-1.6-0.1-2-0.2c-1.2-0.3-2.5-0.7-3.3-1.2c-1.7-1-2.5-2.5-2.7-3.8
	c-0.1-0.5-0.1-1,0-1.8c0-0.3,0.1-0.7,0.2-1.1s0.3-1.1,0.5-1.7c0.2-0.6,0.5-1.2,0.8-2s0.8-1.7,1.4-2.6c0.5-0.9,1.1-1.8,1.9-3.1
	c0.9-1.3,2-2.9,3.2-4.5s2.5-3.1,3.8-4.6c4.1-0.2,8.2-0.5,12.2-1c2.4-0.3,4.7-0.7,6.8-1.1c2.1-0.4,3.8-0.8,5.6-1.3s3.5-1,5-1.5
	s2.7-1,4-1.6c1.2-0.6,2.4-1.2,3.5-1.8s2.1-1.3,3-2s1.8-1.5,2.4-2.1s0.9-1,1.2-1.4c0.9-1.2,1.6-2.7,2-3.9c0.4-1.5,0.4-3.2,0.1-4.5
	c-0.5-1.9-1.9-3.5-3.9-4.5c-0.3-0.2-0.7-0.3-1.1-0.4c-0.9-0.3-1.9-0.5-2.9-0.6c-0.5,0-1-0.1-2,0c-1,0-2.6,0.2-4.1,0.4
	s-3,0.5-5.2,1.1c-2.1,0.6-4.8,1.5-7.5,2.4s-5.3,2.1-7.7,3.2c-2.4,1.1-4.6,2.3-6.7,3.5s-4.2,2.6-5.9,3.9c-1.7,1.3-3.1,2.5-4.4,3.7
	c-1.3,1.3-2.5,2.6-3.7,4c-8.5,7.3-17,14.3-26.1,20.4c-2.2,1.5-4.5,2.9-6.9,4.2s-4.8,2.5-6.6,3.3s-3.2,1.3-4.6,1.8s-2.7,0.9-4.3,1.3
	c-1.6,0.4-3.4,0.7-5.2,0.9s-3.6,0.2-4.8,0.2s-1.6-0.1-2-0.2c-1.2-0.3-2.5-0.7-3.3-1.2c-1.7-1-2.5-2.5-2.7-3.8c-0.1-0.5-0.1-1,0-1.8
	c0-0.3,0.1-0.7,0.2-1.1s0.3-1.1,0.5-1.7s0.4-1.2,0.8-2s0.8-1.7,1.4-2.6c0.5-0.9,1.1-1.8,1.9-3.1c0.9-1.3,2-2.9,3.2-4.5
	s2.5-3.1,3.8-4.6c4.1-0.2,8.2-0.5,12.2-1c2.4-0.3,4.7-0.7,6.8-1.1c2.1-0.4,3.8-0.8,5.6-1.3s3.5-1,5-1.5s2.7-1,4-1.6s2.4-1.2,3.5-1.8
	s2.1-1.3,3-2s1.8-1.5,2.4-2.1s0.9-1,1.2-1.4c0.9-1.2,1.6-2.7,2-3.9c0.4-1.5,0.4-3.2,0.1-4.5c-0.5-1.9-1.9-3.5-3.9-4.5
	c-0.3-0.2-0.7-0.3-1.1-0.4c-0.9-0.3-1.9-0.5-2.9-0.6c-0.5,0-1-0.1-2,0c-1,0-2.6,0.1-4.1,0.4s-3.1,0.6-4.9,1c-1.8,0.5-3.9,1.1-6,1.8
	s-4.1,1.5-6.3,2.4s-4.5,2-6.8,3.2s-4.5,2.5-6.2,3.6c-1.7,1.1-3,2.1-4.3,3.1s-2.5,2.1-3.5,3.1c-2.1,2.1-3.7,4.1-5.2,6.4
	c-5.3,4.4-10.7,8.8-16.1,13.1c-4.1,3.1-8.3,6.2-12.6,9.1c-1.4,0.9-2.8,1.8-4.2,2.6s-2.9,1.6-4,2.1c-1,0.5-1.7,0.8-2.3,1
	s-1.3,0.5-1.8,0.6c-0.5,0.2-0.9,0.2-1.3,0.3s-0.8,0.1-1.1,0.2c-0.9,0.1-1.6,0-2-0.1c-0.9-0.3-1.1-0.5-1.4-1.1
	c-0.1-0.3-0.3-1.2-0.1-2c0.1-0.5,0.4-1.2,1.3-2.7c0.2-0.3,0.4-0.6,0.9-1.3c0.4-0.6,1.1-1.5,1.9-2.4c3.5-4.3,7.5-8.5,11.4-12.7
	c3.6-4,7.2-8,10.9-12c1.5-1.6,3-3.2,4.3-4.9c0.5-0.6,0.9-1.2,1.2-1.7s0.6-0.8,0.8-1.2s0.4-0.7,0.5-1.1c0.4-1,0.6-1.6,0.7-2.8
	c0-0.8-0.1-1.8-0.2-2.7c-0.3-1.4-0.9-2.7-1.6-3.6c-1-1.4-1.7-1.6-2.1-1.7c-0.6-0.2-1.2-0.2-2.1,0c-1.9,0.4-3.8,1-5.8,0.8
	c-2.5-0.2-3.5-1-4.2-2.1c-0.3-0.4-0.5-0.9-0.6-1.5c-0.2-0.7-0.2-2.7,0.6-4.4c0.1-0.3,0.3-0.6,0.5-0.9c0.2,0.2,0.3,0.3,0.6,0.7
	c0.4,0.4,1.1,1.2,1.6,1.6c0.8,0.7,1.4,0.9,2.4,1.1c1.5,0.2,3.8-0.6,4.7-2.4c0.4-0.9,0.6-1.8,0.5-2.5c-0.2-1.5-1.2-3.1-3.4-3.7
	c-2.3-0.6-4.8,0.1-6.7,2.3c-0.2,0.3-0.4,0.6-0.7,0.9c-0.5,0.8-1,1.9-1.3,2.9c-0.2,0.5-0.3,1-0.4,1.6c-0.1,1-0.1,1.8-0.1,2.3
	c0.1,0.8,0.2,1.5,0.4,2.2l-28,22.5l0.3,2.2c9.2-8,18.5-15.2,28-22.5c1.7,1,3.5,1.8,5.4,2c0.6,0.1,1.3,0.1,2,0.1
	c1.6,0,3.4-0.2,5.1-0.8c-6,6.8-12.1,13.5-18.2,20.2c-2.1,2.4-4,4.7-5.8,7.5c-2.9,4.4-5.3,9.6-6.3,15.1c-0.4,2.4-0.8,4.9-0.5,7.3
	c0.1,0.8,0.4,1.8,0.8,2.3c0.4,0.4,0.8,0.8,1.4,1c0.4,0.1,0.9,0.3,2.1,0.3c0.4,0,0.9,0,1.5-0.1c0.5-0.1,1.1-0.2,1.7-0.4
	c0.7-0.2,1.4-0.4,2.2-0.7s1.6-0.6,2.5-1.1c1-0.5,2.2-1.1,3.4-1.8s2.3-1.4,3.5-2.1c7.6-4.9,14.9-10.1,22-15.7c1.9-1.5,3.7-3,5.6-4.6
	c-1.4,3.2-2.1,6.7-2.3,10.2c-0.1,2.2,0,4.4,0.5,6.6c0.2,0.9,0.5,1.7,0.7,2.4c0.3,0.7,0.5,1.1,0.7,1.6c1.3,2.2,3.3,4,5.8,4.8
	c0.5,0.2,1,0.3,1.6,0.4c0.6,0.1,1.3,0.2,2,0.3s1.4,0.1,2.6,0.1s2.9-0.1,4.6-0.4c1.7-0.2,3.4-0.5,5.5-1.1s4.6-1.4,7.1-2.4
	c4.9-2,9.6-4.5,14.1-7.4c2.2-1.4,4.5-3,6.9-4.7c2.4-1.8,5.1-3.9,7.7-6c2.6-2.1,5.2-4.4,7.6-6.6c-1.9,3.7-3.1,7.8-3.3,12
	c-0.2,2.4-0.1,4.8,0.5,7.1c0.2,0.9,0.5,1.7,0.7,2.4c0.3,0.7,0.5,1.1,0.7,1.6c1.3,2.2,3.3,4,5.8,4.8c0.5,0.2,1,0.3,1.6,0.4
	c0.6,0.1,1.3,0.2,2,0.3c0.7,0.1,1.4,0.1,2.6,0.1s2.9-0.1,4.6-0.4c1.7-0.2,3.4-0.5,5.5-1.1s4.6-1.4,7.1-2.4c4.9-2,9.6-4.5,14.1-7.4
	c2.2-1.4,4.5-2.9,7.1-4.9c2.6-1.9,5.6-4.3,8.6-6.8c3.7-3.1,7.2-6.5,10.8-9.6l0,0c4.9-4.2,9.8-8.4,14.8-12.3c2.2-1.6,4.3-3.2,5.9-4.3
	c1.5-1.1,2.4-1.6,3.4-2.2c0.9-0.5,1.8-1.1,2.5-1.4c0.7-0.4,1.2-0.6,1.6-0.8c0.9-0.4,1.6-0.6,2.1-0.7c0.4-0.1,0.8-0.1,1-0.1
	c1,0,2,0.6,2.4,1.4c0.3,0.6,0.2,0.8,0.1,1.1s-0.5,1.2-0.9,1.9c-2.6,3.7-5.7,7.2-8.7,10.7c-4.4,5-8.9,10-13.4,14.9l-20.8,23.2
	l12.4-0.1c3.2-3,6.5-6,9.7-8.9c5-4.3,9.9-8.5,15-12.6c10-8,20.3-15.5,31.2-22.4c5.3-3.2,10.7-6.4,16.6-8.5c0.8-0.3,1.6-0.5,2-0.5
	c0.8-0.1,1,0,1.5,0.2c0.9,0.4,1.8,1.3,1.9,2c0.1,0.4,0.2,0.9-0.3,2c-0.3,0.7-0.9,1.8-2.1,3.3c-0.9,1.1-2,2.4-3.1,3.5
	c-1.5,1.5-3,2.9-4.5,4.4c-3.1,2.9-6.3,5.5-9.3,8.4c-1.5,1.5-2.9,3-4.2,4.5s-2.5,3-3.5,4.5c-1.1,1.5-2,3.2-2.8,4.6
	c-0.7,1.4-1.2,2.5-1.6,3.7s-0.7,2.4-0.8,3.2c-0.2,0.9-0.2,1.4-0.2,1.9s0,1,0,1.4c0,0.7,0.1,1.2,0.3,1.7c0.7,2.3,2.7,4.2,5.1,4.7
	c0.3,0.1,0.5,0.1,0.9,0.1c0.7,0.1,1.5,0.1,2.3,0c0.4,0,0.8-0.1,1.5-0.3s1.8-0.5,2.8-0.8c1-0.4,2-0.8,3.1-1.3s2.4-1.2,3.6-1.9
	s2.4-1.4,4.9-3c2.4-1.6,6-4.1,9.5-6.6c8.2-6,15.8-12.7,23.2-19.5l0,0c3-2.4,6.2-4.6,9.4-6.7c3.2-2.1,6.5-4.1,9-5.5
	c2.4-1.4,3.9-2.2,5.4-2.9c1.5-0.8,3.1-1.5,4.6-2.1c-2.6,3.3-5.5,6.4-8.3,9.6c-3.8,4.2-7.4,8.4-10.9,12.8c-1.3,1.6-2.5,3.3-3.7,5
	s-2.3,3.5-3.1,5s-1.4,2.7-1.9,3.9s-1,2.5-1.3,3.5s-0.5,2-0.6,3s-0.1,1.9-0.1,2.5s0,0.7,0.1,0.9c0,0.2,0,0.3,0.1,0.5
	c0.1,0.4,0.3,1,0.5,1.4c0.5,1,1.2,1.7,2.4,2.1c0.3,0.1,0.7,0.2,1.4,0.3c0.3,0,0.6,0,1,0s1-0.1,1.6-0.2c0.6-0.1,1.2-0.2,2.1-0.4
	s2.2-0.6,3.4-1s2.5-0.9,3.8-1.6c1.3-0.6,2.8-1.4,4.2-2.2s2.8-1.7,4.2-2.7c5.9-4.1,11.6-8.4,17.2-12.8c7.6-6.2,15.1-12.5,22.5-19
	c0.9-0.8,1.8-1.5,2.7-2.3c-2.4,3.4-5.3,6.5-8.1,9.6c-1.6,1.9-3.2,3.8-4.8,5.7s-3,3.9-4.1,5.5s-1.8,2.8-2.5,3.9
	c-0.7,1.2-1.3,2.4-1.8,3.4s-0.8,1.8-1.1,2.6s-0.5,1.6-0.7,2.4c-0.2,0.8-0.3,1.4-0.3,2.1c0,0.7-0.1,1.4,0,1.8c0,0.5,0.1,0.8,0.1,1.1
	c0.4,1.7,1,2.4,1.9,3.1c0.9,0.6,1.9,0.9,3.2,1c0.4,0,0.7,0.1,1.5,0s2.1-0.1,3.4-0.3s2.5-0.5,4.1-1s3.5-1.1,5.5-1.8
	c1.9-0.7,3.8-1.5,6.8-3s7.2-3.8,11.2-6.3c5.9-3.8,11.3-8.3,16.6-12.8c0.9,0.3,1.8,0.6,2.7,0.9c0.5,0.1,1,0.2,1.6,0.3
	c1.2,0.2,2.8,0.1,4.2-0.1c0.7-0.1,1.4-0.3,2.3-0.5c0.8-0.3,1.8-0.6,2.7-1.1c1.6-0.8,3-1.7,4.4-2.7c-2,3.8-3.2,8-3.5,12.3
	c-0.1,1.4-0.1,2.9,0,3.9c0.1,1.1,0.2,1.8,0.3,2.4c0.1,0.7,0.3,1.4,0.5,2c0.4,1.2,0.8,2.2,1.5,3.2c0.3,0.5,0.6,1,0.9,1.3
	c0.8,1.1,1.6,1.7,2.7,2.3c1,0.5,2.1,0.9,3.3,1c0.4,0,0.8,0.1,1.3,0.1c0.6,0,1.3-0.1,2.1-0.2c1.5-0.2,3-0.7,4.7-1.4
	c0.8-0.3,1.6-0.7,2.7-1.3c1.1-0.6,2.5-1.4,3.8-2.2c6.8-4.2,13.1-10,19.7-15.1c-1.2,3.4-2.6,6.8-3.4,10.3c-0.2,0.7-0.3,1.4-0.4,1.9
	c-0.3,1.6-0.4,2.6-0.2,4c0,0.3,0.1,0.6,0.2,1.1c0.2,0.6,0.5,1.3,0.8,1.6c0.6,0.7,1.5,1.2,2.7,1.3c0.2,0,0.4,0,0.7,0
	c0.2,0,0.5,0,0.8,0s0.6-0.1,1.1-0.2c0.5-0.1,1.2-0.3,1.9-0.5s1.4-0.5,2.3-0.9s2.1-0.9,3.2-1.5c1.1-0.6,2.3-1.2,3.8-2.1
	c1.6-1,3.6-2.3,5.6-3.6c10.1-6.8,19.8-15.2,29.3-23.7v0.5c4-3.6,8.1-7.2,12.4-10.6c3.4-2.6,6.8-5.2,10.4-7.4c0.9-0.5,1.8-1,2.5-1.5
	s1.4-0.7,2-1s1.2-0.6,1.8-0.8s0.9-0.4,1.3-0.5c0.4-0.1,0.8-0.2,1.2-0.3c0.3-0.1,0.6-0.1,0.9-0.2c0.5-0.1,1-0.1,1.2-0.1
	c1.3,0.1,2.7,1,2.9,2.6c0,0.4,0,0.7,0,0.9c-0.1,0.6-0.6,2.3-1.4,3.6c-0.2,0.3-0.4,0.6-0.9,1.2s-1.1,1.3-1.8,2
	c-4.2,4.3-8.8,7.3-13.1,10.8c-2.4,2-4.8,4.1-7,6.3c-1.1,1.1-2.2,2.3-3.1,3.4c-3.5,4.3-5.7,8.9-6.3,13.9c-0.2,1.2-0.3,2.4-0.2,3.6
	c0.2,1.4,0.6,2.9,1.2,3.7c0.8,1.1,2,1.9,3.3,2.3c0.3,0.1,0.5,0.1,1,0.1c0.4,0,1,0,1.5,0s1.1-0.1,1.8-0.3s1.6-0.4,2.4-0.7
	c0.8-0.3,1.7-0.6,2.8-1c1.1-0.5,2.4-1.1,3.7-1.7c6.3-3.2,12.5-7.3,18.5-11.5c6.6-4.7,13-9.6,19.3-14.8c2.5-2.1,4.9-4.2,7.4-6.3
	l0.5,0.4c-11.1,12.5-22.1,25.2-33,38c-2.2,2.6-4.3,5.2-6.4,7.9c-9,4.1-18.1,8.2-26.9,13C621.9,196.5,618.9,198.1,616,199.8z"/>
<rect x="126.6" y="102.1" class="st3" width="603.1" height="97.8"/>
<path class="st4" d="M570.5,237.8c-0.4,0.7-0.7,1.3-1,2s-0.6,1.4-0.8,2c-0.4,1.1-0.5,1.9-0.7,2.9c0,0.5-0.1,0.9-0.1,1.3
	c0,1.2,0,1.7,0.4,3c0.2,0.9,0.7,1.8,1.3,2.5c0.6,0.8,1.3,1.4,2.2,1.9c0.3,0.2,0.6,0.3,1,0.5c0.8,0.3,2.1,0.7,3,0.9
	c0.9,0.1,1.4,0.2,2.2,0.2c0.4,0,0.9-0.1,1.3-0.1s0.9-0.1,1.7-0.3s1.8-0.4,2.8-0.6c1-0.3,2-0.6,3-1s2-0.8,3.5-1.6s3.6-1.9,5.6-3.2
	c4.8-3,9-6.6,13.1-10.3c-1.4-0.1-2.9-0.2-4.3-0.5c-2.5,2.3-5.1,4.7-7.8,6.8c-1.7,1.3-3.5,2.5-4.9,3.5c-1.5,1-2.6,1.6-3.8,2.2
	s-2.4,1.1-3.4,1.5s-1.8,0.6-2.6,0.8s-1.6,0.4-2.4,0.5c-0.8,0.1-1.6,0.2-2.2,0.2s-0.9,0-1.2,0c-1.5-0.2-2.2-0.5-2.9-1
	c-1.2-0.8-2.1-2.1-2.4-3.7c-0.1-0.3-0.1-0.5-0.1-1c0-0.4,0-0.9,0-1.4s0.1-1,0.2-1.6c0.2-1.2,0.7-2.5,1.2-3.6s1.1-2.1,1.7-3.1
	C572.9,237.8,571.6,237.8,570.5,237.8"/>
<rect x="567.9" y="237.2" class="st1" width="41" height="17.7"/>
<rect y="0.4" class="st3" width="729.7" height="254.4"/>
</svg>
