<?xml version="1.0" encoding="UTF-8"?>
<svg enable-background="new 0 0 512 512" version="1.1" viewBox="0 0 512 512" xml:space="preserve" xmlns="http://www.w3.org/2000/svg">
<style type="text/css">
	.st0{fill:#FFFFFF;}
</style>

	
		<path class="st0" d="m490.2 113.9c-13.9-24.7-29-29.2-59.6-31-30.7-2-107.8-2.9-174.5-2.9-66.9 0-144 0.9-174.7 2.9-30.6 1.8-45.7 6.3-59.7 31-14.3 24.7-21.7 67.2-21.7 142v0.1 0.1 0.1c0 74.5 7.4 117.3 21.7 141.7 14 24.7 29.1 29.2 59.7 31.3 30.7 1.8 107.8 2.8 174.7 2.8 66.8 0 143.9-1.1 174.6-2.8 30.7-2.1 45.8-6.6 59.6-31.3 14.4-24.4 21.7-67.2 21.7-141.7v-0.2-0.1c0-74.8-7.3-117.3-21.8-142zm-298.2 238.1v-192l160 96-160 96z"/>
	

</svg>
