<?xml version="1.0" encoding="UTF-8"?>
<svg width="511pt" height="511pt" fill="#71c839" opacity=".07" viewBox="0 0 512 511" xmlns="http://www.w3.org/2000/svg">
<path d="m8.5352 512.49h409.6c4.7148 0 8.5352-3.8203 8.5352-8.5312v-76.801h59.73c4.7148 0 8.5352-3.8203 8.5352-8.5312v-85.336c0-4.7109-3.8203-8.5312-8.5352-8.5312h-59.73v-76.801c0-4.7148-3.8203-8.5352-8.5352-8.5352h-15.66c1.2031-5.5781-0.070312-11.406-3.4883-15.977l-38.559-51.398 17.805-13.355c7.9102-5.9219 12.328-15.414 11.77-25.281l-0.85547-15.367c-0.23438-4.168 1.6328-8.1758 4.9727-10.68l17.801-13.352 7.4922 9.9844c1.3555 1.8086 3.375 3.0078 5.6172 3.3281 0.39844 0.054687 0.80078 0.085937 1.207 0.082031 1.8477 0.003906 3.6445-0.59766 5.1211-1.707l70.406-52.816c11.305-8.4805 13.598-24.523 5.1172-35.832l-4.7422-6.3281c-8.4922-11.293-24.527-13.578-35.84-5.1094l-70.398 52.812c-3.7695 2.8281-4.5352 8.1797-1.707 11.949l7.4883 9.9844-17.801 13.355c-7.9102 5.9219-12.332 15.41-11.77 25.277l0.85156 15.367c0.23828 4.168-1.6289 8.1797-4.9688 10.68l-17.801 13.355-38.562-51.398c-4.0352-5.4648-10.59-8.4766-17.367-7.9805-6.4648 0.46875-12.242 4.2188-15.309 9.9336l-70.117 130.47h-200.3c-4.7148 0-8.5352 3.8203-8.5352 8.5352v85.332c0 4.7148 3.8203 8.5352 8.5352 8.5352h59.73v68.266h-59.73c-4.7148 0-8.5352 3.8203-8.5352 8.5352v85.332c0 4.7109 3.8203 8.5312 8.5352 8.5312zm468-493.23c3.7656-2.8281 9.1133-2.0664 11.945 1.7031l4.7422 6.3281c2.8242 3.7695 2.0586 9.1133-1.707 11.941l-63.582 47.699-14.98-19.977zm-322.94 407.89h119.46v68.266h-119.46zm68.266-85.332h119.46v68.266h-119.46zm187.73 153.6h-119.47v-68.266h119.47zm68.266-85.332h-119.47v-68.266h119.47zm-68.266-85.332h-119.47v-49.691l87.344-18.578h32.125zm-115.61-207.72c0.28906-0.59766 0.89062-0.98047 1.5547-1l0.16797-0.007812c0.90625 0.015625 1.7461 0.46484 2.2617 1.207l38.555 51.398-35.203 26.41c-3.7695 2.8281-4.5352 8.1758-1.707 11.949 2.8281 3.7695 8.1758 4.5312 11.949 1.707l35.203-26.41 38.559 51.398c0.61328 0.75 0.79297 1.7617 0.46875 2.6719-0.20312 0.63281-0.73828 1.0977-1.3945 1.2148l-169.29 36c-1.0508 0.16406-2.1055-0.28516-2.7109-1.1602-0.67969-0.82031-0.81641-1.9609-0.35156-2.9219zm-95.238 165.62c4.5469 6.2539 12.352 9.2344 19.91 7.6094l54.402-11.57v46.062h-119.46v-68.27h46.059l-2.6445 4.9219c-3.6562 6.8086-2.9727 15.125 1.7383 21.246zm-181.69 7.9688h17.066c4.7148 0 8.5352-3.8203 8.5352-8.5352 0-4.7109-3.8203-8.5312-8.5352-8.5312h-17.066v-17.07h119.47v68.27h-119.47zm68.266 51.199h119.47v68.266h-119.47zm-68.266 85.332h119.47v68.266h-119.47z"/>
<path d="m110.93 282.09c0-4.7109-3.8203-8.5312-8.5352-8.5312h-34.133c-4.7109 0-8.5312 3.8203-8.5312 8.5312 0 4.7148 3.8203 8.5352 8.5312 8.5352h34.133c4.7148 0 8.5352-3.8203 8.5352-8.5352z"/>
</svg>
