<?xml version="1.0" encoding="iso-8859-1"?>
<!-- Generator: Adobe Illustrator 19.0.0, SVG Export Plug-In . SVG Version: 6.00 Build 0)  -->
<svg version="1.1" id="Capa_1" fill="#71c839" opacity="0.07" xmlns="http://www.w3.org/2000/svg" xmlns:xlink="http://www.w3.org/1999/xlink" x="0px" y="0px"
	viewBox="0 0 411.514 411.514" style="enable-background:new 0 0 411.514 411.514;" xml:space="preserve">
	<g>
		<g>
			<path d="M354.737,265.594c-2.56-10.752-8.704-19.968-18.432-25.6c-2.56-1.536-5.12-3.072-8.192-4.096
			c-2.048-1.024-4.608,0-6.144,2.048l-37.376,59.904c-1.024,2.048-1.024,4.608,1.024,6.144c2.048,2.048,4.096,3.584,6.656,5.12
			c6.656,4.096,14.336,6.144,22.016,6.144c13.824,0,27.136-6.656,34.816-19.456C355.249,287.61,356.785,276.346,354.737,265.594z
			 M340.401,291.194c-4.608,7.168-11.264,11.776-19.456,13.824c-8.192,2.048-16.384,0.512-23.552-4.096
			c-0.512-0.512-1.024-1.024-2.048-1.024l32.768-52.736c1.024,0.512,1.536,1.024,2.048,1.536
			c7.168,4.608,11.776,11.264,13.824,19.456C346.545,275.834,345.009,284.026,340.401,291.194z" />
		</g>
	</g>
	<g>
		<g>
			<path d="M331.185,279.418l-3.584-2.048c-2.56-1.536-5.632-1.024-7.168,1.536s-1.024,5.632,1.536,7.168l3.584,2.048
			c1.024,0.512,2.048,1.024,2.56,1.024c1.536,0,3.584-1.024,4.096-2.56C334.257,284.026,333.745,280.954,331.185,279.418z" />
		</g>
	</g>
	<g>
		<g>
			<path d="M320.433,295.802l-0.512-6.144c-0.512-2.56-3.072-4.608-5.632-4.608c-2.56,0.512-5.12,2.56-4.608,5.632l0.512,6.144
			c0.512,2.56,2.56,4.608,5.12,4.608h0.512C318.385,300.922,320.945,298.874,320.433,295.802z" />
		</g>
	</g>
	<g>
		<g>
			<path d="M338.353,264.57c-0.512-2.56-3.072-4.096-6.144-3.072l-5.12,2.048c-2.56,1.024-4.096,4.096-3.072,6.656
			c0.512,2.048,2.56,3.584,4.608,3.584c0.512,0,1.024,0,1.536-0.512l5.12-2.048C337.841,270.202,339.377,267.13,338.353,264.57z" />
		</g>
	</g>
	<g>
		<g>
			<path d="M142.257,190.842l-53.76-46.08c-2.048-1.536-4.608-1.536-6.656,0c-2.048,1.536-4.096,3.584-6.144,5.632
			c-7.168,8.192-10.752,18.944-9.728,30.208c1.024,10.752,6.144,20.992,14.336,28.16c7.68,6.656,16.896,9.728,26.624,9.728
			c1.024,0,2.048,0,3.072,0c10.752-1.024,20.992-6.144,28.16-14.336c2.048-2.048,3.584-4.608,5.12-7.168
			C144.305,194.938,143.793,192.378,142.257,190.842z M130.993,197.498c-5.632,6.144-12.8,10.24-20.992,10.752
			c-8.192,0.512-16.384-2.048-22.528-7.168c-6.144-5.632-10.24-12.8-10.752-20.992c-0.512-8.192,2.048-16.384,7.168-22.528
			c0.512-0.512,1.024-1.024,1.536-1.536l47.104,39.936C132.017,196.474,131.505,196.986,130.993,197.498z" />
		</g>
	</g>
	<g>
		<g>
			<path d="M102.833,183.162c-2.048-2.048-5.632-1.536-7.168,0.512l-3.072,3.072c-2.048,2.048-1.536,5.632,0.512,7.168
			c1.024,1.024,2.048,1.024,3.584,1.024c1.536,0,3.072-0.512,4.096-1.536l2.56-3.072
			C105.393,188.282,104.881,184.698,102.833,183.162z" />
		</g>
	</g>
	<g>
		<g>
			<path d="M92.081,170.362l-6.144-0.512c-3.072,0-5.12,2.048-5.12,5.12c0,3.072,2.048,5.12,5.12,5.12l6.144,0.512
			c2.56,0,5.12-2.048,5.12-5.12C97.201,172.41,95.153,170.362,92.081,170.362z" />
		</g>
	</g>
	<g>
		<g>
			<path d="M117.681,197.498l-1.024-5.632c-0.512-2.56-3.072-4.608-6.144-4.096c-2.56,0.512-4.608,3.072-4.096,6.144l1.024,5.632
			c0.512,2.56,2.56,4.096,5.12,4.096c0.512,0,0.512,0,1.024,0C116.145,203.13,118.193,200.57,117.681,197.498z" />
		</g>
	</g>
	<g>
		<g>
			<path d="M329.137,193.914c-3.072-10.752-9.728-19.456-18.944-25.088c-9.728-5.632-20.48-7.168-31.232-4.096
			c-10.752,3.072-19.456,9.728-25.088,18.944c-1.536,2.56-2.56,5.12-3.584,8.192c-0.512,2.048,0,4.608,2.56,6.144l61.44,35.328
			c0.512,0,1.536,0,2.048,0c1.536,0,3.072-0.512,3.584-1.536c2.048-2.048,3.584-4.096,5.12-6.656
			C330.673,215.418,332.209,204.666,329.137,193.914z M316.337,219.514c-0.512,0.512-0.512,1.024-1.024,2.048l-53.76-30.72
			c0.512-1.024,0.512-1.536,1.024-2.56c4.096-7.168,10.752-12.288,18.944-14.336c8.192-2.048,16.384-1.024,23.552,3.072
			c7.168,4.096,12.288,10.752,14.336,18.944C321.457,204.154,320.433,212.346,316.337,219.514z" />
		</g>
	</g>
	<g>
		<g>
			<path d="M300.465,185.21c-2.56-1.536-5.632-0.512-7.168,2.048l-2.048,3.584c-1.536,2.56-0.512,5.632,2.048,7.168
			c1.024,0.512,1.536,0.512,2.56,0.512c1.536,0,3.584-1.024,4.608-2.56l2.048-3.584C304.049,189.818,303.025,186.746,300.465,185.21
			z" />
		</g>
	</g>
	<g>
		<g>
			<path d="M310.193,197.498l-5.632,1.024c-2.56,0.512-4.608,3.072-4.608,5.632c0.512,2.56,2.56,4.608,5.12,4.608h0.512l5.632-1.024
			c2.56-0.512,4.608-3.072,4.608-5.632C315.825,199.034,313.265,196.986,310.193,197.498z" />
		</g>
	</g>
	<g>
		<g>
			<path d="M287.153,187.77l-2.048-5.12c-1.024-2.56-4.096-4.096-6.656-2.56c-2.56,1.024-4.096,4.096-2.56,6.656l2.048,5.12
			c1.024,2.048,2.56,3.072,4.608,3.072c0.512,0,1.536,0,2.048-0.512C287.153,193.402,288.689,190.33,287.153,187.77z" />
		</g>
	</g>
	<g>
		<g>
			<path d="M201.649,128.89c-0.512-2.048-2.048-3.584-3.584-4.096l-62.464-16.384c-0.512,0-1.024,0-1.024,0
			c-0.512,0-0.512-0.512-1.024-0.512L71.089,91.514c-2.048-0.512-4.096,0-5.12,1.536c-2.048,2.048-44.544,51.2-31.744,94.72
			c6.656,22.528,27.648,38.912,61.44,48.128l-39.936,153.6l-31.232-8.192c-2.56-0.512-5.632,1.024-6.144,3.584
			c-0.512,2.56,1.024,5.632,3.584,6.144l72.704,18.944c0.512,0,1.024,0,1.536,0c2.048,0,4.608-1.536,5.12-3.584
			c0.512-2.56-1.024-5.632-3.584-6.144l-31.744-7.68l39.936-153.6c11.264,2.56,22.016,4.096,31.232,4.096
			c18.944,0,34.304-5.632,45.568-16.384C215.473,195.45,202.161,131.45,201.649,128.89z M176.049,219.002
			c-14.848,14.336-38.912,17.408-71.168,8.704h-0.512h-0.512h-0.512h-0.512c-32.768-8.704-52.224-23.04-58.368-42.496
			c-5.632-17.92,1.024-37.888,8.704-53.76v0.512l3.584-0.512c10.24-1.536,19.968-2.56,36.864,1.536
			c16.384,4.096,24.576,10.24,32.768,16.384c8.704,6.656,17.92,13.312,36.352,17.92c9.728,2.56,17.92,3.584,24.064,3.584
			c2.56,0,5.12,0,7.168-0.512C193.457,187.77,188.849,206.714,176.049,219.002z M165.809,157.562
			c-16.384-4.096-24.576-10.24-32.768-16.384c-8.704-6.656-17.92-13.312-36.352-17.92c-16.896-4.608-27.648-3.584-37.376-2.56
			c5.12-8.192,10.24-14.848,12.8-18.432l58.88,15.36c0.512,0,0.512,0,1.024,0c0.512,0,0.512,0.512,1.024,0.512l58.88,15.36
			c1.024,4.608,2.048,14.336,2.56,26.112C187.313,160.634,178.609,160.634,165.809,157.562z" />
		</g>
	</g>
	<g>
		<g>
			<path d="M393.137,382.33c-1.024-2.56-3.584-4.096-6.656-3.072l-30.72,9.728l-15.36-47.104
			c47.104-33.28,45.568-91.648-4.608-174.592c-12.288-19.968-18.432-42.496-20.992-61.952c16.384-1.536,30.208-9.216,38.4-22.016
			c8.704-13.312,11.264-30.208,6.144-45.568c-4.608-13.824-13.824-25.088-26.624-31.744c-12.8-6.656-27.648-7.68-41.472-3.584
			c-27.136,8.704-42.496,36.864-36.352,64l-66.56,21.504c-1.536,0.512-3.072,2.048-3.584,3.584c-0.512,1.536,0,3.584,1.024,4.608
			c0.512,0.512,42.496,47.104,46.592,103.936c7.68,95.744,40.448,144.384,97.28,144.384l15.36,47.104l-30.72,9.728
			c-2.56,1.024-4.096,3.584-3.072,6.656c0.512,2.048,2.56,3.584,5.12,3.584c0.512,0,1.024,0,1.536,0l70.656-23.04
			C392.625,387.962,393.649,384.89,393.137,382.33z M294.833,12.666c11.264-3.584,23.04-2.56,33.28,2.56s18.432,14.336,22.016,25.6
			c4.096,12.288,2.048,26.112-5.12,36.864c-4.608,7.168-14.336,15.36-31.232,17.408c-2.048-22.528-0.512-39.424-0.512-39.424
			c0-1.536-0.512-3.584-2.048-4.608s-3.072-1.536-4.608-1.024l-40.96,13.824C261.041,41.85,273.329,19.834,294.833,12.666z
			 M223.153,132.986c-8.704-16.896-17.92-30.208-23.552-37.376l103.424-33.28c-0.512,9.728-0.512,28.672,3.072,49.664
			c-3.072,3.584-6.656,7.68-13.824,9.728c-8.704,3.072-14.848,0.512-21.504-1.536c-7.68-2.56-15.872-5.632-28.16-1.536
			C232.881,121.722,227.249,127.354,223.153,132.986z M243.633,200.058c-1.536-20.992-7.68-39.936-15.36-56.32l0.512-1.024
			c4.096-6.144,7.68-11.264,16.384-13.824c8.704-3.072,14.848-0.512,21.504,1.536c7.68,2.56,15.872,5.632,28.16,1.536
			c5.632-2.048,9.728-4.608,12.8-7.168c3.584,15.872,9.728,32.768,18.944,48.128c47.616,79.36,49.664,132.096,5.632,161.792
			C280.497,336.25,251.313,292.218,243.633,200.058z" />
		</g>
	</g>
	<g>
		<g>
			<path d="M343.473,43.386c-1.024-2.56-3.584-4.096-6.656-3.072l-11.264,3.584c-2.56,0.512-4.096,3.584-3.072,6.144
			c0.512,2.048,2.56,3.584,5.12,3.584c0.512,0,1.024,0,1.536,0l11.264-3.584C342.961,49.018,344.497,46.458,343.473,43.386z" />
		</g>
	</g>
	<g>
		<g>
			<path d="M307.633,34.682l-3.584-11.264c-1.024-2.56-3.584-4.096-6.656-3.072c-2.56,1.024-4.096,3.584-3.072,6.656l3.584,10.752
			c0.512,2.048,2.56,3.584,5.12,3.584c0.512,0,1.024,0,1.536,0C307.121,40.314,308.657,37.754,307.633,34.682z" />
		</g>
	</g>
	<g>
		<g>
			<path d="M338.865,64.378l-10.752-5.632c-2.56-1.536-5.632-0.512-6.656,2.048c-1.536,2.56-0.512,5.632,2.048,6.656l10.752,5.632
			c0.512,0.512,1.536,0.512,2.56,0.512c2.048,0,3.584-1.024,4.608-2.56C342.449,68.986,341.425,65.914,338.865,64.378z" />
		</g>
	</g>
	<g>
		<g>
			<path d="M293.809,41.85l-10.752-5.632c-2.56-1.536-5.632-0.512-6.656,2.048c-1.536,2.048-1.024,5.12,1.536,6.656l10.752,5.632
			c0.512,0.512,1.536,0.512,2.56,0.512c2.048,0,3.584-1.024,4.608-2.56C297.393,45.946,296.369,42.874,293.809,41.85z" />
		</g>
	</g>
	<g>
		<g>
			<path d="M326.065,22.394c-2.56-1.536-5.632-0.512-6.656,2.048l-6.656,10.24c-1.024,2.56,0,5.632,2.56,7.168
			c0.512,0.512,1.536,0.512,2.56,0.512c2.048,0,3.584-1.024,4.608-2.56l5.632-10.752C329.649,26.49,328.625,23.418,326.065,22.394z"
			 />
		</g>
	</g>
	<g>
		<g>
			<path d="M185.265,0.378c-3.072,0-5.12,2.048-5.12,5.12l-1.024,52.736c0,3.072,2.56,5.12,5.12,5.12c3.072,0,5.12-2.048,5.12-5.12
			l1.024-52.736C190.385,2.426,188.337,0.378,185.265,0.378z" />
		</g>
	</g>
	<g>
		<g>
			<path d="M231.345,33.146c-2.56-1.536-5.632-0.512-7.168,1.536l-13.824,23.04c-1.536,3.072-1.024,6.144,1.536,7.68
			c1.024,0.512,1.536,0.512,2.56,0.512c1.536,0,3.584-1.024,4.608-2.56l13.824-23.04C234.417,37.754,233.393,34.682,231.345,33.146z
			" />
		</g>
	</g>
	<g>
		<g>
			<path d="M158.641,58.234l-14.336-23.04c-1.536-2.56-4.608-3.072-7.168-1.536s-3.072,4.608-1.536,7.168l14.848,23.04
			c1.024,1.536,2.56,2.56,4.096,2.56c1.024,0,2.048,0,2.56-1.024C159.665,63.866,160.177,60.794,158.641,58.234z" />
		</g>
	</g>
	<g></g>
	<g></g>
	<g></g>
	<g></g>
	<g></g>
	<g></g>
	<g></g>
	<g></g>
	<g></g>
	<g></g>
	<g></g>
	<g></g>
	<g></g>
	<g></g>
	<g></g>
</svg>